<?xml version="1.0" encoding="UTF-8" standalone="no"?>
<!DOCTYPE svg PUBLIC "-//W3C//DTD SVG 1.1//EN"
 "http://www.w3.org/Graphics/SVG/1.1/DTD/svg11.dtd">
<!-- Generated by graphviz version 5.0.1 (20220820.1526)
 -->
<!-- Title: menu::down Pages: 1 -->
<svg width="257pt" height="64pt"
 viewBox="0.00 0.00 257.00 64.00" xmlns="http://www.w3.org/2000/svg" xmlns:xlink="http://www.w3.org/1999/xlink">
<g id="graph0" class="graph" transform="scale(1 1) rotate(0) translate(4 60)">
<title>menu::down</title>
<!-- Node1 -->
<g id="node1" class="node">
<title>Node1</title>
<g id="a_node1"><a xlink:title="Step te menu downwards if possible.">
<polygon fill="#999999" stroke="#666666" points="249,-37 180,-37 180,-18 249,-18 249,-37"/>
<text text-anchor="middle" x="214.5" y="-25" font-family="Helvetica,sans-Serif" font-size="10.00">menu::down</text>
</a>
</g>
</g>
<!-- Node1&#45;&gt;Node1 -->
<g id="edge1" class="edge">
<title>Node1&#45;&gt;Node1</title>
<path fill="none" stroke="#63b8ff" d="M233.76,-46.55C232.47,-51.38 226.05,-55 214.5,-55 196.02,-55 190.67,-45.73 198.47,-37.08"/>
<polygon fill="#63b8ff" stroke="#63b8ff" points="237.07,-45.42 230.53,-37.08 230.44,-47.68 237.07,-45.42"/>
</g>
<!-- Node2 -->
<g id="node2" class="node">
<title>Node2</title>
<g id="a_node2"><a xlink:href="classmenu.html#a6fcf97a34d06d1889ae8cf52e5060d06" target="_top" xlink:title="Redraw the menu to the display.">
<polygon fill="white" stroke="#666666" points="144,-56 77,-56 77,-37 144,-37 144,-56"/>
<text text-anchor="middle" x="110.5" y="-44" font-family="Helvetica,sans-Serif" font-size="10.00">menu::draw</text>
</a>
</g>
</g>
<!-- Node1&#45;&gt;Node2 -->
<g id="edge2" class="edge">
<title>Node1&#45;&gt;Node2</title>
<path fill="none" stroke="#63b8ff" d="M169.87,-35.63C161.23,-37.24 152.3,-38.9 144.11,-40.43"/>
<polygon fill="#63b8ff" stroke="#63b8ff" points="170.63,-39.05 179.82,-33.77 169.35,-32.16 170.63,-39.05"/>
</g>
<!-- Node4 -->
<g id="node4" class="node">
<title>Node4</title>
<g id="a_node4"><a xlink:href="main_8cpp.html#ae2676edb74235f0d21ef201ba600636a" target="_top" xlink:title="Interrupt service for the encoder rotation events.">
<polygon fill="white" stroke="#666666" points="144,-19 77,-19 77,0 144,0 144,-19"/>
<text text-anchor="middle" x="110.5" y="-7" font-family="Helvetica,sans-Serif" font-size="10.00">encoderISR</text>
</a>
</g>
</g>
<!-- Node1&#45;&gt;Node4 -->
<g id="edge4" class="edge">
<title>Node1&#45;&gt;Node4</title>
<path fill="none" stroke="#63b8ff" d="M169.87,-19.8C161.23,-18.28 152.3,-16.7 144.11,-15.25"/>
<polygon fill="#63b8ff" stroke="#63b8ff" points="169.36,-23.27 179.82,-21.56 170.58,-16.37 169.36,-23.27"/>
</g>
<!-- Node3 -->
<g id="node3" class="node">
<title>Node3</title>
<g id="a_node3"><a xlink:href="main_8cpp.html#afe461d27b9c48d5921c00d521181f12f" target="_top" xlink:title="This is the infinite loop of the code.">
<polygon fill="white" stroke="#666666" points="38,-56 3,-56 3,-37 38,-37 38,-56"/>
<text text-anchor="middle" x="20.5" y="-44" font-family="Helvetica,sans-Serif" font-size="10.00">loop</text>
</a>
</g>
</g>
<!-- Node2&#45;&gt;Node3 -->
<g id="edge3" class="edge">
<title>Node2&#45;&gt;Node3</title>
<path fill="none" stroke="#63b8ff" d="M66.72,-46.5C56.6,-46.5 46.4,-46.5 38.25,-46.5"/>
<polygon fill="#63b8ff" stroke="#63b8ff" points="66.73,-50 76.73,-46.5 66.73,-43 66.73,-50"/>
</g>
<!-- Node5 -->
<g id="node5" class="node">
<title>Node5</title>
<g id="a_node5"><a xlink:href="main_8cpp.html#a4fc01d736fe50cf5b977f755b675f11d" target="_top" xlink:title="Device initialization section after reset.">
<polygon fill="white" stroke="#666666" points="41,-19 0,-19 0,0 41,0 41,-19"/>
<text text-anchor="middle" x="20.5" y="-7" font-family="Helvetica,sans-Serif" font-size="10.00">setup</text>
</a>
</g>
</g>
<!-- Node4&#45;&gt;Node5 -->
<g id="edge5" class="edge">
<title>Node4&#45;&gt;Node5</title>
<path fill="none" stroke="#63b8ff" d="M66.48,-9.5C57.65,-9.5 48.77,-9.5 41.26,-9.5"/>
<polygon fill="#63b8ff" stroke="#63b8ff" points="66.73,-13 76.73,-9.5 66.73,-6 66.73,-13"/>
</g>
</g>
</svg>
