<?xml version="1.0" encoding="UTF-8" standalone="no"?>
<!DOCTYPE svg PUBLIC "-//W3C//DTD SVG 1.1//EN"
 "http://www.w3.org/Graphics/SVG/1.1/DTD/svg11.dtd">
<!-- Generated by graphviz version 5.0.1 (20220820.1526)
 -->
<!-- Title: ssd1306::writeCharacter Pages: 1 -->
<svg width="358pt" height="27pt"
 viewBox="0.00 0.00 358.00 27.00" xmlns="http://www.w3.org/2000/svg" xmlns:xlink="http://www.w3.org/1999/xlink">
<g id="graph0" class="graph" transform="scale(1 1) rotate(0) translate(4 23)">
<title>ssd1306::writeCharacter</title>
<!-- Node1 -->
<g id="node1" class="node">
<title>Node1</title>
<g id="a_node1"><a xlink:title="Write a character to the display.">
<polygon fill="#999999" stroke="#666666" points="350,-19 228,-19 228,0 350,0 350,-19"/>
<text text-anchor="middle" x="289" y="-7" font-family="Helvetica,sans-Serif" font-size="10.00">ssd1306::writeCharacter</text>
</a>
</g>
</g>
<!-- Node2 -->
<g id="node2" class="node">
<title>Node2</title>
<g id="a_node2"><a xlink:href="classssd1306.html#aeb32316ce71950e7ab27838cf56be8c6" target="_top" xlink:title="Print a c&#45;string tho the display.">
<polygon fill="white" stroke="#666666" points="192,-19 114,-19 114,0 192,0 192,-19"/>
<text text-anchor="middle" x="153" y="-7" font-family="Helvetica,sans-Serif" font-size="10.00">ssd1306::print</text>
</a>
</g>
</g>
<!-- Node1&#45;&gt;Node2 -->
<g id="edge1" class="edge">
<title>Node1&#45;&gt;Node2</title>
<path fill="none" stroke="#63b8ff" d="M217.43,-9.5C208.72,-9.5 200.08,-9.5 192.12,-9.5"/>
<polygon fill="#63b8ff" stroke="#63b8ff" points="217.66,-13 227.66,-9.5 217.66,-6 217.66,-13"/>
</g>
<!-- Node3 -->
<g id="node3" class="node">
<title>Node3</title>
<g id="a_node3"><a xlink:href="classssd1306.html#a23f7f1cc9c309b2ddc5c691e4c47d590" target="_top" xlink:title="Print number to the display.">
<polygon fill="white" stroke="#666666" points="78,-19 0,-19 0,0 78,0 78,-19"/>
<text text-anchor="middle" x="39" y="-7" font-family="Helvetica,sans-Serif" font-size="10.00">ssd1306::print</text>
</a>
</g>
</g>
<!-- Node2&#45;&gt;Node3 -->
<g id="edge2" class="edge">
<title>Node2&#45;&gt;Node3</title>
<path fill="none" stroke="#63b8ff" d="M103.54,-9.5C95.01,-9.5 86.25,-9.5 78.06,-9.5"/>
<polygon fill="#63b8ff" stroke="#63b8ff" points="103.77,-13 113.77,-9.5 103.77,-6 103.77,-13"/>
</g>
</g>
</svg>
