<?xml version="1.0" encoding="UTF-8" standalone="no"?>
<!DOCTYPE svg PUBLIC "-//W3C//DTD SVG 1.1//EN"
 "http://www.w3.org/Graphics/SVG/1.1/DTD/svg11.dtd">
<!-- Generated by graphviz version 5.0.1 (20220820.1526)
 -->
<!-- Title: ssd1306::setPixel Pages: 1 -->
<svg width="489pt" height="101pt"
 viewBox="0.00 0.00 489.00 101.00" xmlns="http://www.w3.org/2000/svg" xmlns:xlink="http://www.w3.org/1999/xlink">
<g id="graph0" class="graph" transform="scale(1 1) rotate(0) translate(4 97)">
<title>ssd1306::setPixel</title>
<!-- Node1 -->
<g id="node1" class="node">
<title>Node1</title>
<g id="a_node1"><a xlink:title=" ">
<polygon fill="#999999" stroke="#666666" points="481,-56 386,-56 386,-37 481,-37 481,-56"/>
<text text-anchor="middle" x="433.5" y="-44" font-family="Helvetica,sans-Serif" font-size="10.00">ssd1306::setPixel</text>
</a>
</g>
</g>
<!-- Node2 -->
<g id="node2" class="node">
<title>Node2</title>
<g id="a_node2"><a xlink:href="classssd1306.html#afc46c20f6abf35dc00f3c1a435f6caa6" target="_top" xlink:title=" ">
<polygon fill="white" stroke="#666666" points="333.5,-93 244.5,-93 244.5,-74 333.5,-74 333.5,-93"/>
<text text-anchor="middle" x="289" y="-81" font-family="Helvetica,sans-Serif" font-size="10.00">ssd1306::fillRect</text>
</a>
</g>
</g>
<!-- Node1&#45;&gt;Node2 -->
<g id="edge1" class="edge">
<title>Node1&#45;&gt;Node2</title>
<path fill="none" stroke="#63b8ff" d="M386.08,-58.55C366.96,-63.52 345.1,-69.19 327.07,-73.88"/>
<polygon fill="#63b8ff" stroke="#63b8ff" points="387,-61.93 395.8,-56.03 385.24,-55.15 387,-61.93"/>
</g>
<!-- Node3 -->
<g id="node3" class="node">
<title>Node3</title>
<g id="a_node3"><a xlink:href="classssd1306.html#a547de6f6b0943b64628d0bb93403698a" target="_top" xlink:title=" ">
<polygon fill="white" stroke="#666666" points="326,-56 252,-56 252,-37 326,-37 326,-56"/>
<text text-anchor="middle" x="289" y="-44" font-family="Helvetica,sans-Serif" font-size="10.00">ssd1306::line</text>
</a>
</g>
</g>
<!-- Node1&#45;&gt;Node3 -->
<g id="edge2" class="edge">
<title>Node1&#45;&gt;Node3</title>
<path fill="none" stroke="#63b8ff" d="M375.67,-46.5C359.05,-46.5 341.35,-46.5 326.37,-46.5"/>
<polygon fill="#63b8ff" stroke="#63b8ff" points="375.84,-50 385.84,-46.5 375.84,-43 375.84,-50"/>
</g>
<!-- Node4 -->
<g id="node4" class="node">
<title>Node4</title>
<g id="a_node4"><a xlink:href="classssd1306.html#a24d76957efada045c99ca3bb71f19ec3" target="_top" xlink:title=" ">
<polygon fill="white" stroke="#666666" points="350,-19 228,-19 228,0 350,0 350,-19"/>
<text text-anchor="middle" x="289" y="-7" font-family="Helvetica,sans-Serif" font-size="10.00">ssd1306::writeCharacter</text>
</a>
</g>
</g>
<!-- Node1&#45;&gt;Node4 -->
<g id="edge3" class="edge">
<title>Node1&#45;&gt;Node4</title>
<path fill="none" stroke="#63b8ff" d="M386.08,-34.45C366.96,-29.48 345.1,-23.81 327.07,-19.12"/>
<polygon fill="#63b8ff" stroke="#63b8ff" points="385.24,-37.85 395.8,-36.97 387,-31.07 385.24,-37.85"/>
</g>
<!-- Node5 -->
<g id="node5" class="node">
<title>Node5</title>
<g id="a_node5"><a xlink:href="classssd1306.html#aeb32316ce71950e7ab27838cf56be8c6" target="_top" xlink:title=" ">
<polygon fill="white" stroke="#666666" points="192,-19 114,-19 114,0 192,0 192,-19"/>
<text text-anchor="middle" x="153" y="-7" font-family="Helvetica,sans-Serif" font-size="10.00">ssd1306::print</text>
</a>
</g>
</g>
<!-- Node4&#45;&gt;Node5 -->
<g id="edge4" class="edge">
<title>Node4&#45;&gt;Node5</title>
<path fill="none" stroke="#63b8ff" d="M217.43,-9.5C208.72,-9.5 200.08,-9.5 192.12,-9.5"/>
<polygon fill="#63b8ff" stroke="#63b8ff" points="217.66,-13 227.66,-9.5 217.66,-6 217.66,-13"/>
</g>
<!-- Node6 -->
<g id="node6" class="node">
<title>Node6</title>
<g id="a_node6"><a xlink:href="classssd1306.html#a23f7f1cc9c309b2ddc5c691e4c47d590" target="_top" xlink:title=" ">
<polygon fill="white" stroke="#666666" points="78,-19 0,-19 0,0 78,0 78,-19"/>
<text text-anchor="middle" x="39" y="-7" font-family="Helvetica,sans-Serif" font-size="10.00">ssd1306::print</text>
</a>
</g>
</g>
<!-- Node5&#45;&gt;Node6 -->
<g id="edge5" class="edge">
<title>Node5&#45;&gt;Node6</title>
<path fill="none" stroke="#63b8ff" d="M103.54,-9.5C95.01,-9.5 86.25,-9.5 78.06,-9.5"/>
<polygon fill="#63b8ff" stroke="#63b8ff" points="103.77,-13 113.77,-9.5 103.77,-6 103.77,-13"/>
</g>
</g>
</svg>
