<?xml version="1.0" encoding="UTF-8" standalone="no"?>
<!DOCTYPE svg PUBLIC "-//W3C//DTD SVG 1.1//EN"
 "http://www.w3.org/Graphics/SVG/1.1/DTD/svg11.dtd">
<!-- Generated by graphviz version 5.0.1 (20220820.1526)
 -->
<!-- Title: ssd1306::displayOn Pages: 1 -->
<svg width="432pt" height="139pt"
 viewBox="0.00 0.00 432.00 139.00" xmlns="http://www.w3.org/2000/svg" xmlns:xlink="http://www.w3.org/1999/xlink">
<g id="graph0" class="graph" transform="scale(1 1) rotate(0) translate(4 135)">
<title>ssd1306::displayOn</title>
<!-- Node1 -->
<g id="node1" class="node">
<title>Node1</title>
<g id="a_node1"><a xlink:title="Turn on the oled panel.">
<polygon fill="#999999" stroke="#666666" points="424,-75 321,-75 321,-56 424,-56 424,-75"/>
<text text-anchor="middle" x="372.5" y="-63" font-family="Helvetica,sans-Serif" font-size="10.00">ssd1306::displayOn</text>
</a>
</g>
</g>
<!-- Node2 -->
<g id="node2" class="node">
<title>Node2</title>
<g id="a_node2"><a xlink:href="classssd1306.html#a5f79efa39d47eebc8a0e17cc2a30e4fb" target="_top" xlink:title="Init function for the display.">
<polygon fill="white" stroke="#666666" points="173.5,-131 90.5,-131 90.5,-112 173.5,-112 173.5,-131"/>
<text text-anchor="middle" x="132" y="-119" font-family="Helvetica,sans-Serif" font-size="10.00">ssd1306::begin</text>
</a>
</g>
</g>
<!-- Node1&#45;&gt;Node2 -->
<g id="edge1" class="edge">
<title>Node1&#45;&gt;Node2</title>
<path fill="none" stroke="#63b8ff" d="M327.08,-77.73C313.6,-81.33 298.72,-85.19 285,-88.5 247.46,-97.56 204.43,-106.8 173.76,-113.18"/>
<polygon fill="#63b8ff" stroke="#63b8ff" points="328.33,-81.02 337.08,-75.04 326.51,-74.26 328.33,-81.02"/>
</g>
<!-- Node4 -->
<g id="node4" class="node">
<title>Node4</title>
<g id="a_node4"><a xlink:href="motor_control_8cpp.html#a3edea24b195ca992810885fdec367a5b" target="_top" xlink:title="Close the font.">
<polygon fill="white" stroke="#666666" points="285,-56 223,-56 223,-37 285,-37 285,-56"/>
<text text-anchor="middle" x="254" y="-44" font-family="Helvetica,sans-Serif" font-size="10.00">closeFront</text>
</a>
</g>
</g>
<!-- Node1&#45;&gt;Node4 -->
<g id="edge3" class="edge">
<title>Node1&#45;&gt;Node4</title>
<path fill="none" stroke="#63b8ff" d="M310.73,-55.59C301.85,-54.14 293.05,-52.7 285.15,-51.42"/>
<polygon fill="#63b8ff" stroke="#63b8ff" points="310.31,-59.07 320.74,-57.22 311.43,-52.16 310.31,-59.07"/>
</g>
<!-- Node7 -->
<g id="node7" class="node">
<title>Node7</title>
<g id="a_node7"><a xlink:href="motor_control_8cpp.html#a978983329d511d8ab27545d8badfbd89" target="_top" xlink:title="Initialize the motor.">
<polygon fill="white" stroke="#666666" points="159,-94 105,-94 105,-75 159,-75 159,-94"/>
<text text-anchor="middle" x="132" y="-82" font-family="Helvetica,sans-Serif" font-size="10.00">motorInit</text>
</a>
</g>
</g>
<!-- Node1&#45;&gt;Node7 -->
<g id="edge8" class="edge">
<title>Node1&#45;&gt;Node7</title>
<path fill="none" stroke="#63b8ff" d="M310.76,-70.34C261.82,-74.24 195.4,-79.53 159.19,-82.41"/>
<polygon fill="#63b8ff" stroke="#63b8ff" points="311.23,-73.81 320.92,-69.53 310.67,-66.83 311.23,-73.81"/>
</g>
<!-- Node8 -->
<g id="node8" class="node">
<title>Node8</title>
<g id="a_node8"><a xlink:href="motor_control_8cpp.html#aa6b9b6a60feed520f3227ec9a50c5e86" target="_top" xlink:title="Open the font.">
<polygon fill="white" stroke="#666666" points="284,-19 224,-19 224,0 284,0 284,-19"/>
<text text-anchor="middle" x="254" y="-7" font-family="Helvetica,sans-Serif" font-size="10.00">openFront</text>
</a>
</g>
</g>
<!-- Node1&#45;&gt;Node8 -->
<g id="edge9" class="edge">
<title>Node1&#45;&gt;Node8</title>
<path fill="none" stroke="#63b8ff" d="M342.32,-51.47C321.23,-41.33 293.3,-27.91 274.77,-19"/>
<polygon fill="#63b8ff" stroke="#63b8ff" points="340.94,-54.7 351.47,-55.87 343.98,-48.39 340.94,-54.7"/>
</g>
<!-- Node3 -->
<g id="node3" class="node">
<title>Node3</title>
<g id="a_node3"><a xlink:href="main_8cpp.html#a4fc01d736fe50cf5b977f755b675f11d" target="_top" xlink:title="Device initialization section after reset.">
<polygon fill="white" stroke="#666666" points="41,-112 0,-112 0,-93 41,-93 41,-112"/>
<text text-anchor="middle" x="20.5" y="-100" font-family="Helvetica,sans-Serif" font-size="10.00">setup</text>
</a>
</g>
</g>
<!-- Node2&#45;&gt;Node3 -->
<g id="edge2" class="edge">
<title>Node2&#45;&gt;Node3</title>
<path fill="none" stroke="#63b8ff" d="M80.23,-112.69C66.35,-110.28 52.12,-107.81 41.15,-105.91"/>
<polygon fill="#63b8ff" stroke="#63b8ff" points="79.78,-116.16 90.23,-114.43 80.97,-109.27 79.78,-116.16"/>
</g>
<!-- Node5 -->
<g id="node5" class="node">
<title>Node5</title>
<g id="a_node5"><a xlink:href="main_8cpp.html#a098f004d14a561a6007a87e9a2959eb9" target="_top" xlink:title="This function handles the button press detection.">
<polygon fill="white" stroke="#666666" points="187,-38 77,-38 77,-19 187,-19 187,-38"/>
<text text-anchor="middle" x="132" y="-26" font-family="Helvetica,sans-Serif" font-size="10.00">encoderButtonUpdate</text>
</a>
</g>
</g>
<!-- Node4&#45;&gt;Node5 -->
<g id="edge4" class="edge">
<title>Node4&#45;&gt;Node5</title>
<path fill="none" stroke="#63b8ff" d="M212.67,-40.45C204.46,-39.22 195.7,-37.9 187.1,-36.61"/>
<polygon fill="#63b8ff" stroke="#63b8ff" points="212.31,-43.94 222.72,-41.96 213.35,-37.01 212.31,-43.94"/>
</g>
<!-- Node4&#45;&gt;Node7 -->
<g id="edge6" class="edge">
<title>Node4&#45;&gt;Node7</title>
<path fill="none" stroke="#63b8ff" d="M213.17,-59.11C195.41,-64.74 174.99,-71.2 159.2,-76.2"/>
<polygon fill="#63b8ff" stroke="#63b8ff" points="214.24,-62.44 222.72,-56.09 212.13,-55.77 214.24,-62.44"/>
</g>
<!-- Node6 -->
<g id="node6" class="node">
<title>Node6</title>
<g id="a_node6"><a xlink:href="main_8cpp.html#afe461d27b9c48d5921c00d521181f12f" target="_top" xlink:title="This is the infinite loop of the code.">
<polygon fill="white" stroke="#666666" points="38,-38 3,-38 3,-19 38,-19 38,-38"/>
<text text-anchor="middle" x="20.5" y="-26" font-family="Helvetica,sans-Serif" font-size="10.00">loop</text>
</a>
</g>
</g>
<!-- Node5&#45;&gt;Node6 -->
<g id="edge5" class="edge">
<title>Node5&#45;&gt;Node6</title>
<path fill="none" stroke="#63b8ff" d="M66.76,-28.5C56.28,-28.5 46.29,-28.5 38.37,-28.5"/>
<polygon fill="#63b8ff" stroke="#63b8ff" points="66.89,-32 76.89,-28.5 66.89,-25 66.89,-32"/>
</g>
<!-- Node7&#45;&gt;Node3 -->
<g id="edge7" class="edge">
<title>Node7&#45;&gt;Node3</title>
<path fill="none" stroke="#63b8ff" d="M94.71,-90.47C76.92,-93.39 56.19,-96.8 41.34,-99.24"/>
<polygon fill="#63b8ff" stroke="#63b8ff" points="95.47,-93.89 104.77,-88.81 94.34,-86.98 95.47,-93.89"/>
</g>
<!-- Node8&#45;&gt;Node5 -->
<g id="edge10" class="edge">
<title>Node8&#45;&gt;Node5</title>
<path fill="none" stroke="#63b8ff" d="M213.89,-15.69C205.34,-17.05 196.14,-18.5 187.12,-19.93"/>
<polygon fill="#63b8ff" stroke="#63b8ff" points="214.62,-19.12 223.95,-14.1 213.53,-12.21 214.62,-19.12"/>
</g>
</g>
</svg>
