<?xml version="1.0" encoding="UTF-8" standalone="no"?>
<!DOCTYPE svg PUBLIC "-//W3C//DTD SVG 1.1//EN"
 "http://www.w3.org/Graphics/SVG/1.1/DTD/svg11.dtd">
<!-- Generated by graphviz version 5.0.1 (20220820.1526)
 -->
<!-- Title: menu::next Pages: 1 -->
<svg width="290pt" height="45pt"
 viewBox="0.00 0.00 290.00 45.00" xmlns="http://www.w3.org/2000/svg" xmlns:xlink="http://www.w3.org/1999/xlink">
<g id="graph0" class="graph" transform="scale(1 1) rotate(0) translate(4 41)">
<title>menu::next</title>
<!-- Node1 -->
<g id="node1" class="node">
<title>Node1</title>
<g id="a_node1"><a xlink:title=" ">
<polygon fill="#999999" stroke="#666666" points="282,-19 217,-19 217,0 282,0 282,-19"/>
<text text-anchor="middle" x="249.5" y="-7" font-family="Helvetica,sans-Serif" font-size="10.00">menu::next</text>
</a>
</g>
</g>
<!-- Node1&#45;&gt;Node1 -->
<g id="edge3" class="edge">
<title>Node1&#45;&gt;Node1</title>
<path fill="none" stroke="#63b8ff" d="M272.09,-28.55C270.58,-33.38 263.05,-37 249.5,-37 227.82,-37 221.55,-27.73 230.7,-19.08"/>
<polygon fill="#63b8ff" stroke="#63b8ff" points="275.27,-27.07 268.3,-19.08 268.77,-29.67 275.27,-27.07"/>
</g>
<!-- Node2 -->
<g id="node2" class="node">
<title>Node2</title>
<g id="a_node2"><a xlink:href="main_8cpp.html#a098f004d14a561a6007a87e9a2959eb9" target="_top" xlink:title=" ">
<polygon fill="white" stroke="#666666" points="181,-19 71,-19 71,0 181,0 181,-19"/>
<text text-anchor="middle" x="126" y="-7" font-family="Helvetica,sans-Serif" font-size="10.00">encoderButtonUpdate</text>
</a>
</g>
</g>
<!-- Node1&#45;&gt;Node2 -->
<g id="edge1" class="edge">
<title>Node1&#45;&gt;Node2</title>
<path fill="none" stroke="#63b8ff" d="M206.74,-9.5C198.46,-9.5 189.66,-9.5 181.04,-9.5"/>
<polygon fill="#63b8ff" stroke="#63b8ff" points="206.89,-13 216.89,-9.5 206.89,-6 206.89,-13"/>
</g>
<!-- Node3 -->
<g id="node3" class="node">
<title>Node3</title>
<g id="a_node3"><a xlink:href="main_8cpp.html#afe461d27b9c48d5921c00d521181f12f" target="_top" xlink:title=" ">
<polygon fill="white" stroke="#666666" points="35,-19 0,-19 0,0 35,0 35,-19"/>
<text text-anchor="middle" x="17.5" y="-7" font-family="Helvetica,sans-Serif" font-size="10.00">loop</text>
</a>
</g>
</g>
<!-- Node2&#45;&gt;Node3 -->
<g id="edge2" class="edge">
<title>Node2&#45;&gt;Node3</title>
<path fill="none" stroke="#63b8ff" d="M60.57,-9.5C51.25,-9.5 42.4,-9.5 35.25,-9.5"/>
<polygon fill="#63b8ff" stroke="#63b8ff" points="60.81,-13 70.81,-9.5 60.81,-6 60.81,-13"/>
</g>
</g>
</svg>
