<?xml version="1.0" encoding="UTF-8" standalone="no"?>
<!DOCTYPE svg PUBLIC "-//W3C//DTD SVG 1.1//EN"
 "http://www.w3.org/Graphics/SVG/1.1/DTD/svg11.dtd">
<!-- Generated by graphviz version 5.0.1 (20220820.1526)
 -->
<!-- Title: ssd1306::print Pages: 1 -->
<svg width="382pt" height="64pt"
 viewBox="0.00 0.00 382.00 64.00" xmlns="http://www.w3.org/2000/svg" xmlns:xlink="http://www.w3.org/1999/xlink">
<g id="graph0" class="graph" transform="scale(1 1) rotate(0) translate(4 60)">
<title>ssd1306::print</title>
<!-- Node1 -->
<g id="node1" class="node">
<title>Node1</title>
<g id="a_node1"><a xlink:title=" ">
<polygon fill="#999999" stroke="#666666" points="78,-37 0,-37 0,-18 78,-18 78,-37"/>
<text text-anchor="middle" x="39" y="-25" font-family="Helvetica,sans-Serif" font-size="10.00">ssd1306::print</text>
</a>
</g>
</g>
<!-- Node2 -->
<g id="node2" class="node">
<title>Node2</title>
<g id="a_node2"><a xlink:href="classssd1306.html#a24d76957efada045c99ca3bb71f19ec3" target="_top" xlink:title=" ">
<polygon fill="white" stroke="#666666" points="236,-37 114,-37 114,-18 236,-18 236,-37"/>
<text text-anchor="middle" x="175" y="-25" font-family="Helvetica,sans-Serif" font-size="10.00">ssd1306::writeCharacter</text>
</a>
</g>
</g>
<!-- Node1&#45;&gt;Node2 -->
<g id="edge1" class="edge">
<title>Node1&#45;&gt;Node2</title>
<path fill="none" stroke="#63b8ff" d="M78.04,-27.5C86.14,-27.5 94.93,-27.5 103.8,-27.5"/>
<polygon fill="#63b8ff" stroke="#63b8ff" points="103.81,-31 113.81,-27.5 103.81,-24 103.81,-31"/>
</g>
<!-- Node3 -->
<g id="node3" class="node">
<title>Node3</title>
<g id="a_node3"><a xlink:href="classssd1306.html#a7abfe1d522f84e2a28cd4d95ec238097" target="_top" xlink:title=" ">
<polygon fill="white" stroke="#666666" points="374,-56 272,-56 272,-37 374,-37 374,-56"/>
<text text-anchor="middle" x="323" y="-44" font-family="Helvetica,sans-Serif" font-size="10.00">ssd1306::clearPixel</text>
</a>
</g>
</g>
<!-- Node2&#45;&gt;Node3 -->
<g id="edge2" class="edge">
<title>Node2&#45;&gt;Node3</title>
<path fill="none" stroke="#63b8ff" d="M236.23,-35.34C244.6,-36.43 253.21,-37.55 261.59,-38.64"/>
<polygon fill="#63b8ff" stroke="#63b8ff" points="261.3,-42.13 271.67,-39.95 262.2,-35.19 261.3,-42.13"/>
</g>
<!-- Node4 -->
<g id="node4" class="node">
<title>Node4</title>
<g id="a_node4"><a xlink:href="classssd1306.html#aaf722f3e4edc245962dacd80bf4d10ff" target="_top" xlink:title=" ">
<polygon fill="white" stroke="#666666" points="370.5,-19 275.5,-19 275.5,0 370.5,0 370.5,-19"/>
<text text-anchor="middle" x="323" y="-7" font-family="Helvetica,sans-Serif" font-size="10.00">ssd1306::setPixel</text>
</a>
</g>
</g>
<!-- Node2&#45;&gt;Node4 -->
<g id="edge3" class="edge">
<title>Node2&#45;&gt;Node4</title>
<path fill="none" stroke="#63b8ff" d="M236.23,-20.07C245.8,-18.89 255.68,-17.68 265.17,-16.51"/>
<polygon fill="#63b8ff" stroke="#63b8ff" points="265.8,-19.96 275.29,-15.26 264.94,-13.01 265.8,-19.96"/>
</g>
</g>
</svg>
