<?xml version="1.0" encoding="UTF-8" standalone="no"?>
<!DOCTYPE svg PUBLIC "-//W3C//DTD SVG 1.1//EN"
 "http://www.w3.org/Graphics/SVG/1.1/DTD/svg11.dtd">
<!-- Generated by graphviz version 5.0.1 (20220820.1526)
 -->
<!-- Title: ssd1306::writeCharacter Pages: 1 -->
<svg width="268pt" height="64pt"
 viewBox="0.00 0.00 268.00 64.00" xmlns="http://www.w3.org/2000/svg" xmlns:xlink="http://www.w3.org/1999/xlink">
<g id="graph0" class="graph" transform="scale(1 1) rotate(0) translate(4 60)">
<title>ssd1306::writeCharacter</title>
<!-- Node1 -->
<g id="node1" class="node">
<title>Node1</title>
<g id="a_node1"><a xlink:title=" ">
<polygon fill="#999999" stroke="#666666" points="122,-37 0,-37 0,-18 122,-18 122,-37"/>
<text text-anchor="middle" x="61" y="-25" font-family="Helvetica,sans-Serif" font-size="10.00">ssd1306::writeCharacter</text>
</a>
</g>
</g>
<!-- Node2 -->
<g id="node2" class="node">
<title>Node2</title>
<g id="a_node2"><a xlink:href="classssd1306.html#a7abfe1d522f84e2a28cd4d95ec238097" target="_top" xlink:title=" ">
<polygon fill="white" stroke="#666666" points="260,-56 158,-56 158,-37 260,-37 260,-56"/>
<text text-anchor="middle" x="209" y="-44" font-family="Helvetica,sans-Serif" font-size="10.00">ssd1306::clearPixel</text>
</a>
</g>
</g>
<!-- Node1&#45;&gt;Node2 -->
<g id="edge1" class="edge">
<title>Node1&#45;&gt;Node2</title>
<path fill="none" stroke="#63b8ff" d="M122.23,-35.34C130.6,-36.43 139.21,-37.55 147.59,-38.64"/>
<polygon fill="#63b8ff" stroke="#63b8ff" points="147.3,-42.13 157.67,-39.95 148.2,-35.19 147.3,-42.13"/>
</g>
<!-- Node3 -->
<g id="node3" class="node">
<title>Node3</title>
<g id="a_node3"><a xlink:href="classssd1306.html#aaf722f3e4edc245962dacd80bf4d10ff" target="_top" xlink:title=" ">
<polygon fill="white" stroke="#666666" points="256.5,-19 161.5,-19 161.5,0 256.5,0 256.5,-19"/>
<text text-anchor="middle" x="209" y="-7" font-family="Helvetica,sans-Serif" font-size="10.00">ssd1306::setPixel</text>
</a>
</g>
</g>
<!-- Node1&#45;&gt;Node3 -->
<g id="edge2" class="edge">
<title>Node1&#45;&gt;Node3</title>
<path fill="none" stroke="#63b8ff" d="M122.23,-20.07C131.8,-18.89 141.68,-17.68 151.17,-16.51"/>
<polygon fill="#63b8ff" stroke="#63b8ff" points="151.8,-19.96 161.29,-15.26 150.94,-13.01 151.8,-19.96"/>
</g>
</g>
</svg>
