<?xml version="1.0" encoding="UTF-8" standalone="no"?>
<!DOCTYPE svg PUBLIC "-//W3C//DTD SVG 1.1//EN"
 "http://www.w3.org/Graphics/SVG/1.1/DTD/svg11.dtd">
<!-- Generated by graphviz version 5.0.1 (20220820.1526)
 -->
<!-- Title: ssd1306::print Pages: 1 -->
<svg width="496pt" height="64pt"
 viewBox="0.00 0.00 496.00 64.00" xmlns="http://www.w3.org/2000/svg" xmlns:xlink="http://www.w3.org/1999/xlink">
<g id="graph0" class="graph" transform="scale(1 1) rotate(0) translate(4 60)">
<title>ssd1306::print</title>
<!-- Node1 -->
<g id="node1" class="node">
<title>Node1</title>
<g id="a_node1"><a xlink:title=" ">
<polygon fill="#999999" stroke="#666666" points="78,-37 0,-37 0,-18 78,-18 78,-37"/>
<text text-anchor="middle" x="39" y="-25" font-family="Helvetica,sans-Serif" font-size="10.00">ssd1306::print</text>
</a>
</g>
</g>
<!-- Node2 -->
<g id="node2" class="node">
<title>Node2</title>
<g id="a_node2"><a xlink:href="classssd1306.html#aeb32316ce71950e7ab27838cf56be8c6" target="_top" xlink:title=" ">
<polygon fill="white" stroke="#666666" points="192,-37 114,-37 114,-18 192,-18 192,-37"/>
<text text-anchor="middle" x="153" y="-25" font-family="Helvetica,sans-Serif" font-size="10.00">ssd1306::print</text>
</a>
</g>
</g>
<!-- Node1&#45;&gt;Node2 -->
<g id="edge1" class="edge">
<title>Node1&#45;&gt;Node2</title>
<path fill="none" stroke="#63b8ff" d="M78.23,-27.5C86.43,-27.5 95.2,-27.5 103.72,-27.5"/>
<polygon fill="#63b8ff" stroke="#63b8ff" points="103.94,-31 113.94,-27.5 103.94,-24 103.94,-31"/>
</g>
<!-- Node3 -->
<g id="node3" class="node">
<title>Node3</title>
<g id="a_node3"><a xlink:href="classssd1306.html#a24d76957efada045c99ca3bb71f19ec3" target="_top" xlink:title=" ">
<polygon fill="white" stroke="#666666" points="350,-37 228,-37 228,-18 350,-18 350,-37"/>
<text text-anchor="middle" x="289" y="-25" font-family="Helvetica,sans-Serif" font-size="10.00">ssd1306::writeCharacter</text>
</a>
</g>
</g>
<!-- Node2&#45;&gt;Node3 -->
<g id="edge2" class="edge">
<title>Node2&#45;&gt;Node3</title>
<path fill="none" stroke="#63b8ff" d="M192.04,-27.5C200.14,-27.5 208.93,-27.5 217.8,-27.5"/>
<polygon fill="#63b8ff" stroke="#63b8ff" points="217.81,-31 227.81,-27.5 217.81,-24 217.81,-31"/>
</g>
<!-- Node4 -->
<g id="node4" class="node">
<title>Node4</title>
<g id="a_node4"><a xlink:href="classssd1306.html#a7abfe1d522f84e2a28cd4d95ec238097" target="_top" xlink:title=" ">
<polygon fill="white" stroke="#666666" points="488,-56 386,-56 386,-37 488,-37 488,-56"/>
<text text-anchor="middle" x="437" y="-44" font-family="Helvetica,sans-Serif" font-size="10.00">ssd1306::clearPixel</text>
</a>
</g>
</g>
<!-- Node3&#45;&gt;Node4 -->
<g id="edge3" class="edge">
<title>Node3&#45;&gt;Node4</title>
<path fill="none" stroke="#63b8ff" d="M350.23,-35.34C358.6,-36.43 367.21,-37.55 375.59,-38.64"/>
<polygon fill="#63b8ff" stroke="#63b8ff" points="375.3,-42.13 385.67,-39.95 376.2,-35.19 375.3,-42.13"/>
</g>
<!-- Node5 -->
<g id="node5" class="node">
<title>Node5</title>
<g id="a_node5"><a xlink:href="classssd1306.html#aaf722f3e4edc245962dacd80bf4d10ff" target="_top" xlink:title=" ">
<polygon fill="white" stroke="#666666" points="484.5,-19 389.5,-19 389.5,0 484.5,0 484.5,-19"/>
<text text-anchor="middle" x="437" y="-7" font-family="Helvetica,sans-Serif" font-size="10.00">ssd1306::setPixel</text>
</a>
</g>
</g>
<!-- Node3&#45;&gt;Node5 -->
<g id="edge4" class="edge">
<title>Node3&#45;&gt;Node5</title>
<path fill="none" stroke="#63b8ff" d="M350.23,-20.07C359.8,-18.89 369.68,-17.68 379.17,-16.51"/>
<polygon fill="#63b8ff" stroke="#63b8ff" points="379.8,-19.96 389.29,-15.26 378.94,-13.01 379.8,-19.96"/>
</g>
</g>
</svg>
