<?xml version="1.0" encoding="UTF-8" standalone="no"?>
<!DOCTYPE svg PUBLIC "-//W3C//DTD SVG 1.1//EN"
 "http://www.w3.org/Graphics/SVG/1.1/DTD/svg11.dtd">
<!-- Generated by graphviz version 5.0.1 (20220820.1526)
 -->
<!-- Title: ssd1306::begin Pages: 1 -->
<svg width="230pt" height="64pt"
 viewBox="0.00 0.00 230.00 64.00" xmlns="http://www.w3.org/2000/svg" xmlns:xlink="http://www.w3.org/1999/xlink">
<g id="graph0" class="graph" transform="scale(1 1) rotate(0) translate(4 60)">
<title>ssd1306::begin</title>
<!-- Node1 -->
<g id="node1" class="node">
<title>Node1</title>
<g id="a_node1"><a xlink:title=" ">
<polygon fill="#999999" stroke="#666666" points="83,-37 0,-37 0,-18 83,-18 83,-37"/>
<text text-anchor="middle" x="41.5" y="-25" font-family="Helvetica,sans-Serif" font-size="10.00">ssd1306::begin</text>
</a>
</g>
</g>
<!-- Node2 -->
<g id="node2" class="node">
<title>Node2</title>
<g id="a_node2"><a xlink:href="classssd1306.html#ac35fc8ed03a40242a1762ef4139746f5" target="_top" xlink:title=" ">
<polygon fill="white" stroke="#666666" points="210.5,-56 130.5,-56 130.5,-37 210.5,-37 210.5,-56"/>
<text text-anchor="middle" x="170.5" y="-44" font-family="Helvetica,sans-Serif" font-size="10.00">ssd1306::clear</text>
</a>
</g>
</g>
<!-- Node1&#45;&gt;Node2 -->
<g id="edge1" class="edge">
<title>Node1&#45;&gt;Node2</title>
<path fill="none" stroke="#63b8ff" d="M83.03,-33.56C94.83,-35.33 107.85,-37.28 120.12,-39.11"/>
<polygon fill="#63b8ff" stroke="#63b8ff" points="119.81,-42.61 130.22,-40.62 120.85,-35.68 119.81,-42.61"/>
</g>
<!-- Node3 -->
<g id="node3" class="node">
<title>Node3</title>
<g id="a_node3"><a xlink:href="classssd1306.html#a8ef7011e9d60ce7307650365e48e285d" target="_top" xlink:title=" ">
<polygon fill="white" stroke="#666666" points="222,-19 119,-19 119,0 222,0 222,-19"/>
<text text-anchor="middle" x="170.5" y="-7" font-family="Helvetica,sans-Serif" font-size="10.00">ssd1306::displayOn</text>
</a>
</g>
</g>
<!-- Node1&#45;&gt;Node3 -->
<g id="edge2" class="edge">
<title>Node1&#45;&gt;Node3</title>
<path fill="none" stroke="#63b8ff" d="M83.03,-21.76C91.17,-20.6 99.89,-19.37 108.55,-18.14"/>
<polygon fill="#63b8ff" stroke="#63b8ff" points="109.24,-21.58 118.65,-16.71 108.26,-14.65 109.24,-21.58"/>
</g>
</g>
</svg>
