<?xml version="1.0" encoding="UTF-8" standalone="no"?>
<!DOCTYPE svg PUBLIC "-//W3C//DTD SVG 1.1//EN"
 "http://www.w3.org/Graphics/SVG/1.1/DTD/svg11.dtd">
<!-- Generated by graphviz version 5.0.1 (20220820.1526)
 -->
<!-- Title: menu::draw Pages: 1 -->
<svg width="180pt" height="100pt"
 viewBox="0.00 0.00 180.00 100.00" xmlns="http://www.w3.org/2000/svg" xmlns:xlink="http://www.w3.org/1999/xlink">
<g id="graph0" class="graph" transform="scale(1 1) rotate(0) translate(4 96)">
<title>menu::draw</title>
<!-- Node1 -->
<g id="node1" class="node">
<title>Node1</title>
<g id="a_node1"><a xlink:title=" ">
<polygon fill="#999999" stroke="#666666" points="67,-46 0,-46 0,-27 67,-27 67,-46"/>
<text text-anchor="middle" x="33.5" y="-34" font-family="Helvetica,sans-Serif" font-size="10.00">menu::draw</text>
</a>
</g>
</g>
<!-- Node2 -->
<g id="node2" class="node">
<title>Node2</title>
<g id="a_node2"><a xlink:href="classmenu.html#aa570579eea43a7810230472ee28b873a" target="_top" xlink:title=" ">
<polygon fill="white" stroke="#666666" points="172,-74 103,-74 103,-55 172,-55 172,-74"/>
<text text-anchor="middle" x="137.5" y="-62" font-family="Helvetica,sans-Serif" font-size="10.00">menu::down</text>
</a>
</g>
</g>
<!-- Node1&#45;&gt;Node2 -->
<g id="edge1" class="edge">
<title>Node1&#45;&gt;Node2</title>
<path fill="none" stroke="#63b8ff" d="M67.05,-45.44C75.36,-47.72 84.41,-50.2 93.16,-52.6"/>
<polygon fill="#63b8ff" stroke="#63b8ff" points="92.28,-55.99 102.85,-55.26 94.14,-49.24 92.28,-55.99"/>
</g>
<!-- Node3 -->
<g id="node3" class="node">
<title>Node3</title>
<g id="a_node3"><a xlink:href="classmenu.html#a87a6a695240e84646f5f92a6f764b7e9" target="_top" xlink:title=" ">
<polygon fill="white" stroke="#666666" points="166,-19 109,-19 109,0 166,0 166,-19"/>
<text text-anchor="middle" x="137.5" y="-7" font-family="Helvetica,sans-Serif" font-size="10.00">menu::up</text>
</a>
</g>
</g>
<!-- Node1&#45;&gt;Node3 -->
<g id="edge3" class="edge">
<title>Node1&#45;&gt;Node3</title>
<path fill="none" stroke="#63b8ff" d="M67.05,-27.88C77.22,-25.19 88.51,-22.2 98.98,-19.43"/>
<polygon fill="#63b8ff" stroke="#63b8ff" points="99.94,-22.8 108.71,-16.86 98.15,-16.03 99.94,-22.8"/>
</g>
<!-- Node2&#45;&gt;Node2 -->
<g id="edge2" class="edge">
<title>Node2&#45;&gt;Node2</title>
<path fill="none" stroke="#63b8ff" d="M121.47,-74.08C113.67,-82.73 119.02,-92 137.5,-92 149.05,-92 155.47,-88.38 156.76,-83.55"/>
<polygon fill="#63b8ff" stroke="#63b8ff" points="160.07,-82.42 153.53,-74.08 153.44,-84.68 160.07,-82.42"/>
</g>
<!-- Node3&#45;&gt;Node3 -->
<g id="edge4" class="edge">
<title>Node3&#45;&gt;Node3</title>
<path fill="none" stroke="#63b8ff" d="M121.47,-19.08C113.67,-27.73 119.02,-37 137.5,-37 149.05,-37 155.47,-33.38 156.76,-28.55"/>
<polygon fill="#63b8ff" stroke="#63b8ff" points="160.07,-27.42 153.53,-19.08 153.44,-29.68 160.07,-27.42"/>
</g>
</g>
</svg>
