<?xml version="1.0" encoding="UTF-8" standalone="no"?>
<!DOCTYPE svg PUBLIC "-//W3C//DTD SVG 1.1//EN"
 "http://www.w3.org/Graphics/SVG/1.1/DTD/svg11.dtd">
<!-- Generated by graphviz version 5.0.1 (20220820.1526)
 -->
<!-- Title: ssd1306::line Pages: 1 -->
<svg width="220pt" height="64pt"
 viewBox="0.00 0.00 220.00 64.00" xmlns="http://www.w3.org/2000/svg" xmlns:xlink="http://www.w3.org/1999/xlink">
<g id="graph0" class="graph" transform="scale(1 1) rotate(0) translate(4 60)">
<title>ssd1306::line</title>
<!-- Node1 -->
<g id="node1" class="node">
<title>Node1</title>
<g id="a_node1"><a xlink:title="Print line to the display.">
<polygon fill="#999999" stroke="#666666" points="74,-37 0,-37 0,-18 74,-18 74,-37"/>
<text text-anchor="middle" x="37" y="-25" font-family="Helvetica,sans-Serif" font-size="10.00">ssd1306::line</text>
</a>
</g>
</g>
<!-- Node2 -->
<g id="node2" class="node">
<title>Node2</title>
<g id="a_node2"><a xlink:href="classssd1306.html#a7abfe1d522f84e2a28cd4d95ec238097" target="_top" xlink:title="Clear a pixel by location.">
<polygon fill="white" stroke="#666666" points="212,-56 110,-56 110,-37 212,-37 212,-56"/>
<text text-anchor="middle" x="161" y="-44" font-family="Helvetica,sans-Serif" font-size="10.00">ssd1306::clearPixel</text>
</a>
</g>
</g>
<!-- Node1&#45;&gt;Node2 -->
<g id="edge1" class="edge">
<title>Node1&#45;&gt;Node2</title>
<path fill="none" stroke="#63b8ff" d="M74.27,-33.15C82.25,-34.39 90.91,-35.74 99.55,-37.09"/>
<polygon fill="#63b8ff" stroke="#63b8ff" points="99.22,-40.58 109.64,-38.66 100.3,-33.66 99.22,-40.58"/>
</g>
<!-- Node3 -->
<g id="node3" class="node">
<title>Node3</title>
<g id="a_node3"><a xlink:href="classssd1306.html#aaf722f3e4edc245962dacd80bf4d10ff" target="_top" xlink:title="Set a pixel by location.">
<polygon fill="white" stroke="#666666" points="208.5,-19 113.5,-19 113.5,0 208.5,0 208.5,-19"/>
<text text-anchor="middle" x="161" y="-7" font-family="Helvetica,sans-Serif" font-size="10.00">ssd1306::setPixel</text>
</a>
</g>
</g>
<!-- Node1&#45;&gt;Node3 -->
<g id="edge2" class="edge">
<title>Node1&#45;&gt;Node3</title>
<path fill="none" stroke="#63b8ff" d="M74.27,-22.15C83.34,-20.81 93.29,-19.34 103.1,-17.9"/>
<polygon fill="#63b8ff" stroke="#63b8ff" points="103.84,-21.32 113.23,-16.4 102.82,-14.4 103.84,-21.32"/>
</g>
</g>
</svg>
