<?xml version="1.0" encoding="UTF-8" standalone="no"?>
<!DOCTYPE svg PUBLIC "-//W3C//DTD SVG 1.1//EN"
 "http://www.w3.org/Graphics/SVG/1.1/DTD/svg11.dtd">
<!-- Generated by graphviz version 5.0.1 (20220820.1526)
 -->
<!-- Title: ssd1306::begin Pages: 1 -->
<svg width="390pt" height="83pt"
 viewBox="0.00 0.00 390.00 83.00" xmlns="http://www.w3.org/2000/svg" xmlns:xlink="http://www.w3.org/1999/xlink">
<g id="graph0" class="graph" transform="scale(1 1) rotate(0) translate(4 79)">
<title>ssd1306::begin</title>
<!-- Node1 -->
<g id="node1" class="node">
<title>Node1</title>
<g id="a_node1"><a xlink:title=" ">
<polygon fill="#999999" stroke="#666666" points="83,-38 0,-38 0,-19 83,-19 83,-38"/>
<text text-anchor="middle" x="41.5" y="-26" font-family="Helvetica,sans-Serif" font-size="10.00">ssd1306::begin</text>
</a>
</g>
</g>
<!-- Node2 -->
<g id="node2" class="node">
<title>Node2</title>
<g id="a_node2"><a xlink:href="classssd1306.html#ac35fc8ed03a40242a1762ef4139746f5" target="_top" xlink:title=" ">
<polygon fill="white" stroke="#666666" points="210.5,-75 130.5,-75 130.5,-56 210.5,-56 210.5,-75"/>
<text text-anchor="middle" x="170.5" y="-63" font-family="Helvetica,sans-Serif" font-size="10.00">ssd1306::clear</text>
</a>
</g>
</g>
<!-- Node1&#45;&gt;Node2 -->
<g id="edge1" class="edge">
<title>Node1&#45;&gt;Node2</title>
<path fill="none" stroke="#63b8ff" d="M75.21,-38.03C90.93,-42.61 109.99,-48.16 126.84,-53.07"/>
<polygon fill="#63b8ff" stroke="#63b8ff" points="125.88,-56.44 136.46,-55.88 127.84,-49.72 125.88,-56.44"/>
</g>
<!-- Node3 -->
<g id="node3" class="node">
<title>Node3</title>
<g id="a_node3"><a xlink:href="classssd1306.html#a8ef7011e9d60ce7307650365e48e285d" target="_top" xlink:title=" ">
<polygon fill="white" stroke="#666666" points="222,-38 119,-38 119,-19 222,-19 222,-38"/>
<text text-anchor="middle" x="170.5" y="-26" font-family="Helvetica,sans-Serif" font-size="10.00">ssd1306::displayOn</text>
</a>
</g>
</g>
<!-- Node1&#45;&gt;Node3 -->
<g id="edge2" class="edge">
<title>Node1&#45;&gt;Node3</title>
<path fill="none" stroke="#63b8ff" d="M83.03,-28.5C91.17,-28.5 99.89,-28.5 108.55,-28.5"/>
<polygon fill="#63b8ff" stroke="#63b8ff" points="108.65,-32 118.65,-28.5 108.65,-25 108.65,-32"/>
</g>
<!-- Node4 -->
<g id="node4" class="node">
<title>Node4</title>
<g id="a_node4"><a xlink:href="classssd1306.html#aefa5eaf22de34a236f038ee2f1528d18" target="_top" xlink:title=" ">
<polygon fill="white" stroke="#666666" points="382,-19 258,-19 258,0 382,0 382,-19"/>
<text text-anchor="middle" x="320" y="-7" font-family="Helvetica,sans-Serif" font-size="10.00">ssd1306::writeCommand</text>
</a>
</g>
</g>
<!-- Node1&#45;&gt;Node4 -->
<g id="edge4" class="edge">
<title>Node1&#45;&gt;Node4</title>
<path fill="none" stroke="#63b8ff" d="M75.72,-18.96C89.05,-15.58 104.64,-12.2 119,-10.5 161.57,-5.45 209.6,-5.04 247.92,-5.97"/>
<polygon fill="#63b8ff" stroke="#63b8ff" points="247.86,-9.47 257.95,-6.25 248.05,-2.47 247.86,-9.47"/>
</g>
<!-- Node3&#45;&gt;Node4 -->
<g id="edge3" class="edge">
<title>Node3&#45;&gt;Node4</title>
<path fill="none" stroke="#63b8ff" d="M222.26,-21.96C230.53,-20.9 239.22,-19.78 247.87,-18.66"/>
<polygon fill="#63b8ff" stroke="#63b8ff" points="248.49,-22.11 257.96,-17.36 247.6,-15.17 248.49,-22.11"/>
</g>
</g>
</svg>
