<?xml version="1.0" encoding="UTF-8" standalone="no"?>
<!DOCTYPE svg PUBLIC "-//W3C//DTD SVG 1.1//EN"
 "http://www.w3.org/Graphics/SVG/1.1/DTD/svg11.dtd">
<!-- Generated by graphviz version 5.0.1 (20220820.1526)
 -->
<!-- Title: configurationManager::saveConfig Pages: 1 -->
<svg width="334pt" height="64pt"
 viewBox="0.00 0.00 334.00 64.00" xmlns="http://www.w3.org/2000/svg" xmlns:xlink="http://www.w3.org/1999/xlink">
<g id="graph0" class="graph" transform="scale(1 1) rotate(0) translate(4 60)">
<title>configurationManager::saveConfig</title>
<!-- Node1 -->
<g id="node1" class="node">
<title>Node1</title>
<g id="a_node1"><a xlink:title=" ">
<polygon fill="#999999" stroke="#666666" points="326,-42.5 217,-42.5 217,-12.5 326,-12.5 326,-42.5"/>
<text text-anchor="start" x="225" y="-30.5" font-family="Helvetica,sans-Serif" font-size="10.00">configurationManager</text>
<text text-anchor="middle" x="271.5" y="-19.5" font-family="Helvetica,sans-Serif" font-size="10.00">::saveConfig</text>
</a>
</g>
</g>
<!-- Node2 -->
<g id="node2" class="node">
<title>Node2</title>
<g id="a_node2"><a xlink:href="main_8cpp.html#a098f004d14a561a6007a87e9a2959eb9" target="_top" xlink:title=" ">
<polygon fill="white" stroke="#666666" points="181,-56 71,-56 71,-37 181,-37 181,-56"/>
<text text-anchor="middle" x="126" y="-44" font-family="Helvetica,sans-Serif" font-size="10.00">encoderButtonUpdate</text>
</a>
</g>
</g>
<!-- Node1&#45;&gt;Node2 -->
<g id="edge1" class="edge">
<title>Node1&#45;&gt;Node2</title>
<path fill="none" stroke="#63b8ff" d="M206.73,-35.94C198.19,-37.07 189.5,-38.23 181.14,-39.33"/>
<polygon fill="#63b8ff" stroke="#63b8ff" points="207.2,-39.41 216.66,-34.63 206.28,-32.47 207.2,-39.41"/>
</g>
<!-- Node4 -->
<g id="node4" class="node">
<title>Node4</title>
<g id="a_node4"><a xlink:href="main_8cpp.html#a4fc01d736fe50cf5b977f755b675f11d" target="_top" xlink:title=" ">
<polygon fill="white" stroke="#666666" points="146.5,-19 105.5,-19 105.5,0 146.5,0 146.5,-19"/>
<text text-anchor="middle" x="126" y="-7" font-family="Helvetica,sans-Serif" font-size="10.00">setup</text>
</a>
</g>
</g>
<!-- Node1&#45;&gt;Node4 -->
<g id="edge3" class="edge">
<title>Node1&#45;&gt;Node4</title>
<path fill="none" stroke="#63b8ff" d="M206.48,-19.47C184.83,-16.75 162.23,-13.92 146.69,-11.97"/>
<polygon fill="#63b8ff" stroke="#63b8ff" points="206.3,-22.97 216.66,-20.75 207.17,-16.03 206.3,-22.97"/>
</g>
<!-- Node3 -->
<g id="node3" class="node">
<title>Node3</title>
<g id="a_node3"><a xlink:href="main_8cpp.html#afe461d27b9c48d5921c00d521181f12f" target="_top" xlink:title=" ">
<polygon fill="white" stroke="#666666" points="35,-56 0,-56 0,-37 35,-37 35,-56"/>
<text text-anchor="middle" x="17.5" y="-44" font-family="Helvetica,sans-Serif" font-size="10.00">loop</text>
</a>
</g>
</g>
<!-- Node2&#45;&gt;Node3 -->
<g id="edge2" class="edge">
<title>Node2&#45;&gt;Node3</title>
<path fill="none" stroke="#63b8ff" d="M60.57,-46.5C51.25,-46.5 42.4,-46.5 35.25,-46.5"/>
<polygon fill="#63b8ff" stroke="#63b8ff" points="60.81,-50 70.81,-46.5 60.81,-43 60.81,-50"/>
</g>
</g>
</svg>
