<?xml version="1.0" encoding="UTF-8" standalone="no"?>
<!DOCTYPE svg PUBLIC "-//W3C//DTD SVG 1.1//EN"
 "http://www.w3.org/Graphics/SVG/1.1/DTD/svg11.dtd">
<!-- Generated by graphviz version 5.0.1 (20220820.1526)
 -->
<!-- Title: configurationManager::crcFeed Pages: 1 -->
<svg width="479pt" height="86pt"
 viewBox="0.00 0.00 479.00 86.00" xmlns="http://www.w3.org/2000/svg" xmlns:xlink="http://www.w3.org/1999/xlink">
<g id="graph0" class="graph" transform="scale(1 1) rotate(0) translate(4 82)">
<title>configurationManager::crcFeed</title>
<!-- Node1 -->
<g id="node1" class="node">
<title>Node1</title>
<g id="a_node1"><a xlink:title="Maxim like crc&#45;8.">
<polygon fill="#999999" stroke="#666666" points="471,-54 362,-54 362,-24 471,-24 471,-54"/>
<text text-anchor="start" x="370" y="-42" font-family="Helvetica,sans-Serif" font-size="10.00">configurationManager</text>
<text text-anchor="middle" x="416.5" y="-31" font-family="Helvetica,sans-Serif" font-size="10.00">::crcFeed</text>
</a>
</g>
</g>
<!-- Node2 -->
<g id="node2" class="node">
<title>Node2</title>
<g id="a_node2"><a xlink:href="classconfiguration_manager.html#a629bdf8057c5fd994baf023dbb36d87c" target="_top" xlink:title="Load configuration from EEPROM.">
<polygon fill="white" stroke="#666666" points="326,-78 217,-78 217,-48 326,-48 326,-78"/>
<text text-anchor="start" x="225" y="-66" font-family="Helvetica,sans-Serif" font-size="10.00">configurationManager</text>
<text text-anchor="middle" x="271.5" y="-55" font-family="Helvetica,sans-Serif" font-size="10.00">::loadConfig</text>
</a>
</g>
</g>
<!-- Node1&#45;&gt;Node2 -->
<g id="edge1" class="edge">
<title>Node1&#45;&gt;Node2</title>
<path fill="none" stroke="#63b8ff" d="M351.95,-49.67C343.44,-51.09 334.78,-52.55 326.46,-53.94"/>
<polygon fill="#63b8ff" stroke="#63b8ff" points="352.56,-53.11 361.85,-48 351.4,-46.21 352.56,-53.11"/>
</g>
<!-- Node4 -->
<g id="node4" class="node">
<title>Node4</title>
<g id="a_node4"><a xlink:href="classconfiguration_manager.html#a98840390e246bd6606af1345d54458ec" target="_top" xlink:title="Save configuration to EEPROM.">
<polygon fill="white" stroke="#666666" points="326,-30 217,-30 217,0 326,0 326,-30"/>
<text text-anchor="start" x="225" y="-18" font-family="Helvetica,sans-Serif" font-size="10.00">configurationManager</text>
<text text-anchor="middle" x="271.5" y="-7" font-family="Helvetica,sans-Serif" font-size="10.00">::saveConfig</text>
</a>
</g>
</g>
<!-- Node1&#45;&gt;Node4 -->
<g id="edge3" class="edge">
<title>Node1&#45;&gt;Node4</title>
<path fill="none" stroke="#63b8ff" d="M351.95,-28.33C343.44,-26.91 334.78,-25.45 326.46,-24.06"/>
<polygon fill="#63b8ff" stroke="#63b8ff" points="351.4,-31.79 361.85,-30 352.56,-24.89 351.4,-31.79"/>
</g>
<!-- Node3 -->
<g id="node3" class="node">
<title>Node3</title>
<g id="a_node3"><a xlink:href="main_8cpp.html#a4fc01d736fe50cf5b977f755b675f11d" target="_top" xlink:title="Device initialization section after reset.">
<polygon fill="white" stroke="#666666" points="146.5,-66.5 105.5,-66.5 105.5,-47.5 146.5,-47.5 146.5,-66.5"/>
<text text-anchor="middle" x="126" y="-54.5" font-family="Helvetica,sans-Serif" font-size="10.00">setup</text>
</a>
</g>
</g>
<!-- Node2&#45;&gt;Node3 -->
<g id="edge2" class="edge">
<title>Node2&#45;&gt;Node3</title>
<path fill="none" stroke="#63b8ff" d="M206.48,-60.32C184.83,-59.42 162.23,-58.47 146.69,-57.82"/>
<polygon fill="#63b8ff" stroke="#63b8ff" points="206.52,-63.83 216.66,-60.75 206.81,-56.83 206.52,-63.83"/>
</g>
<!-- Node4&#45;&gt;Node3 -->
<g id="edge6" class="edge">
<title>Node4&#45;&gt;Node3</title>
<path fill="none" stroke="#63b8ff" d="M209.24,-32.93C186.77,-39.51 162.9,-46.49 146.69,-51.24"/>
<polygon fill="#63b8ff" stroke="#63b8ff" points="210.48,-36.21 219.1,-30.04 208.52,-29.49 210.48,-36.21"/>
</g>
<!-- Node5 -->
<g id="node5" class="node">
<title>Node5</title>
<g id="a_node5"><a xlink:href="main_8cpp.html#a098f004d14a561a6007a87e9a2959eb9" target="_top" xlink:title="This function handles the button press detection.">
<polygon fill="white" stroke="#666666" points="181,-24.5 71,-24.5 71,-5.5 181,-5.5 181,-24.5"/>
<text text-anchor="middle" x="126" y="-12.5" font-family="Helvetica,sans-Serif" font-size="10.00">encoderButtonUpdate</text>
</a>
</g>
</g>
<!-- Node4&#45;&gt;Node5 -->
<g id="edge4" class="edge">
<title>Node4&#45;&gt;Node5</title>
<path fill="none" stroke="#63b8ff" d="M206.45,-15C198,-15 189.41,-15 181.14,-15"/>
<polygon fill="#63b8ff" stroke="#63b8ff" points="206.66,-18.5 216.66,-15 206.66,-11.5 206.66,-18.5"/>
</g>
<!-- Node6 -->
<g id="node6" class="node">
<title>Node6</title>
<g id="a_node6"><a xlink:href="main_8cpp.html#afe461d27b9c48d5921c00d521181f12f" target="_top" xlink:title="This is the infinite loop of the code.">
<polygon fill="white" stroke="#666666" points="35,-24.5 0,-24.5 0,-5.5 35,-5.5 35,-24.5"/>
<text text-anchor="middle" x="17.5" y="-12.5" font-family="Helvetica,sans-Serif" font-size="10.00">loop</text>
</a>
</g>
</g>
<!-- Node5&#45;&gt;Node6 -->
<g id="edge5" class="edge">
<title>Node5&#45;&gt;Node6</title>
<path fill="none" stroke="#63b8ff" d="M60.57,-15C51.25,-15 42.4,-15 35.25,-15"/>
<polygon fill="#63b8ff" stroke="#63b8ff" points="60.81,-18.5 70.81,-15 60.81,-11.5 60.81,-18.5"/>
</g>
</g>
</svg>
