<?xml version="1.0" encoding="UTF-8" standalone="no"?>
<!DOCTYPE svg PUBLIC "-//W3C//DTD SVG 1.1//EN"
 "http://www.w3.org/Graphics/SVG/1.1/DTD/svg11.dtd">
<!-- Generated by graphviz version 5.0.1 (20220820.1526)
 -->
<!-- Title: menu::up Pages: 1 -->
<svg width="245pt" height="64pt"
 viewBox="0.00 0.00 245.00 64.00" xmlns="http://www.w3.org/2000/svg" xmlns:xlink="http://www.w3.org/1999/xlink">
<g id="graph0" class="graph" transform="scale(1 1) rotate(0) translate(4 60)">
<title>menu::up</title>
<!-- Node1 -->
<g id="node1" class="node">
<title>Node1</title>
<g id="a_node1"><a xlink:title="Step te menu upwards if possible.">
<polygon fill="#999999" stroke="#666666" points="237,-37 180,-37 180,-18 237,-18 237,-37"/>
<text text-anchor="middle" x="208.5" y="-25" font-family="Helvetica,sans-Serif" font-size="10.00">menu::up</text>
</a>
</g>
</g>
<!-- Node1&#45;&gt;Node1 -->
<g id="edge5" class="edge">
<title>Node1&#45;&gt;Node1</title>
<path fill="none" stroke="#63b8ff" d="M226.55,-46.91C225.13,-51.56 219.11,-55 208.5,-55 191.08,-55 186.05,-45.73 193.4,-37.08"/>
<polygon fill="#63b8ff" stroke="#63b8ff" points="229.83,-45.66 223.6,-37.08 223.12,-47.67 229.83,-45.66"/>
</g>
<!-- Node2 -->
<g id="node2" class="node">
<title>Node2</title>
<g id="a_node2"><a xlink:href="classmenu.html#a6fcf97a34d06d1889ae8cf52e5060d06" target="_top" xlink:title="Redraw the menu to the display.">
<polygon fill="white" stroke="#666666" points="144,-56 77,-56 77,-37 144,-37 144,-56"/>
<text text-anchor="middle" x="110.5" y="-44" font-family="Helvetica,sans-Serif" font-size="10.00">menu::draw</text>
</a>
</g>
</g>
<!-- Node1&#45;&gt;Node2 -->
<g id="edge1" class="edge">
<title>Node1&#45;&gt;Node2</title>
<path fill="none" stroke="#63b8ff" d="M169.9,-34.94C161.38,-36.63 152.4,-38.4 144.11,-40.05"/>
<polygon fill="#63b8ff" stroke="#63b8ff" points="170.86,-38.32 179.99,-32.94 169.5,-31.45 170.86,-38.32"/>
</g>
<!-- Node4 -->
<g id="node4" class="node">
<title>Node4</title>
<g id="a_node4"><a xlink:href="main_8cpp.html#ae2676edb74235f0d21ef201ba600636a" target="_top" xlink:title="Interrupt service for the encoder rotation events.">
<polygon fill="white" stroke="#666666" points="144,-19 77,-19 77,0 144,0 144,-19"/>
<text text-anchor="middle" x="110.5" y="-7" font-family="Helvetica,sans-Serif" font-size="10.00">encoderISR</text>
</a>
</g>
</g>
<!-- Node1&#45;&gt;Node4 -->
<g id="edge3" class="edge">
<title>Node1&#45;&gt;Node4</title>
<path fill="none" stroke="#63b8ff" d="M169.9,-20.45C161.38,-18.85 152.4,-17.17 144.11,-15.61"/>
<polygon fill="#63b8ff" stroke="#63b8ff" points="169.52,-23.94 179.99,-22.34 170.81,-17.06 169.52,-23.94"/>
</g>
<!-- Node3 -->
<g id="node3" class="node">
<title>Node3</title>
<g id="a_node3"><a xlink:href="main_8cpp.html#afe461d27b9c48d5921c00d521181f12f" target="_top" xlink:title="This is the infinite loop of the code.">
<polygon fill="white" stroke="#666666" points="38,-56 3,-56 3,-37 38,-37 38,-56"/>
<text text-anchor="middle" x="20.5" y="-44" font-family="Helvetica,sans-Serif" font-size="10.00">loop</text>
</a>
</g>
</g>
<!-- Node2&#45;&gt;Node3 -->
<g id="edge2" class="edge">
<title>Node2&#45;&gt;Node3</title>
<path fill="none" stroke="#63b8ff" d="M66.72,-46.5C56.6,-46.5 46.4,-46.5 38.25,-46.5"/>
<polygon fill="#63b8ff" stroke="#63b8ff" points="66.73,-50 76.73,-46.5 66.73,-43 66.73,-50"/>
</g>
<!-- Node5 -->
<g id="node5" class="node">
<title>Node5</title>
<g id="a_node5"><a xlink:href="main_8cpp.html#a4fc01d736fe50cf5b977f755b675f11d" target="_top" xlink:title="Device initialization section after reset.">
<polygon fill="white" stroke="#666666" points="41,-19 0,-19 0,0 41,0 41,-19"/>
<text text-anchor="middle" x="20.5" y="-7" font-family="Helvetica,sans-Serif" font-size="10.00">setup</text>
</a>
</g>
</g>
<!-- Node4&#45;&gt;Node5 -->
<g id="edge4" class="edge">
<title>Node4&#45;&gt;Node5</title>
<path fill="none" stroke="#63b8ff" d="M66.48,-9.5C57.65,-9.5 48.77,-9.5 41.26,-9.5"/>
<polygon fill="#63b8ff" stroke="#63b8ff" points="66.73,-13 76.73,-9.5 66.73,-6 66.73,-13"/>
</g>
</g>
</svg>
