<?xml version="1.0" encoding="UTF-8" standalone="no"?>
<!DOCTYPE svg PUBLIC "-//W3C//DTD SVG 1.1//EN"
 "http://www.w3.org/Graphics/SVG/1.1/DTD/svg11.dtd">
<!-- Generated by graphviz version 5.0.1 (20220820.1526)
 -->
<!-- Title: menu Pages: 1 -->
<svg width="182pt" height="107pt"
 viewBox="0.00 0.00 182.00 107.00" xmlns="http://www.w3.org/2000/svg" xmlns:xlink="http://www.w3.org/1999/xlink">
<g id="graph0" class="graph" transform="scale(1 1) rotate(0) translate(4 103)">
<title>menu</title>
<!-- Node1 -->
<g id="node1" class="node">
<title>Node1</title>
<g id="a_node1"><a xlink:title="Menu Controller Class.">
<polygon fill="#999999" stroke="#666666" points="127,-19 86,-19 86,0 127,0 127,-19"/>
<text text-anchor="middle" x="106.5" y="-7" font-family="Helvetica,sans-Serif" font-size="10.00">menu</text>
</a>
</g>
</g>
<!-- Node2 -->
<g id="node2" class="node">
<title>Node2</title>
<g id="a_node2"><a xlink:href="classmenu_item.html" target="_top" xlink:title="Menu Item Class.">
<polygon fill="white" stroke="#666666" points="59,-92 0,-92 0,-73 59,-73 59,-92"/>
<text text-anchor="middle" x="29.5" y="-80" font-family="Helvetica,sans-Serif" font-size="10.00">menuItem</text>
</a>
</g>
</g>
<!-- Node2&#45;&gt;Node1 -->
<g id="edge1" class="edge">
<title>Node2&#45;&gt;Node1</title>
<path fill="none" stroke="#9a32cd" stroke-dasharray="5,2" d="M38.42,-63.68C43.45,-54.89 50.35,-44.57 58.5,-37 66.45,-29.61 76.84,-23.55 85.92,-19.1"/>
<polygon fill="#9a32cd" stroke="#9a32cd" points="35.21,-62.26 33.58,-72.73 41.38,-65.56 35.21,-62.26"/>
<text text-anchor="middle" x="88" y="-40" font-family="Helvetica,sans-Serif" font-size="10.00"> selectedItem</text>
</g>
<!-- Node2&#45;&gt;Node2 -->
<g id="edge2" class="edge">
<title>Node2&#45;&gt;Node2</title>
<path fill="none" stroke="#9a32cd" stroke-dasharray="5,2" d="M69.17,-88.95C73.91,-87.77 77,-85.62 77,-82.5 77,-77.5 69.08,-75 59.19,-75"/>
<polygon fill="#9a32cd" stroke="#9a32cd" points="68.76,-85.47 59.19,-90 69.5,-92.43 68.76,-85.47"/>
<text text-anchor="middle" x="90" y="-91" font-family="Helvetica,sans-Serif" font-size="10.00"> down</text>
<text text-anchor="middle" x="90" y="-80" font-family="Helvetica,sans-Serif" font-size="10.00">next</text>
<text text-anchor="middle" x="90" y="-69" font-family="Helvetica,sans-Serif" font-size="10.00">up</text>
</g>
<!-- Node3 -->
<g id="node3" class="node">
<title>Node3</title>
<g id="a_node3"><a xlink:href="classssd1306.html" target="_top" xlink:title=" ">
<polygon fill="white" stroke="#666666" points="174,-92 121,-92 121,-73 174,-73 174,-92"/>
<text text-anchor="middle" x="147.5" y="-80" font-family="Helvetica,sans-Serif" font-size="10.00">ssd1306</text>
</a>
</g>
</g>
<!-- Node3&#45;&gt;Node1 -->
<g id="edge3" class="edge">
<title>Node3&#45;&gt;Node1</title>
<path fill="none" stroke="#9a32cd" stroke-dasharray="5,2" d="M137.38,-63.97C129.18,-49.78 117.98,-30.38 111.57,-19.28"/>
<polygon fill="#9a32cd" stroke="#9a32cd" points="134.44,-65.88 142.47,-72.79 140.5,-62.38 134.44,-65.88"/>
<text text-anchor="middle" x="137.5" y="-40" font-family="Helvetica,sans-Serif" font-size="10.00"> oled</text>
</g>
</g>
</svg>
