<?xml version="1.0" encoding="UTF-8" standalone="no"?>
<!DOCTYPE svg PUBLIC "-//W3C//DTD SVG 1.1//EN"
 "http://www.w3.org/Graphics/SVG/1.1/DTD/svg11.dtd">
<!-- Generated by graphviz version 5.0.1 (20220820.1526)
 -->
<!-- Title: ssd1306::writeCommand Pages: 1 -->
<svg width="613pt" height="152pt"
 viewBox="0.00 0.00 613.00 152.07" xmlns="http://www.w3.org/2000/svg" xmlns:xlink="http://www.w3.org/1999/xlink">
<g id="graph0" class="graph" transform="scale(1 1) rotate(0) translate(4 148.07)">
<title>ssd1306::writeCommand</title>
<!-- Node1 -->
<g id="node1" class="node">
<title>Node1</title>
<g id="a_node1"><a xlink:title=" ">
<polygon fill="#999999" stroke="#666666" points="605,-87.07 481,-87.07 481,-68.07 605,-68.07 605,-87.07"/>
<text text-anchor="middle" x="543" y="-75.07" font-family="Helvetica,sans-Serif" font-size="10.00">ssd1306::writeCommand</text>
</a>
</g>
</g>
<!-- Node2 -->
<g id="node2" class="node">
<title>Node2</title>
<g id="a_node2"><a xlink:href="classssd1306.html#a5f79efa39d47eebc8a0e17cc2a30e4fb" target="_top" xlink:title=" ">
<polygon fill="white" stroke="#666666" points="306,-144.07 223,-144.07 223,-125.07 306,-125.07 306,-144.07"/>
<text text-anchor="middle" x="264.5" y="-132.07" font-family="Helvetica,sans-Serif" font-size="10.00">ssd1306::begin</text>
</a>
</g>
</g>
<!-- Node1&#45;&gt;Node2 -->
<g id="edge1" class="edge">
<title>Node1&#45;&gt;Node2</title>
<path fill="none" stroke="#63b8ff" d="M512.82,-91.38C493.9,-99.73 468.49,-109.84 445,-115.57 398.27,-126.98 343.04,-131.54 306.31,-133.36"/>
<polygon fill="#63b8ff" stroke="#63b8ff" points="514.4,-94.5 522.08,-87.2 511.52,-88.12 514.4,-94.5"/>
</g>
<!-- Node4 -->
<g id="node4" class="node">
<title>Node4</title>
<g id="a_node4"><a xlink:href="classssd1306.html#a5062186eb98a5bb66a009d232b143172" target="_top" xlink:title=" ">
<polygon fill="white" stroke="#666666" points="444.5,-69.07 342.5,-69.07 342.5,-50.07 444.5,-50.07 444.5,-69.07"/>
<text text-anchor="middle" x="393.5" y="-57.07" font-family="Helvetica,sans-Serif" font-size="10.00">ssd1306::displayOff</text>
</a>
</g>
</g>
<!-- Node1&#45;&gt;Node4 -->
<g id="edge3" class="edge">
<title>Node1&#45;&gt;Node4</title>
<path fill="none" stroke="#63b8ff" d="M470.78,-68.88C461.93,-67.8 453.03,-66.71 444.6,-65.68"/>
<polygon fill="#63b8ff" stroke="#63b8ff" points="470.38,-72.36 480.73,-70.09 471.23,-65.41 470.38,-72.36"/>
</g>
<!-- Node9 -->
<g id="node9" class="node">
<title>Node9</title>
<g id="a_node9"><a xlink:href="classssd1306.html#a8ef7011e9d60ce7307650365e48e285d" target="_top" xlink:title=" ">
<polygon fill="white" stroke="#666666" points="445,-106.07 342,-106.07 342,-87.07 445,-87.07 445,-106.07"/>
<text text-anchor="middle" x="393.5" y="-94.07" font-family="Helvetica,sans-Serif" font-size="10.00">ssd1306::displayOn</text>
</a>
</g>
</g>
<!-- Node1&#45;&gt;Node9 -->
<g id="edge10" class="edge">
<title>Node1&#45;&gt;Node9</title>
<path fill="none" stroke="#63b8ff" d="M470.63,-86.76C461.99,-87.88 453.31,-88.99 445.06,-90.06"/>
<polygon fill="#63b8ff" stroke="#63b8ff" points="471.26,-90.21 480.73,-85.46 470.36,-83.27 471.26,-90.21"/>
</g>
<!-- Node11 -->
<g id="node11" class="node">
<title>Node11</title>
<g id="a_node11"><a xlink:href="classssd1306.html#a9f49989e8e3d77edd76b620ad8d02f9f" target="_top" xlink:title=" ">
<polygon fill="white" stroke="#666666" points="438,-32.07 349,-32.07 349,-13.07 438,-13.07 438,-32.07"/>
<text text-anchor="middle" x="393.5" y="-20.07" font-family="Helvetica,sans-Serif" font-size="10.00">ssd1306::update</text>
</a>
</g>
</g>
<!-- Node1&#45;&gt;Node11 -->
<g id="edge16" class="edge">
<title>Node1&#45;&gt;Node11</title>
<path fill="none" stroke="#63b8ff" d="M507.84,-64.33C489.29,-57.19 465.93,-48.29 445,-40.57 437.4,-37.77 429.14,-34.79 421.53,-32.08"/>
<polygon fill="#63b8ff" stroke="#63b8ff" points="506.75,-67.66 517.34,-67.99 509.27,-61.13 506.75,-67.66"/>
</g>
<!-- Node3 -->
<g id="node3" class="node">
<title>Node3</title>
<g id="a_node3"><a xlink:href="main_8cpp.html#a4fc01d736fe50cf5b977f755b675f11d" target="_top" xlink:title="Device initialization section after reset.">
<polygon fill="white" stroke="#666666" points="41,-125.07 0,-125.07 0,-106.07 41,-106.07 41,-125.07"/>
<text text-anchor="middle" x="20.5" y="-113.07" font-family="Helvetica,sans-Serif" font-size="10.00">setup</text>
</a>
</g>
</g>
<!-- Node2&#45;&gt;Node3 -->
<g id="edge2" class="edge">
<title>Node2&#45;&gt;Node3</title>
<path fill="none" stroke="#63b8ff" d="M212.72,-130.58C159.36,-126.39 78.15,-120.02 41.13,-117.11"/>
<polygon fill="#63b8ff" stroke="#63b8ff" points="212.75,-134.1 222.99,-131.39 213.3,-127.12 212.75,-134.1"/>
</g>
<!-- Node5 -->
<g id="node5" class="node">
<title>Node5</title>
<g id="a_node5"><a xlink:href="motor_control_8cpp.html#a3edea24b195ca992810885fdec367a5b" target="_top" xlink:title=" ">
<polygon fill="white" stroke="#666666" points="295.5,-70.07 233.5,-70.07 233.5,-51.07 295.5,-51.07 295.5,-70.07"/>
<text text-anchor="middle" x="264.5" y="-58.07" font-family="Helvetica,sans-Serif" font-size="10.00">closeFront</text>
</a>
</g>
</g>
<!-- Node4&#45;&gt;Node5 -->
<g id="edge4" class="edge">
<title>Node4&#45;&gt;Node5</title>
<path fill="none" stroke="#63b8ff" d="M332.19,-60.04C319.48,-60.14 306.6,-60.25 295.59,-60.33"/>
<polygon fill="#63b8ff" stroke="#63b8ff" points="332.33,-63.54 342.31,-59.96 332.28,-56.54 332.33,-63.54"/>
</g>
<!-- Node8 -->
<g id="node8" class="node">
<title>Node8</title>
<g id="a_node8"><a xlink:href="motor_control_8cpp.html#a978983329d511d8ab27545d8badfbd89" target="_top" xlink:title=" ">
<polygon fill="white" stroke="#666666" points="159,-42.07 105,-42.07 105,-23.07 159,-23.07 159,-42.07"/>
<text text-anchor="middle" x="132" y="-30.07" font-family="Helvetica,sans-Serif" font-size="10.00">motorInit</text>
</a>
</g>
</g>
<!-- Node4&#45;&gt;Node8 -->
<g id="edge9" class="edge">
<title>Node4&#45;&gt;Node8</title>
<path fill="none" stroke="#63b8ff" d="M352.26,-46C348.71,-44.34 345.24,-42.52 342,-40.57 323.67,-29.5 326.01,-16.18 306,-8.57 254.13,11.15 188.02,-9.59 154.53,-23.02"/>
<polygon fill="#63b8ff" stroke="#63b8ff" points="351.18,-49.34 361.75,-50.06 353.93,-42.91 351.18,-49.34"/>
</g>
<!-- Node6 -->
<g id="node6" class="node">
<title>Node6</title>
<g id="a_node6"><a xlink:href="main_8cpp.html#a098f004d14a561a6007a87e9a2959eb9" target="_top" xlink:title="This function handles the button press detection.">
<polygon fill="white" stroke="#666666" points="187,-79.07 77,-79.07 77,-60.07 187,-60.07 187,-79.07"/>
<text text-anchor="middle" x="132" y="-67.07" font-family="Helvetica,sans-Serif" font-size="10.00">encoderButtonUpdate</text>
</a>
</g>
</g>
<!-- Node5&#45;&gt;Node6 -->
<g id="edge5" class="edge">
<title>Node5&#45;&gt;Node6</title>
<path fill="none" stroke="#63b8ff" d="M223.16,-63.35C211.78,-64.14 199.21,-65 187.16,-65.83"/>
<polygon fill="#63b8ff" stroke="#63b8ff" points="223.5,-66.84 233.23,-62.66 223.02,-59.85 223.5,-66.84"/>
</g>
<!-- Node5&#45;&gt;Node8 -->
<g id="edge7" class="edge">
<title>Node5&#45;&gt;Node8</title>
<path fill="none" stroke="#63b8ff" d="M223.35,-51.95C202.46,-47.47 177.51,-42.12 159.13,-38.18"/>
<polygon fill="#63b8ff" stroke="#63b8ff" points="222.72,-55.4 233.23,-54.08 224.19,-48.56 222.72,-55.4"/>
</g>
<!-- Node7 -->
<g id="node7" class="node">
<title>Node7</title>
<g id="a_node7"><a xlink:href="main_8cpp.html#afe461d27b9c48d5921c00d521181f12f" target="_top" xlink:title="This is the infinite loop of the code.">
<polygon fill="white" stroke="#666666" points="38,-79.07 3,-79.07 3,-60.07 38,-60.07 38,-79.07"/>
<text text-anchor="middle" x="20.5" y="-67.07" font-family="Helvetica,sans-Serif" font-size="10.00">loop</text>
</a>
</g>
</g>
<!-- Node6&#45;&gt;Node7 -->
<g id="edge6" class="edge">
<title>Node6&#45;&gt;Node7</title>
<path fill="none" stroke="#63b8ff" d="M66.76,-69.57C56.28,-69.57 46.29,-69.57 38.37,-69.57"/>
<polygon fill="#63b8ff" stroke="#63b8ff" points="66.89,-73.07 76.89,-69.57 66.89,-66.07 66.89,-73.07"/>
</g>
<!-- Node8&#45;&gt;Node3 -->
<g id="edge8" class="edge">
<title>Node8&#45;&gt;Node3</title>
<path fill="none" stroke="#63b8ff" d="M95.12,-41.47C88.79,-43.88 82.49,-46.87 77,-50.57 65.43,-58.36 40.92,-89.77 28.72,-105.9"/>
<polygon fill="#63b8ff" stroke="#63b8ff" points="96.6,-44.67 104.96,-38.16 94.37,-38.03 96.6,-44.67"/>
</g>
<!-- Node9&#45;&gt;Node2 -->
<g id="edge11" class="edge">
<title>Node9&#45;&gt;Node2</title>
<path fill="none" stroke="#63b8ff" d="M350.61,-109.11C333.33,-114.27 313.63,-120.17 297.54,-124.98"/>
<polygon fill="#63b8ff" stroke="#63b8ff" points="351.88,-112.38 360.45,-106.16 349.87,-105.67 351.88,-112.38"/>
</g>
<!-- Node9&#45;&gt;Node5 -->
<g id="edge12" class="edge">
<title>Node9&#45;&gt;Node5</title>
<path fill="none" stroke="#63b8ff" d="M348.83,-84.19C331.39,-79.25 311.72,-73.67 295.88,-69.18"/>
<polygon fill="#63b8ff" stroke="#63b8ff" points="348.22,-87.66 358.8,-87.02 350.13,-80.92 348.22,-87.66"/>
</g>
<!-- Node9&#45;&gt;Node8 -->
<g id="edge13" class="edge">
<title>Node9&#45;&gt;Node8</title>
<path fill="none" stroke="#63b8ff" d="M349.65,-82.9C347,-81.57 344.42,-80.13 342,-78.57 322.69,-66.17 326.9,-51.04 306,-41.57 257.93,-19.78 194.46,-23.64 159.3,-28.22"/>
<polygon fill="#63b8ff" stroke="#63b8ff" points="348.32,-86.14 358.88,-87.03 351.18,-79.75 348.32,-86.14"/>
</g>
<!-- Node10 -->
<g id="node10" class="node">
<title>Node10</title>
<g id="a_node10"><a xlink:href="motor_control_8cpp.html#aa6b9b6a60feed520f3227ec9a50c5e86" target="_top" xlink:title=" ">
<polygon fill="white" stroke="#666666" points="294.5,-107.07 234.5,-107.07 234.5,-88.07 294.5,-88.07 294.5,-107.07"/>
<text text-anchor="middle" x="264.5" y="-95.07" font-family="Helvetica,sans-Serif" font-size="10.00">openFront</text>
</a>
</g>
</g>
<!-- Node9&#45;&gt;Node10 -->
<g id="edge14" class="edge">
<title>Node9&#45;&gt;Node10</title>
<path fill="none" stroke="#63b8ff" d="M331.67,-97.05C318.78,-97.15 305.74,-97.25 294.68,-97.34"/>
<polygon fill="#63b8ff" stroke="#63b8ff" points="331.97,-100.55 341.94,-96.97 331.91,-93.55 331.97,-100.55"/>
</g>
<!-- Node10&#45;&gt;Node6 -->
<g id="edge15" class="edge">
<title>Node10&#45;&gt;Node6</title>
<path fill="none" stroke="#63b8ff" d="M224.35,-89.17C209.54,-85.99 192.57,-82.35 177.32,-79.08"/>
<polygon fill="#63b8ff" stroke="#63b8ff" points="223.7,-92.61 234.21,-91.29 225.17,-85.77 223.7,-92.61"/>
</g>
</g>
</svg>
