<?xml version="1.0" encoding="UTF-8" standalone="no"?>
<!DOCTYPE svg PUBLIC "-//W3C//DTD SVG 1.1//EN"
 "http://www.w3.org/Graphics/SVG/1.1/DTD/svg11.dtd">
<!-- Generated by graphviz version 5.0.1 (20220820.1526)
 -->
<!-- Title: ssd1306::clearPixel Pages: 1 -->
<svg width="496pt" height="101pt"
 viewBox="0.00 0.00 496.00 101.00" xmlns="http://www.w3.org/2000/svg" xmlns:xlink="http://www.w3.org/1999/xlink">
<g id="graph0" class="graph" transform="scale(1 1) rotate(0) translate(4 97)">
<title>ssd1306::clearPixel</title>
<!-- Node1 -->
<g id="node1" class="node">
<title>Node1</title>
<g id="a_node1"><a xlink:title="Clear a pixel by location.">
<polygon fill="#999999" stroke="#666666" points="488,-56 386,-56 386,-37 488,-37 488,-56"/>
<text text-anchor="middle" x="437" y="-44" font-family="Helvetica,sans-Serif" font-size="10.00">ssd1306::clearPixel</text>
</a>
</g>
</g>
<!-- Node2 -->
<g id="node2" class="node">
<title>Node2</title>
<g id="a_node2"><a xlink:href="classssd1306.html#a75d041fc00d6eecb3fe10839e7cbea78" target="_top" xlink:title="Create a cleared rectangle.">
<polygon fill="white" stroke="#666666" points="339.5,-93 238.5,-93 238.5,-74 339.5,-74 339.5,-93"/>
<text text-anchor="middle" x="289" y="-81" font-family="Helvetica,sans-Serif" font-size="10.00">ssd1306::clearRect</text>
</a>
</g>
</g>
<!-- Node1&#45;&gt;Node2 -->
<g id="edge1" class="edge">
<title>Node1&#45;&gt;Node2</title>
<path fill="none" stroke="#63b8ff" d="M388.67,-58.49C368.93,-63.5 346.32,-69.23 327.72,-73.94"/>
<polygon fill="#63b8ff" stroke="#63b8ff" points="389.57,-61.88 398.4,-56.03 387.85,-55.09 389.57,-61.88"/>
</g>
<!-- Node3 -->
<g id="node3" class="node">
<title>Node3</title>
<g id="a_node3"><a xlink:href="classssd1306.html#a547de6f6b0943b64628d0bb93403698a" target="_top" xlink:title="Print line to the display.">
<polygon fill="white" stroke="#666666" points="326,-56 252,-56 252,-37 326,-37 326,-56"/>
<text text-anchor="middle" x="289" y="-44" font-family="Helvetica,sans-Serif" font-size="10.00">ssd1306::line</text>
</a>
</g>
</g>
<!-- Node1&#45;&gt;Node3 -->
<g id="edge2" class="edge">
<title>Node1&#45;&gt;Node3</title>
<path fill="none" stroke="#63b8ff" d="M375.45,-46.5C358.66,-46.5 340.96,-46.5 326.05,-46.5"/>
<polygon fill="#63b8ff" stroke="#63b8ff" points="375.76,-50 385.76,-46.5 375.76,-43 375.76,-50"/>
</g>
<!-- Node4 -->
<g id="node4" class="node">
<title>Node4</title>
<g id="a_node4"><a xlink:href="classssd1306.html#a24d76957efada045c99ca3bb71f19ec3" target="_top" xlink:title="Write a character to the display.">
<polygon fill="white" stroke="#666666" points="350,-19 228,-19 228,0 350,0 350,-19"/>
<text text-anchor="middle" x="289" y="-7" font-family="Helvetica,sans-Serif" font-size="10.00">ssd1306::writeCharacter</text>
</a>
</g>
</g>
<!-- Node1&#45;&gt;Node4 -->
<g id="edge3" class="edge">
<title>Node1&#45;&gt;Node4</title>
<path fill="none" stroke="#63b8ff" d="M388.67,-34.51C368.93,-29.5 346.32,-23.77 327.72,-19.06"/>
<polygon fill="#63b8ff" stroke="#63b8ff" points="387.85,-37.91 398.4,-36.97 389.57,-31.12 387.85,-37.91"/>
</g>
<!-- Node5 -->
<g id="node5" class="node">
<title>Node5</title>
<g id="a_node5"><a xlink:href="classssd1306.html#aeb32316ce71950e7ab27838cf56be8c6" target="_top" xlink:title="Print a c&#45;string tho the display.">
<polygon fill="white" stroke="#666666" points="192,-19 114,-19 114,0 192,0 192,-19"/>
<text text-anchor="middle" x="153" y="-7" font-family="Helvetica,sans-Serif" font-size="10.00">ssd1306::print</text>
</a>
</g>
</g>
<!-- Node4&#45;&gt;Node5 -->
<g id="edge4" class="edge">
<title>Node4&#45;&gt;Node5</title>
<path fill="none" stroke="#63b8ff" d="M217.43,-9.5C208.72,-9.5 200.08,-9.5 192.12,-9.5"/>
<polygon fill="#63b8ff" stroke="#63b8ff" points="217.66,-13 227.66,-9.5 217.66,-6 217.66,-13"/>
</g>
<!-- Node6 -->
<g id="node6" class="node">
<title>Node6</title>
<g id="a_node6"><a xlink:href="classssd1306.html#a23f7f1cc9c309b2ddc5c691e4c47d590" target="_top" xlink:title="Print number to the display.">
<polygon fill="white" stroke="#666666" points="78,-19 0,-19 0,0 78,0 78,-19"/>
<text text-anchor="middle" x="39" y="-7" font-family="Helvetica,sans-Serif" font-size="10.00">ssd1306::print</text>
</a>
</g>
</g>
<!-- Node5&#45;&gt;Node6 -->
<g id="edge5" class="edge">
<title>Node5&#45;&gt;Node6</title>
<path fill="none" stroke="#63b8ff" d="M103.54,-9.5C95.01,-9.5 86.25,-9.5 78.06,-9.5"/>
<polygon fill="#63b8ff" stroke="#63b8ff" points="103.77,-13 113.77,-9.5 103.77,-6 103.77,-13"/>
</g>
</g>
</svg>
