<?xml version="1.0" encoding="UTF-8" standalone="no"?>
<!DOCTYPE svg PUBLIC "-//W3C//DTD SVG 1.1//EN"
 "http://www.w3.org/Graphics/SVG/1.1/DTD/svg11.dtd">
<!-- Generated by graphviz version 5.0.1 (20220820.1526)
 -->
<!-- Title: fogMachineEnable Pages: 1 -->
<svg width="460pt" height="64pt"
 viewBox="0.00 0.00 460.00 64.00" xmlns="http://www.w3.org/2000/svg" xmlns:xlink="http://www.w3.org/1999/xlink">
<g id="graph0" class="graph" transform="scale(1 1) rotate(0) translate(4 60)">
<title>fogMachineEnable</title>
<!-- Node1 -->
<g id="node1" class="node">
<title>Node1</title>
<g id="a_node1"><a xlink:title=" ">
<polygon fill="#999999" stroke="#666666" points="452,-38 356,-38 356,-19 452,-19 452,-38"/>
<text text-anchor="middle" x="404" y="-26" font-family="Helvetica,sans-Serif" font-size="10.00">fogMachineEnable</text>
</a>
</g>
</g>
<!-- Node2 -->
<g id="node2" class="node">
<title>Node2</title>
<g id="a_node2"><a xlink:href="fog_machine_8cpp.html#aeeeab6eddd5682f0cd25b20233cc354c" target="_top" xlink:title=" ">
<polygon fill="white" stroke="#666666" points="168,-56 71,-56 71,-37 168,-37 168,-56"/>
<text text-anchor="middle" x="119.5" y="-44" font-family="Helvetica,sans-Serif" font-size="10.00">fogMachineUpdate</text>
</a>
</g>
</g>
<!-- Node1&#45;&gt;Node2 -->
<g id="edge1" class="edge">
<title>Node1&#45;&gt;Node2</title>
<path fill="none" stroke="#63b8ff" d="M345.62,-32.16C293.46,-35.48 217.39,-40.33 168.41,-43.45"/>
<polygon fill="#63b8ff" stroke="#63b8ff" points="345.96,-35.64 355.72,-31.51 345.51,-28.66 345.96,-35.64"/>
</g>
<!-- Node4 -->
<g id="node4" class="node">
<title>Node4</title>
<g id="a_node4"><a xlink:href="light_control_8cpp.html#a02a6a9031fb951ca75c2b7e8c9d7c0f7" target="_top" xlink:title=" ">
<polygon fill="white" stroke="#666666" points="320,-19 204,-19 204,0 320,0 320,-19"/>
<text text-anchor="middle" x="262" y="-7" font-family="Helvetica,sans-Serif" font-size="10.00">lightModeMusicUpdate</text>
</a>
</g>
</g>
<!-- Node1&#45;&gt;Node4 -->
<g id="edge3" class="edge">
<title>Node1&#45;&gt;Node4</title>
<path fill="none" stroke="#63b8ff" d="M345.88,-20.75C337.45,-19.6 328.77,-18.43 320.33,-17.28"/>
<polygon fill="#63b8ff" stroke="#63b8ff" points="345.61,-24.24 355.99,-22.12 346.55,-17.31 345.61,-24.24"/>
</g>
<!-- Node3 -->
<g id="node3" class="node">
<title>Node3</title>
<g id="a_node3"><a xlink:href="main_8cpp.html#afe461d27b9c48d5921c00d521181f12f" target="_top" xlink:title=" ">
<polygon fill="white" stroke="#666666" points="35,-37 0,-37 0,-18 35,-18 35,-37"/>
<text text-anchor="middle" x="17.5" y="-25" font-family="Helvetica,sans-Serif" font-size="10.00">loop</text>
</a>
</g>
</g>
<!-- Node2&#45;&gt;Node3 -->
<g id="edge2" class="edge">
<title>Node2&#45;&gt;Node3</title>
<path fill="none" stroke="#63b8ff" d="M60.9,-35.56C51.43,-33.76 42.34,-32.03 35.01,-30.64"/>
<polygon fill="#63b8ff" stroke="#63b8ff" points="60.37,-39.02 70.84,-37.45 61.67,-32.14 60.37,-39.02"/>
</g>
<!-- Node5 -->
<g id="node5" class="node">
<title>Node5</title>
<g id="a_node5"><a xlink:href="light_control_8cpp.html#a47fe68420dcb96e582ea856ee8df8e78" target="_top" xlink:title=" ">
<polygon fill="white" stroke="#666666" points="152,-19 87,-19 87,0 152,0 152,-19"/>
<text text-anchor="middle" x="119.5" y="-7" font-family="Helvetica,sans-Serif" font-size="10.00">lightUpdate</text>
</a>
</g>
</g>
<!-- Node4&#45;&gt;Node5 -->
<g id="edge4" class="edge">
<title>Node4&#45;&gt;Node5</title>
<path fill="none" stroke="#63b8ff" d="M193.85,-9.5C179.31,-9.5 164.6,-9.5 152.21,-9.5"/>
<polygon fill="#63b8ff" stroke="#63b8ff" points="193.85,-13 203.85,-9.5 193.85,-6 193.85,-13"/>
</g>
<!-- Node5&#45;&gt;Node3 -->
<g id="edge5" class="edge">
<title>Node5&#45;&gt;Node3</title>
<path fill="none" stroke="#63b8ff" d="M76.91,-16.99C62.23,-19.63 46.54,-22.45 35.13,-24.51"/>
<polygon fill="#63b8ff" stroke="#63b8ff" points="77.64,-20.41 86.86,-15.2 76.4,-13.52 77.64,-20.41"/>
</g>
</g>
</svg>
