<?xml version="1.0" encoding="UTF-8" standalone="no"?>
<!DOCTYPE svg PUBLIC "-//W3C//DTD SVG 1.1//EN"
 "http://www.w3.org/Graphics/SVG/1.1/DTD/svg11.dtd">
<!-- Generated by graphviz version 5.0.1 (20220820.1526)
 -->
<!-- Title: lightOn Pages: 1 -->
<svg width="371pt" height="64pt"
 viewBox="0.00 0.00 371.00 64.00" xmlns="http://www.w3.org/2000/svg" xmlns:xlink="http://www.w3.org/1999/xlink">
<g id="graph0" class="graph" transform="scale(1 1) rotate(0) translate(4 60)">
<title>lightOn</title>
<!-- Node1 -->
<g id="node1" class="node">
<title>Node1</title>
<g id="a_node1"><a xlink:title=" ">
<polygon fill="#999999" stroke="#666666" points="363,-37 316,-37 316,-18 363,-18 363,-37"/>
<text text-anchor="middle" x="339.5" y="-25" font-family="Helvetica,sans-Serif" font-size="10.00">lightOn</text>
</a>
</g>
</g>
<!-- Node2 -->
<g id="node2" class="node">
<title>Node2</title>
<g id="a_node2"><a xlink:href="light_control_8cpp.html#a917dd43e7776a36541f1689c14266d8c" target="_top" xlink:title=" ">
<polygon fill="white" stroke="#666666" points="280,-37 217,-37 217,-18 280,-18 280,-37"/>
<text text-anchor="middle" x="248.5" y="-25" font-family="Helvetica,sans-Serif" font-size="10.00">lightToggle</text>
</a>
</g>
</g>
<!-- Node1&#45;&gt;Node2 -->
<g id="edge1" class="edge">
<title>Node1&#45;&gt;Node2</title>
<path fill="none" stroke="#63b8ff" d="M305.45,-27.5C297.13,-27.5 288.25,-27.5 280.06,-27.5"/>
<polygon fill="#63b8ff" stroke="#63b8ff" points="305.58,-31 315.58,-27.5 305.58,-24 305.58,-31"/>
</g>
<!-- Node3 -->
<g id="node3" class="node">
<title>Node3</title>
<g id="a_node3"><a xlink:href="main_8cpp.html#a098f004d14a561a6007a87e9a2959eb9" target="_top" xlink:title=" ">
<polygon fill="white" stroke="#666666" points="181,-56 71,-56 71,-37 181,-37 181,-56"/>
<text text-anchor="middle" x="126" y="-44" font-family="Helvetica,sans-Serif" font-size="10.00">encoderButtonUpdate</text>
</a>
</g>
</g>
<!-- Node2&#45;&gt;Node3 -->
<g id="edge2" class="edge">
<title>Node2&#45;&gt;Node3</title>
<path fill="none" stroke="#63b8ff" d="M206.7,-33.93C198.46,-35.23 189.69,-36.62 181.08,-37.97"/>
<polygon fill="#63b8ff" stroke="#63b8ff" points="207.45,-37.36 216.78,-32.34 206.36,-30.44 207.45,-37.36"/>
</g>
<!-- Node5 -->
<g id="node5" class="node">
<title>Node5</title>
<g id="a_node5"><a xlink:href="light_control_8cpp.html#a47fe68420dcb96e582ea856ee8df8e78" target="_top" xlink:title=" ">
<polygon fill="white" stroke="#666666" points="158.5,-19 93.5,-19 93.5,0 158.5,0 158.5,-19"/>
<text text-anchor="middle" x="126" y="-7" font-family="Helvetica,sans-Serif" font-size="10.00">lightUpdate</text>
</a>
</g>
</g>
<!-- Node2&#45;&gt;Node5 -->
<g id="edge4" class="edge">
<title>Node2&#45;&gt;Node5</title>
<path fill="none" stroke="#63b8ff" d="M206.77,-21.42C191.01,-19.06 173.25,-16.41 158.5,-14.21"/>
<polygon fill="#63b8ff" stroke="#63b8ff" points="206.37,-24.9 216.78,-22.91 207.41,-17.97 206.37,-24.9"/>
</g>
<!-- Node4 -->
<g id="node4" class="node">
<title>Node4</title>
<g id="a_node4"><a xlink:href="main_8cpp.html#afe461d27b9c48d5921c00d521181f12f" target="_top" xlink:title=" ">
<polygon fill="white" stroke="#666666" points="35,-37 0,-37 0,-18 35,-18 35,-37"/>
<text text-anchor="middle" x="17.5" y="-25" font-family="Helvetica,sans-Serif" font-size="10.00">loop</text>
</a>
</g>
</g>
<!-- Node3&#45;&gt;Node4 -->
<g id="edge3" class="edge">
<title>Node3&#45;&gt;Node4</title>
<path fill="none" stroke="#63b8ff" d="M61.55,-35.18C51.77,-33.44 42.46,-31.78 35.02,-30.45"/>
<polygon fill="#63b8ff" stroke="#63b8ff" points="60.98,-38.63 71.44,-36.94 62.21,-31.74 60.98,-38.63"/>
</g>
<!-- Node5&#45;&gt;Node4 -->
<g id="edge5" class="edge">
<title>Node5&#45;&gt;Node4</title>
<path fill="none" stroke="#63b8ff" d="M83.14,-16.58C66.33,-19.42 47.93,-22.53 35.08,-24.7"/>
<polygon fill="#63b8ff" stroke="#63b8ff" points="84.06,-19.97 93.33,-14.85 82.89,-13.07 84.06,-19.97"/>
</g>
</g>
</svg>
