<?xml version="1.0" encoding="UTF-8" standalone="no"?>
<!DOCTYPE svg PUBLIC "-//W3C//DTD SVG 1.1//EN"
 "http://www.w3.org/Graphics/SVG/1.1/DTD/svg11.dtd">
<!-- Generated by graphviz version 5.0.1 (20220820.1526)
 -->
<!-- Title: lightUpdate Pages: 1 -->
<svg width="367pt" height="323pt"
 viewBox="0.00 0.00 367.00 323.00" xmlns="http://www.w3.org/2000/svg" xmlns:xlink="http://www.w3.org/1999/xlink">
<g id="graph0" class="graph" transform="scale(1 1) rotate(0) translate(4 319)">
<title>lightUpdate</title>
<!-- Node1 -->
<g id="node1" class="node">
<title>Node1</title>
<g id="a_node1"><a xlink:title="Update function for the lighting.">
<polygon fill="#999999" stroke="#666666" points="65,-167 0,-167 0,-148 65,-148 65,-167"/>
<text text-anchor="middle" x="32.5" y="-155" font-family="Helvetica,sans-Serif" font-size="10.00">lightUpdate</text>
</a>
</g>
</g>
<!-- Node2 -->
<g id="node2" class="node">
<title>Node2</title>
<g id="a_node2"><a xlink:href="buzzer_control_8cpp.html#ad981474a88ca6153a65b8e133af409a8" target="_top" xlink:title="Generate clap melody.">
<polygon fill="white" stroke="#666666" points="197,-315 131,-315 131,-296 197,-296 197,-315"/>
<text text-anchor="middle" x="164" y="-303" font-family="Helvetica,sans-Serif" font-size="10.00">clapMelody</text>
</a>
</g>
</g>
<!-- Node1&#45;&gt;Node2 -->
<g id="edge1" class="edge">
<title>Node1&#45;&gt;Node2</title>
<path fill="none" stroke="#63b8ff" d="M35.76,-167.34C41.85,-191.58 60.9,-254.59 101,-287.5 106.78,-292.24 113.75,-295.73 120.91,-298.31"/>
<polygon fill="#63b8ff" stroke="#63b8ff" points="120.1,-301.72 130.68,-301.28 122.13,-295.02 120.1,-301.72"/>
</g>
<!-- Node3 -->
<g id="node3" class="node">
<title>Node3</title>
<g id="a_node3"><a xlink:href="light_control_8cpp.html#a936cbab2212d6c6efe113fcd4362d2af" target="_top" xlink:title="Update function for the candle mode.">
<polygon fill="white" stroke="#666666" points="223.5,-278 104.5,-278 104.5,-259 223.5,-259 223.5,-278"/>
<text text-anchor="middle" x="164" y="-266" font-family="Helvetica,sans-Serif" font-size="10.00">lightModeCandleUpdate</text>
</a>
</g>
</g>
<!-- Node1&#45;&gt;Node3 -->
<g id="edge2" class="edge">
<title>Node1&#45;&gt;Node3</title>
<path fill="none" stroke="#63b8ff" d="M37.75,-167.01C46.67,-185.88 69.17,-228.13 101,-250.5 103.13,-251.99 105.38,-253.37 107.71,-254.62"/>
<polygon fill="#63b8ff" stroke="#63b8ff" points="106.49,-257.92 117.04,-258.94 109.43,-251.57 106.49,-257.92"/>
</g>
<!-- Node4 -->
<g id="node4" class="node">
<title>Node4</title>
<g id="a_node4"><a xlink:href="light_control_8cpp.html#ac5e502533fb7bf671c8f22b73e935ad7" target="_top" xlink:title="Update function for the color mode.">
<polygon fill="white" stroke="#666666" points="220,-241 108,-241 108,-222 220,-222 220,-241"/>
<text text-anchor="middle" x="164" y="-229" font-family="Helvetica,sans-Serif" font-size="10.00">lightModeColorUpdate</text>
</a>
</g>
</g>
<!-- Node1&#45;&gt;Node4 -->
<g id="edge3" class="edge">
<title>Node1&#45;&gt;Node4</title>
<path fill="none" stroke="#63b8ff" d="M42.64,-167.24C54.82,-179.68 77.59,-201.09 101,-213.5 104.47,-215.34 108.14,-217.01 111.91,-218.53"/>
<polygon fill="#63b8ff" stroke="#63b8ff" points="110.79,-221.84 121.38,-221.98 113.19,-215.27 110.79,-221.84"/>
</g>
<!-- Node5 -->
<g id="node5" class="node">
<title>Node5</title>
<g id="a_node5"><a xlink:href="light_control_8cpp.html#a9144d48445bcbb1509593aeb5021750a" target="_top" xlink:title="Update function for the komodo mode.">
<polygon fill="white" stroke="#666666" points="226.5,-204 101.5,-204 101.5,-185 226.5,-185 226.5,-204"/>
<text text-anchor="middle" x="164" y="-192" font-family="Helvetica,sans-Serif" font-size="10.00">lightModeKomodoUpdate</text>
</a>
</g>
</g>
<!-- Node1&#45;&gt;Node5 -->
<g id="edge4" class="edge">
<title>Node1&#45;&gt;Node5</title>
<path fill="none" stroke="#63b8ff" d="M65.18,-166.55C81.61,-171.24 101.91,-177.05 119.76,-182.15"/>
<polygon fill="#63b8ff" stroke="#63b8ff" points="118.81,-185.51 129.38,-184.9 120.73,-178.78 118.81,-185.51"/>
</g>
<!-- Node6 -->
<g id="node6" class="node">
<title>Node6</title>
<g id="a_node6"><a xlink:href="light_control_8cpp.html#a02a6a9031fb951ca75c2b7e8c9d7c0f7" target="_top" xlink:title="Update function for the music mode.">
<polygon fill="white" stroke="#666666" points="222,-167 106,-167 106,-148 222,-148 222,-167"/>
<text text-anchor="middle" x="164" y="-155" font-family="Helvetica,sans-Serif" font-size="10.00">lightModeMusicUpdate</text>
</a>
</g>
</g>
<!-- Node1&#45;&gt;Node6 -->
<g id="edge5" class="edge">
<title>Node1&#45;&gt;Node6</title>
<path fill="none" stroke="#63b8ff" d="M65.18,-157.5C74.49,-157.5 85.04,-157.5 95.68,-157.5"/>
<polygon fill="#63b8ff" stroke="#63b8ff" points="95.88,-161 105.88,-157.5 95.88,-154 95.88,-161"/>
</g>
<!-- Node8 -->
<g id="node8" class="node">
<title>Node8</title>
<g id="a_node8"><a xlink:href="light_control_8cpp.html#a9580f8c1dc2cf814e26e3e73b870d89e" target="_top" xlink:title="Update function for the pulse mode.">
<polygon fill="white" stroke="#666666" points="221,-130 107,-130 107,-111 221,-111 221,-130"/>
<text text-anchor="middle" x="164" y="-118" font-family="Helvetica,sans-Serif" font-size="10.00">lightModePulseUpdate</text>
</a>
</g>
</g>
<!-- Node1&#45;&gt;Node8 -->
<g id="edge7" class="edge">
<title>Node1&#45;&gt;Node8</title>
<path fill="none" stroke="#63b8ff" d="M65.18,-148.45C81.61,-143.76 101.91,-137.95 119.76,-132.85"/>
<polygon fill="#63b8ff" stroke="#63b8ff" points="120.73,-136.22 129.38,-130.1 118.81,-129.49 120.73,-136.22"/>
</g>
<!-- Node9 -->
<g id="node9" class="node">
<title>Node9</title>
<g id="a_node9"><a xlink:href="light_control_8cpp.html#adb7e99a733ea745af705e33fc11c2dbf" target="_top" xlink:title="Update function for the rainbow mode.">
<polygon fill="white" stroke="#666666" points="227,-93 101,-93 101,-74 227,-74 227,-93"/>
<text text-anchor="middle" x="164" y="-81" font-family="Helvetica,sans-Serif" font-size="10.00">lightModeRainbowUpdate</text>
</a>
</g>
</g>
<!-- Node1&#45;&gt;Node9 -->
<g id="edge8" class="edge">
<title>Node1&#45;&gt;Node9</title>
<path fill="none" stroke="#63b8ff" d="M43.13,-147.58C55.48,-135.37 78.07,-114.75 101,-102.5 105.19,-100.26 109.68,-98.25 114.25,-96.44"/>
<polygon fill="#63b8ff" stroke="#63b8ff" points="115.49,-99.72 123.71,-93.03 113.11,-93.13 115.49,-99.72"/>
</g>
<!-- Node10 -->
<g id="node10" class="node">
<title>Node10</title>
<g id="a_node10"><a xlink:href="light_control_8cpp.html#a917dd43e7776a36541f1689c14266d8c" target="_top" xlink:title="Toggle the lighting.">
<polygon fill="white" stroke="#666666" points="195.5,-56 132.5,-56 132.5,-37 195.5,-37 195.5,-56"/>
<text text-anchor="middle" x="164" y="-44" font-family="Helvetica,sans-Serif" font-size="10.00">lightToggle</text>
</a>
</g>
</g>
<!-- Node1&#45;&gt;Node10 -->
<g id="edge9" class="edge">
<title>Node1&#45;&gt;Node10</title>
<path fill="none" stroke="#63b8ff" d="M37.95,-147.84C47.06,-129.11 69.67,-87.75 101,-65.5 107.45,-60.92 115.04,-57.42 122.65,-54.75"/>
<polygon fill="#63b8ff" stroke="#63b8ff" points="123.69,-58.09 132.22,-51.81 121.63,-51.4 123.69,-58.09"/>
</g>
<!-- Node13 -->
<g id="node13" class="node">
<title>Node13</title>
<g id="a_node13"><a xlink:href="classmusic_channel.html#a15ae593419dfa3a15077ce490d75de3e" target="_top" xlink:title=" ">
<polygon fill="white" stroke="#666666" points="220.5,-19 107.5,-19 107.5,0 220.5,0 220.5,-19"/>
<text text-anchor="middle" x="164" y="-7" font-family="Helvetica,sans-Serif" font-size="10.00">musicChannel::update</text>
</a>
</g>
</g>
<!-- Node1&#45;&gt;Node13 -->
<g id="edge12" class="edge">
<title>Node1&#45;&gt;Node13</title>
<path fill="none" stroke="#63b8ff" d="M35.76,-147.66C41.85,-123.42 60.9,-60.41 101,-27.5 102.56,-26.22 104.21,-25.03 105.92,-23.93"/>
<polygon fill="#63b8ff" stroke="#63b8ff" points="107.8,-26.89 114.96,-19.08 104.49,-20.72 107.8,-26.89"/>
</g>
<!-- Node7 -->
<g id="node7" class="node">
<title>Node7</title>
<g id="a_node7"><a xlink:href="fog_machine_8cpp.html#a7faf79e9d5df9f5a6772fa03154749e4" target="_top" xlink:title="Enable the humidifier.">
<polygon fill="white" stroke="#666666" points="359,-167 263,-167 263,-148 359,-148 359,-167"/>
<text text-anchor="middle" x="311" y="-155" font-family="Helvetica,sans-Serif" font-size="10.00">fogMachineEnable</text>
</a>
</g>
</g>
<!-- Node6&#45;&gt;Node7 -->
<g id="edge6" class="edge">
<title>Node6&#45;&gt;Node7</title>
<path fill="none" stroke="#63b8ff" d="M222.31,-157.5C232.3,-157.5 242.69,-157.5 252.67,-157.5"/>
<polygon fill="#63b8ff" stroke="#63b8ff" points="252.9,-161 262.9,-157.5 252.9,-154 252.9,-161"/>
</g>
<!-- Node11 -->
<g id="node11" class="node">
<title>Node11</title>
<g id="a_node11"><a xlink:href="light_control_8cpp.html#ac63baab438299bd5074897396b600c00" target="_top" xlink:title="Turn off the lighting.">
<polygon fill="white" stroke="#666666" points="334.5,-75 287.5,-75 287.5,-56 334.5,-56 334.5,-75"/>
<text text-anchor="middle" x="311" y="-63" font-family="Helvetica,sans-Serif" font-size="10.00">lightOff</text>
</a>
</g>
</g>
<!-- Node10&#45;&gt;Node11 -->
<g id="edge10" class="edge">
<title>Node10&#45;&gt;Node11</title>
<path fill="none" stroke="#63b8ff" d="M195.75,-50.53C219.65,-53.66 252.73,-58 277.14,-61.19"/>
<polygon fill="#63b8ff" stroke="#63b8ff" points="276.98,-64.7 287.35,-62.53 277.89,-57.76 276.98,-64.7"/>
</g>
<!-- Node12 -->
<g id="node12" class="node">
<title>Node12</title>
<g id="a_node12"><a xlink:href="light_control_8cpp.html#a4dc2c28dc568051bd85575dfd2082c54" target="_top" xlink:title="Turn on the lighting.">
<polygon fill="white" stroke="#666666" points="334.5,-38 287.5,-38 287.5,-19 334.5,-19 334.5,-38"/>
<text text-anchor="middle" x="311" y="-26" font-family="Helvetica,sans-Serif" font-size="10.00">lightOn</text>
</a>
</g>
</g>
<!-- Node10&#45;&gt;Node12 -->
<g id="edge11" class="edge">
<title>Node10&#45;&gt;Node12</title>
<path fill="none" stroke="#63b8ff" d="M195.75,-42.68C219.65,-39.72 252.73,-35.61 277.14,-32.58"/>
<polygon fill="#63b8ff" stroke="#63b8ff" points="277.86,-36.02 287.35,-31.31 277,-29.07 277.86,-36.02"/>
</g>
</g>
</svg>
