<?xml version="1.0" encoding="UTF-8" standalone="no"?>
<!DOCTYPE svg PUBLIC "-//W3C//DTD SVG 1.1//EN"
 "http://www.w3.org/Graphics/SVG/1.1/DTD/svg11.dtd">
<!-- Generated by graphviz version 5.0.1 (20220820.1526)
 -->
<!-- Title: lightToggle Pages: 1 -->
<svg width="154pt" height="64pt"
 viewBox="0.00 0.00 154.00 64.00" xmlns="http://www.w3.org/2000/svg" xmlns:xlink="http://www.w3.org/1999/xlink">
<g id="graph0" class="graph" transform="scale(1 1) rotate(0) translate(4 60)">
<title>lightToggle</title>
<!-- Node1 -->
<g id="node1" class="node">
<title>Node1</title>
<g id="a_node1"><a xlink:title=" ">
<polygon fill="#999999" stroke="#666666" points="63,-37 0,-37 0,-18 63,-18 63,-37"/>
<text text-anchor="middle" x="31.5" y="-25" font-family="Helvetica,sans-Serif" font-size="10.00">lightToggle</text>
</a>
</g>
</g>
<!-- Node2 -->
<g id="node2" class="node">
<title>Node2</title>
<g id="a_node2"><a xlink:href="light_control_8cpp.html#ac63baab438299bd5074897396b600c00" target="_top" xlink:title=" ">
<polygon fill="white" stroke="#666666" points="146,-56 99,-56 99,-37 146,-37 146,-56"/>
<text text-anchor="middle" x="122.5" y="-44" font-family="Helvetica,sans-Serif" font-size="10.00">lightOff</text>
</a>
</g>
</g>
<!-- Node1&#45;&gt;Node2 -->
<g id="edge1" class="edge">
<title>Node1&#45;&gt;Node2</title>
<path fill="none" stroke="#63b8ff" d="M63.13,-34.04C71.49,-35.82 80.59,-37.77 89.05,-39.57"/>
<polygon fill="#63b8ff" stroke="#63b8ff" points="88.46,-43.02 98.97,-41.69 89.92,-36.18 88.46,-43.02"/>
</g>
<!-- Node3 -->
<g id="node3" class="node">
<title>Node3</title>
<g id="a_node3"><a xlink:href="light_control_8cpp.html#a4dc2c28dc568051bd85575dfd2082c54" target="_top" xlink:title=" ">
<polygon fill="white" stroke="#666666" points="146,-19 99,-19 99,0 146,0 146,-19"/>
<text text-anchor="middle" x="122.5" y="-7" font-family="Helvetica,sans-Serif" font-size="10.00">lightOn</text>
</a>
</g>
</g>
<!-- Node1&#45;&gt;Node3 -->
<g id="edge2" class="edge">
<title>Node1&#45;&gt;Node3</title>
<path fill="none" stroke="#63b8ff" d="M63.13,-21.31C71.49,-19.61 80.59,-17.77 89.05,-16.06"/>
<polygon fill="#63b8ff" stroke="#63b8ff" points="89.86,-19.47 98.97,-14.06 88.47,-12.61 89.86,-19.47"/>
</g>
</g>
</svg>
