<?xml version="1.0" encoding="UTF-8" standalone="no"?>
<!DOCTYPE svg PUBLIC "-//W3C//DTD SVG 1.1//EN"
 "http://www.w3.org/Graphics/SVG/1.1/DTD/svg11.dtd">
<!-- Generated by graphviz version 5.0.1 (20220820.1526)
 -->
<!-- Title: setup Pages: 1 -->
<svg width="528pt" height="873pt"
 viewBox="0.00 0.00 528.00 872.89" xmlns="http://www.w3.org/2000/svg" xmlns:xlink="http://www.w3.org/1999/xlink">
<g id="graph0" class="graph" transform="scale(1 1) rotate(0) translate(4 868.89)">
<title>setup</title>
<!-- Node1 -->
<g id="node1" class="node">
<title>Node1</title>
<g id="a_node1"><a xlink:title=" ">
<polygon fill="#999999" stroke="#666666" points="41,-446.89 0,-446.89 0,-427.89 41,-427.89 41,-446.89"/>
<text text-anchor="middle" x="20.5" y="-434.89" font-family="Helvetica,sans-Serif" font-size="10.00">setup</text>
</a>
</g>
</g>
<!-- Node2 -->
<g id="node2" class="node">
<title>Node2</title>
<g id="a_node2"><a xlink:href="classssd1306.html#a5f79efa39d47eebc8a0e17cc2a30e4fb" target="_top" xlink:title=" ">
<polygon fill="white" stroke="#666666" points="173,-826.89 90,-826.89 90,-807.89 173,-807.89 173,-826.89"/>
<text text-anchor="middle" x="131.5" y="-814.89" font-family="Helvetica,sans-Serif" font-size="10.00">ssd1306::begin</text>
</a>
</g>
</g>
<!-- Node1&#45;&gt;Node2 -->
<g id="edge1" class="edge">
<title>Node1&#45;&gt;Node2</title>
<path fill="none" stroke="#63b8ff" d="M22.44,-447.26C26.13,-483.77 41.21,-614.24 77,-715.39 87.89,-746.17 106.65,-779.18 118.82,-799.05"/>
<polygon fill="#63b8ff" stroke="#63b8ff" points="115.93,-801.05 124.19,-807.69 121.88,-797.35 115.93,-801.05"/>
</g>
<!-- Node5 -->
<g id="node5" class="node">
<title>Node5</title>
<g id="a_node5"><a xlink:href="main_8cpp.html#ae2676edb74235f0d21ef201ba600636a" target="_top" xlink:title=" ">
<polygon fill="white" stroke="#666666" points="165,-705.89 98,-705.89 98,-686.89 165,-686.89 165,-705.89"/>
<text text-anchor="middle" x="131.5" y="-693.89" font-family="Helvetica,sans-Serif" font-size="10.00">encoderISR</text>
</a>
</g>
</g>
<!-- Node1&#45;&gt;Node5 -->
<g id="edge4" class="edge">
<title>Node1&#45;&gt;Node5</title>
<path fill="none" stroke="#63b8ff" d="M25.51,-446.91C41.5,-484.91 100.9,-626.06 122.55,-677.49"/>
<polygon fill="#63b8ff" stroke="#63b8ff" points="119.35,-678.92 126.45,-686.78 125.8,-676.2 119.35,-678.92"/>
</g>
<!-- Node9 -->
<g id="node9" class="node">
<title>Node9</title>
<g id="a_node9"><a xlink:href="fog_machine_8cpp.html#a9c7fca1e7e26243088ff945475d8ae57" target="_top" xlink:title=" ">
<polygon fill="white" stroke="#666666" points="171,-505.89 92,-505.89 92,-486.89 171,-486.89 171,-505.89"/>
<text text-anchor="middle" x="131.5" y="-493.89" font-family="Helvetica,sans-Serif" font-size="10.00">fogMachineInit</text>
</a>
</g>
</g>
<!-- Node1&#45;&gt;Node9 -->
<g id="edge10" class="edge">
<title>Node1&#45;&gt;Node9</title>
<path fill="none" stroke="#63b8ff" d="M32.29,-446.97C43.01,-456.07 60.21,-469.64 77,-478.39 80.28,-480.1 83.75,-481.69 87.29,-483.17"/>
<polygon fill="#63b8ff" stroke="#63b8ff" points="86.14,-486.48 96.73,-486.81 88.66,-479.95 86.14,-486.48"/>
</g>
<!-- Node10 -->
<g id="node10" class="node">
<title>Node10</title>
<g id="a_node10"><a xlink:href="light_control_8cpp.html#a37bc85e65dd8a10e2bc2c2df2c1ca05f" target="_top" xlink:title=" ">
<polygon fill="white" stroke="#666666" points="155,-468.89 108,-468.89 108,-449.89 155,-449.89 155,-468.89"/>
<text text-anchor="middle" x="131.5" y="-456.89" font-family="Helvetica,sans-Serif" font-size="10.00">lightInit</text>
</a>
</g>
</g>
<!-- Node1&#45;&gt;Node10 -->
<g id="edge11" class="edge">
<title>Node1&#45;&gt;Node10</title>
<path fill="none" stroke="#63b8ff" d="M41.24,-441.37C57.01,-444.55 79.43,-449.08 97.86,-452.8"/>
<polygon fill="#63b8ff" stroke="#63b8ff" points="97.4,-456.28 107.9,-454.83 98.79,-449.42 97.4,-456.28"/>
</g>
<!-- Node11 -->
<g id="node11" class="node">
<title>Node11</title>
<g id="a_node11"><a xlink:href="classconfiguration_manager.html#a629bdf8057c5fd994baf023dbb36d87c" target="_top" xlink:title=" ">
<polygon fill="white" stroke="#666666" points="186,-431.39 77,-431.39 77,-401.39 186,-401.39 186,-431.39"/>
<text text-anchor="start" x="85" y="-419.39" font-family="Helvetica,sans-Serif" font-size="10.00">configurationManager</text>
<text text-anchor="middle" x="131.5" y="-408.39" font-family="Helvetica,sans-Serif" font-size="10.00">::loadConfig</text>
</a>
</g>
</g>
<!-- Node1&#45;&gt;Node11 -->
<g id="edge12" class="edge">
<title>Node1&#45;&gt;Node11</title>
<path fill="none" stroke="#63b8ff" d="M41.24,-433.59C48.63,-432.16 57.48,-430.46 66.7,-428.68"/>
<polygon fill="#63b8ff" stroke="#63b8ff" points="67.63,-432.07 76.79,-426.74 66.31,-425.19 67.63,-432.07"/>
</g>
<!-- Node12 -->
<g id="node12" class="node">
<title>Node12</title>
<g id="a_node12"><a xlink:href="menu_8cpp.html#a7f54e3748544f98b538cfbc35d963bb8" target="_top" xlink:title=" ">
<polygon fill="white" stroke="#666666" points="158,-382.89 105,-382.89 105,-363.89 158,-363.89 158,-382.89"/>
<text text-anchor="middle" x="131.5" y="-370.89" font-family="Helvetica,sans-Serif" font-size="10.00">menuInit</text>
</a>
</g>
</g>
<!-- Node1&#45;&gt;Node12 -->
<g id="edge13" class="edge">
<title>Node1&#45;&gt;Node12</title>
<path fill="none" stroke="#63b8ff" d="M31.36,-427.62C41.9,-417.63 59.47,-402.22 77,-392.39 82.7,-389.19 89.03,-386.38 95.29,-383.96"/>
<polygon fill="#63b8ff" stroke="#63b8ff" points="96.73,-387.16 104.96,-380.49 94.37,-380.57 96.73,-387.16"/>
</g>
<!-- Node28 -->
<g id="node28" class="node">
<title>Node28</title>
<g id="a_node28"><a xlink:href="motor_control_8cpp.html#a978983329d511d8ab27545d8badfbd89" target="_top" xlink:title=" ">
<polygon fill="white" stroke="#666666" points="158.5,-85.89 104.5,-85.89 104.5,-66.89 158.5,-66.89 158.5,-85.89"/>
<text text-anchor="middle" x="131.5" y="-73.89" font-family="Helvetica,sans-Serif" font-size="10.00">motorInit</text>
</a>
</g>
</g>
<!-- Node1&#45;&gt;Node28 -->
<g id="edge29" class="edge">
<title>Node1&#45;&gt;Node28</title>
<path fill="none" stroke="#63b8ff" d="M24.42,-427.73C39.04,-379.29 104.51,-162.46 124.61,-95.89"/>
<polygon fill="#63b8ff" stroke="#63b8ff" points="128.09,-96.49 127.63,-85.91 121.38,-94.47 128.09,-96.49"/>
</g>
<!-- Node31 -->
<g id="node31" class="node">
<title>Node31</title>
<g id="a_node31"><a xlink:href="classconfiguration_manager.html#a98840390e246bd6606af1345d54458ec" target="_top" xlink:title=" ">
<polygon fill="white" stroke="#666666" points="186,-48.39 77,-48.39 77,-18.39 186,-18.39 186,-48.39"/>
<text text-anchor="start" x="85" y="-36.39" font-family="Helvetica,sans-Serif" font-size="10.00">configurationManager</text>
<text text-anchor="middle" x="131.5" y="-25.39" font-family="Helvetica,sans-Serif" font-size="10.00">::saveConfig</text>
</a>
</g>
</g>
<!-- Node1&#45;&gt;Node31 -->
<g id="edge35" class="edge">
<title>Node1&#45;&gt;Node31</title>
<path fill="none" stroke="#63b8ff" d="M21.69,-427.63C22.88,-374.31 30.98,-118.3 77,-57.39 77.56,-56.64 78.16,-55.92 78.77,-55.22"/>
<polygon fill="#63b8ff" stroke="#63b8ff" points="81.14,-57.79 86.25,-48.51 76.47,-52.58 81.14,-57.79"/>
</g>
<!-- Node3 -->
<g id="node3" class="node">
<title>Node3</title>
<g id="a_node3"><a xlink:href="classssd1306.html#ac35fc8ed03a40242a1762ef4139746f5" target="_top" xlink:title=" ">
<polygon fill="white" stroke="#666666" points="341.5,-864.89 261.5,-864.89 261.5,-845.89 341.5,-845.89 341.5,-864.89"/>
<text text-anchor="middle" x="301.5" y="-852.89" font-family="Helvetica,sans-Serif" font-size="10.00">ssd1306::clear</text>
</a>
</g>
</g>
<!-- Node2&#45;&gt;Node3 -->
<g id="edge2" class="edge">
<title>Node2&#45;&gt;Node3</title>
<path fill="none" stroke="#63b8ff" d="M173.17,-826.59C196.72,-831.92 226.54,-838.66 251.4,-844.28"/>
<polygon fill="#63b8ff" stroke="#63b8ff" points="250.84,-847.74 261.36,-846.54 252.38,-840.92 250.84,-847.74"/>
</g>
<!-- Node4 -->
<g id="node4" class="node">
<title>Node4</title>
<g id="a_node4"><a xlink:href="classssd1306.html#a8ef7011e9d60ce7307650365e48e285d" target="_top" xlink:title=" ">
<polygon fill="white" stroke="#666666" points="520,-85.89 417,-85.89 417,-66.89 520,-66.89 520,-85.89"/>
<text text-anchor="middle" x="468.5" y="-73.89" font-family="Helvetica,sans-Serif" font-size="10.00">ssd1306::displayOn</text>
</a>
</g>
</g>
<!-- Node2&#45;&gt;Node4 -->
<g id="edge3" class="edge">
<title>Node2&#45;&gt;Node4</title>
<path fill="none" stroke="#63b8ff" d="M173.08,-820.23C235.83,-823.68 352.18,-826 381,-798.39 433.33,-748.26 461.38,-207.17 466.6,-96.21"/>
<polygon fill="#63b8ff" stroke="#63b8ff" points="470.1,-96.23 467.07,-86.08 463.11,-95.91 470.1,-96.23"/>
</g>
<!-- Node6 -->
<g id="node6" class="node">
<title>Node6</title>
<g id="a_node6"><a xlink:href="classmenu.html#aa570579eea43a7810230472ee28b873a" target="_top" xlink:title=" ">
<polygon fill="white" stroke="#666666" points="336,-770.89 267,-770.89 267,-751.89 336,-751.89 336,-770.89"/>
<text text-anchor="middle" x="301.5" y="-758.89" font-family="Helvetica,sans-Serif" font-size="10.00">menu::down</text>
</a>
</g>
</g>
<!-- Node5&#45;&gt;Node6 -->
<g id="edge5" class="edge">
<title>Node5&#45;&gt;Node6</title>
<path fill="none" stroke="#63b8ff" d="M147.78,-705.98C165.16,-716.52 194.68,-733.28 222,-743.39 233.05,-747.48 245.34,-750.83 256.85,-753.48"/>
<polygon fill="#63b8ff" stroke="#63b8ff" points="256.2,-756.92 266.71,-755.63 257.69,-750.08 256.2,-756.92"/>
</g>
<!-- Node7 -->
<g id="node7" class="node">
<title>Node7</title>
<g id="a_node7"><a xlink:href="buzzer_control_8cpp.html#a0d69ac845e7ec3529999488f019097af" target="_top" xlink:title=" ">
<polygon fill="white" stroke="#666666" points="355,-733.89 248,-733.89 248,-714.89 355,-714.89 355,-733.89"/>
<text text-anchor="middle" x="301.5" y="-721.89" font-family="Helvetica,sans-Serif" font-size="10.00">encoderRotateSound</text>
</a>
</g>
</g>
<!-- Node5&#45;&gt;Node7 -->
<g id="edge7" class="edge">
<title>Node5&#45;&gt;Node7</title>
<path fill="none" stroke="#63b8ff" d="M165.29,-701.85C185.94,-705.29 213.26,-709.85 237.93,-713.96"/>
<polygon fill="#63b8ff" stroke="#63b8ff" points="237.52,-717.44 247.96,-715.63 238.67,-710.54 237.52,-717.44"/>
</g>
<!-- Node8 -->
<g id="node8" class="node">
<title>Node8</title>
<g id="a_node8"><a xlink:href="classmenu.html#a87a6a695240e84646f5f92a6f764b7e9" target="_top" xlink:title=" ">
<polygon fill="white" stroke="#666666" points="330,-678.89 273,-678.89 273,-659.89 330,-659.89 330,-678.89"/>
<text text-anchor="middle" x="301.5" y="-666.89" font-family="Helvetica,sans-Serif" font-size="10.00">menu::up</text>
</a>
</g>
</g>
<!-- Node5&#45;&gt;Node8 -->
<g id="edge8" class="edge">
<title>Node5&#45;&gt;Node8</title>
<path fill="none" stroke="#63b8ff" d="M165.29,-691.12C193.19,-686.64 233.26,-680.19 262.54,-675.49"/>
<polygon fill="#63b8ff" stroke="#63b8ff" points="263.48,-678.88 272.8,-673.84 262.37,-671.97 263.48,-678.88"/>
</g>
<!-- Node6&#45;&gt;Node6 -->
<g id="edge6" class="edge">
<title>Node6&#45;&gt;Node6</title>
<path fill="none" stroke="#63b8ff" d="M275.91,-770.97C263.47,-779.62 272,-788.89 301.5,-788.89 320.86,-788.89 331.19,-784.9 332.49,-779.71"/>
<polygon fill="#63b8ff" stroke="#63b8ff" points="335.32,-777.64 327.09,-770.97 329.37,-781.32 335.32,-777.64"/>
</g>
<!-- Node8&#45;&gt;Node8 -->
<g id="edge9" class="edge">
<title>Node8&#45;&gt;Node8</title>
<path fill="none" stroke="#63b8ff" d="M275.91,-678.97C263.47,-687.62 272,-696.89 301.5,-696.89 320.86,-696.89 331.19,-692.9 332.49,-687.71"/>
<polygon fill="#63b8ff" stroke="#63b8ff" points="335.32,-685.64 327.09,-678.97 329.37,-689.32 335.32,-685.64"/>
</g>
<!-- Node13 -->
<g id="node13" class="node">
<title>Node13</title>
<g id="a_node13"><a xlink:href="menu_8cpp.html#a05c76b51924f5f8f4ef70cae6d07eb90" target="_top" xlink:title=" ">
<polygon fill="white" stroke="#666666" points="376,-641.89 227,-641.89 227,-622.89 376,-622.89 376,-641.89"/>
<text text-anchor="middle" x="301.5" y="-629.89" font-family="Helvetica,sans-Serif" font-size="10.00">brightnessSelectDrawFunction</text>
</a>
</g>
</g>
<!-- Node12&#45;&gt;Node13 -->
<g id="edge14" class="edge">
<title>Node12&#45;&gt;Node13</title>
<path fill="none" stroke="#63b8ff" d="M158.08,-376.75C168.2,-379.38 179.06,-384.06 186,-392.39 250.02,-469.15 153.64,-541.46 222,-614.39 222.79,-615.23 223.61,-616.04 224.46,-616.81"/>
<polygon fill="#63b8ff" stroke="#63b8ff" points="222.62,-619.8 232.76,-622.87 226.75,-614.15 222.62,-619.8"/>
</g>
<!-- Node14 -->
<g id="node14" class="node">
<title>Node14</title>
<g id="a_node14"><a xlink:href="menu_8cpp.html#a2b016118a0e096dd41f9217dc9cff74b" target="_top" xlink:title=" ">
<polygon fill="white" stroke="#666666" points="365,-604.89 238,-604.89 238,-585.89 365,-585.89 365,-604.89"/>
<text text-anchor="middle" x="301.5" y="-592.89" font-family="Helvetica,sans-Serif" font-size="10.00">brightnessSelectFunction</text>
</a>
</g>
</g>
<!-- Node12&#45;&gt;Node14 -->
<g id="edge15" class="edge">
<title>Node12&#45;&gt;Node14</title>
<path fill="none" stroke="#63b8ff" d="M158.23,-376.93C168.25,-379.59 178.99,-384.25 186,-392.39 240.66,-455.86 163.76,-517.18 222,-577.39 224.1,-579.56 226.4,-581.49 228.85,-583.2"/>
<polygon fill="#63b8ff" stroke="#63b8ff" points="227.3,-586.35 237.72,-588.26 230.76,-580.26 227.3,-586.35"/>
</g>
<!-- Node15 -->
<g id="node15" class="node">
<title>Node15</title>
<g id="a_node15"><a xlink:href="menu_8cpp.html#a7b11962e0299f94228c9156915a69ee5" target="_top" xlink:title=" ">
<polygon fill="white" stroke="#666666" points="374.5,-567.89 228.5,-567.89 228.5,-548.89 374.5,-548.89 374.5,-567.89"/>
<text text-anchor="middle" x="301.5" y="-555.89" font-family="Helvetica,sans-Serif" font-size="10.00">buzzerMenuSelectedFunction</text>
</a>
</g>
</g>
<!-- Node12&#45;&gt;Node15 -->
<g id="edge16" class="edge">
<title>Node12&#45;&gt;Node15</title>
<path fill="none" stroke="#63b8ff" d="M158.04,-377.1C168.04,-379.78 178.8,-384.41 186,-392.39 231.35,-442.65 173.82,-492.84 222,-540.39 222.95,-541.33 223.94,-542.22 224.97,-543.07"/>
<polygon fill="#63b8ff" stroke="#63b8ff" points="223.18,-546.09 233.42,-548.79 227.1,-540.29 223.18,-546.09"/>
</g>
<!-- Node16 -->
<g id="node16" class="node">
<title>Node16</title>
<g id="a_node16"><a xlink:href="menu_8cpp.html#a6c110f4f0e90ee77f942f14ee7ffb81b" target="_top" xlink:title=" ">
<polygon fill="white" stroke="#666666" points="368.5,-530.89 234.5,-530.89 234.5,-511.89 368.5,-511.89 368.5,-530.89"/>
<text text-anchor="middle" x="301.5" y="-518.89" font-family="Helvetica,sans-Serif" font-size="10.00">candleMenuSelectFunction</text>
</a>
</g>
</g>
<!-- Node12&#45;&gt;Node16 -->
<g id="edge17" class="edge">
<title>Node12&#45;&gt;Node16</title>
<path fill="none" stroke="#63b8ff" d="M158.03,-377.45C167.9,-380.18 178.58,-384.76 186,-392.39 222.16,-429.56 183.75,-468.37 222,-503.39 223.16,-504.45 224.37,-505.45 225.62,-506.4"/>
<polygon fill="#63b8ff" stroke="#63b8ff" points="224.11,-509.58 234.45,-511.89 227.8,-503.64 224.11,-509.58"/>
</g>
<!-- Node17 -->
<g id="node17" class="node">
<title>Node17</title>
<g id="a_node17"><a xlink:href="menu_8cpp.html#a3c3d956aca28de46741cd6e5db5ffaee" target="_top" xlink:title=" ">
<polygon fill="white" stroke="#666666" points="368.5,-493.89 234.5,-493.89 234.5,-474.89 368.5,-474.89 368.5,-493.89"/>
<text text-anchor="middle" x="301.5" y="-481.89" font-family="Helvetica,sans-Serif" font-size="10.00">clapMenuSelectedFunction</text>
</a>
</g>
</g>
<!-- Node12&#45;&gt;Node17 -->
<g id="edge18" class="edge">
<title>Node12&#45;&gt;Node17</title>
<path fill="none" stroke="#63b8ff" d="M158.06,-378.14C167.7,-380.97 178.21,-385.42 186,-392.39 213.26,-416.77 193.37,-443.63 222,-466.39 223.6,-467.66 225.27,-468.85 227.01,-469.95"/>
<polygon fill="#63b8ff" stroke="#63b8ff" points="225.64,-473.19 236.11,-474.83 228.95,-467.02 225.64,-473.19"/>
</g>
<!-- Node18 -->
<g id="node18" class="node">
<title>Node18</title>
<g id="a_node18"><a xlink:href="menu_8cpp.html#ac022544e45c7f043d12d0951547249a1" target="_top" xlink:title=" ">
<polygon fill="white" stroke="#666666" points="365,-456.89 238,-456.89 238,-437.89 365,-437.89 365,-456.89"/>
<text text-anchor="middle" x="301.5" y="-444.89" font-family="Helvetica,sans-Serif" font-size="10.00">colorMenuSelectFunction</text>
</a>
</g>
</g>
<!-- Node12&#45;&gt;Node18 -->
<g id="edge19" class="edge">
<title>Node12&#45;&gt;Node18</title>
<path fill="none" stroke="#63b8ff" d="M158.1,-379.85C167.32,-382.84 177.54,-386.96 186,-392.39 205.31,-404.77 202,-418.14 222,-429.39 225.24,-431.21 228.65,-432.85 232.16,-434.32"/>
<polygon fill="#63b8ff" stroke="#63b8ff" points="231.06,-437.64 241.65,-437.84 233.49,-431.08 231.06,-437.64"/>
</g>
<!-- Node19 -->
<g id="node19" class="node">
<title>Node19</title>
<g id="a_node19"><a xlink:href="menu_8cpp.html#aa6c25806baf4bb6f997ffd124d95d7a9" target="_top" xlink:title=" ">
<polygon fill="white" stroke="#666666" points="364,-419.89 239,-419.89 239,-400.89 364,-400.89 364,-419.89"/>
<text text-anchor="middle" x="301.5" y="-407.89" font-family="Helvetica,sans-Serif" font-size="10.00">colorSelectDrawFunction</text>
</a>
</g>
</g>
<!-- Node12&#45;&gt;Node19 -->
<g id="edge20" class="edge">
<title>Node12&#45;&gt;Node19</title>
<path fill="none" stroke="#63b8ff" d="M158.02,-379.01C181.6,-384.2 217.4,-392.09 247.21,-398.65"/>
<polygon fill="#63b8ff" stroke="#63b8ff" points="246.55,-402.09 257.07,-400.82 248.06,-395.25 246.55,-402.09"/>
</g>
<!-- Node20 -->
<g id="node20" class="node">
<title>Node20</title>
<g id="a_node20"><a xlink:href="menu_8cpp.html#a43e28b685319d16ec59e9d329fa5877e" target="_top" xlink:title=" ">
<polygon fill="white" stroke="#666666" points="353,-382.89 250,-382.89 250,-363.89 353,-363.89 353,-382.89"/>
<text text-anchor="middle" x="301.5" y="-370.89" font-family="Helvetica,sans-Serif" font-size="10.00">colorSelectFunction</text>
</a>
</g>
</g>
<!-- Node12&#45;&gt;Node20 -->
<g id="edge21" class="edge">
<title>Node12&#45;&gt;Node20</title>
<path fill="none" stroke="#63b8ff" d="M158.02,-373.39C179.68,-373.39 211.65,-373.39 239.82,-373.39"/>
<polygon fill="#63b8ff" stroke="#63b8ff" points="240,-376.89 250,-373.39 240,-369.89 240,-376.89"/>
</g>
<!-- Node21 -->
<g id="node21" class="node">
<title>Node21</title>
<g id="a_node21"><a xlink:href="menu_8cpp.html#a77a90a3a2ffabdf0a5b3a4a3cf00a9f0" target="_top" xlink:title=" ">
<polygon fill="white" stroke="#666666" points="381,-345.89 222,-345.89 222,-326.89 381,-326.89 381,-345.89"/>
<text text-anchor="middle" x="301.5" y="-333.89" font-family="Helvetica,sans-Serif" font-size="10.00">fogEnableMenuSelectedFunction</text>
</a>
</g>
</g>
<!-- Node12&#45;&gt;Node21 -->
<g id="edge22" class="edge">
<title>Node12&#45;&gt;Node21</title>
<path fill="none" stroke="#63b8ff" d="M158.02,-367.77C181.6,-362.57 217.4,-354.69 247.21,-348.12"/>
<polygon fill="#63b8ff" stroke="#63b8ff" points="248.06,-351.52 257.07,-345.95 246.55,-344.69 248.06,-351.52"/>
</g>
<!-- Node22 -->
<g id="node22" class="node">
<title>Node22</title>
<g id="a_node22"><a xlink:href="menu_8cpp.html#a88d2dece762e3b85d4aa7b2182ce26e9" target="_top" xlink:title=" ">
<polygon fill="white" stroke="#666666" points="371.5,-308.89 231.5,-308.89 231.5,-289.89 371.5,-289.89 371.5,-308.89"/>
<text text-anchor="middle" x="301.5" y="-296.89" font-family="Helvetica,sans-Serif" font-size="10.00">fogTimerSelectDrawFunction</text>
</a>
</g>
</g>
<!-- Node12&#45;&gt;Node22 -->
<g id="edge23" class="edge">
<title>Node12&#45;&gt;Node22</title>
<path fill="none" stroke="#63b8ff" d="M145.15,-363.83C161.88,-351.61 192.7,-330.58 222,-318.39 227.95,-315.91 234.29,-313.72 240.69,-311.78"/>
<polygon fill="#63b8ff" stroke="#63b8ff" points="242.08,-315.02 250.75,-308.93 240.18,-308.28 242.08,-315.02"/>
</g>
<!-- Node23 -->
<g id="node23" class="node">
<title>Node23</title>
<g id="a_node23"><a xlink:href="menu_8cpp.html#a9e1e416e4818382df8d39d0125d210f5" target="_top" xlink:title=" ">
<polygon fill="white" stroke="#666666" points="361,-271.89 242,-271.89 242,-252.89 361,-252.89 361,-271.89"/>
<text text-anchor="middle" x="301.5" y="-259.89" font-family="Helvetica,sans-Serif" font-size="10.00">fogTimerSelectFunction</text>
</a>
</g>
</g>
<!-- Node12&#45;&gt;Node23 -->
<g id="edge24" class="edge">
<title>Node12&#45;&gt;Node23</title>
<path fill="none" stroke="#63b8ff" d="M138.89,-363.87C152.08,-345.03 184.25,-302.92 222,-281.39 225.94,-279.14 230.14,-277.16 234.48,-275.41"/>
<polygon fill="#63b8ff" stroke="#63b8ff" points="235.89,-278.62 244.12,-271.94 233.52,-272.03 235.89,-278.62"/>
</g>
<!-- Node24 -->
<g id="node24" class="node">
<title>Node24</title>
<g id="a_node24"><a xlink:href="menu_8cpp.html#a1970379f59b8760eecae1c62b524dc48" target="_top" xlink:title=" ">
<polygon fill="white" stroke="#666666" points="371.5,-234.89 231.5,-234.89 231.5,-215.89 371.5,-215.89 371.5,-234.89"/>
<text text-anchor="middle" x="301.5" y="-222.89" font-family="Helvetica,sans-Serif" font-size="10.00">komodoMenuSelectFunction</text>
</a>
</g>
</g>
<!-- Node12&#45;&gt;Node24 -->
<g id="edge25" class="edge">
<title>Node12&#45;&gt;Node24</title>
<path fill="none" stroke="#63b8ff" d="M136.25,-363.83C146.24,-339.7 175.91,-275.98 222,-244.39 224.92,-242.39 228.03,-240.59 231.26,-238.99"/>
<polygon fill="#63b8ff" stroke="#63b8ff" points="232.84,-242.12 240.64,-234.95 230.07,-235.69 232.84,-242.12"/>
</g>
<!-- Node25 -->
<g id="node25" class="node">
<title>Node25</title>
<g id="a_node25"><a xlink:href="menu_8cpp.html#af63afc520dcef97967678aa6dbc973b9" target="_top" xlink:title=" ">
<polygon fill="white" stroke="#666666" points="367.5,-197.89 235.5,-197.89 235.5,-178.89 367.5,-178.89 367.5,-197.89"/>
<text text-anchor="middle" x="301.5" y="-185.89" font-family="Helvetica,sans-Serif" font-size="10.00">musicMenuSelectFunction</text>
</a>
</g>
</g>
<!-- Node12&#45;&gt;Node25 -->
<g id="edge26" class="edge">
<title>Node12&#45;&gt;Node25</title>
<path fill="none" stroke="#63b8ff" d="M134.75,-363.71C141.97,-334.99 167.29,-249.58 222,-207.39 224.34,-205.58 226.83,-203.94 229.43,-202.46"/>
<polygon fill="#63b8ff" stroke="#63b8ff" points="231.16,-205.51 238.61,-197.98 228.09,-199.22 231.16,-205.51"/>
</g>
<!-- Node26 -->
<g id="node26" class="node">
<title>Node26</title>
<g id="a_node26"><a xlink:href="menu_8cpp.html#a910a5811ac94710f8ddf95ba54708324" target="_top" xlink:title=" ">
<polygon fill="white" stroke="#666666" points="366,-160.89 237,-160.89 237,-141.89 366,-141.89 366,-160.89"/>
<text text-anchor="middle" x="301.5" y="-148.89" font-family="Helvetica,sans-Serif" font-size="10.00">pulseMenuSelectFunction</text>
</a>
</g>
</g>
<!-- Node12&#45;&gt;Node26 -->
<g id="edge27" class="edge">
<title>Node12&#45;&gt;Node26</title>
<path fill="none" stroke="#63b8ff" d="M133.76,-363.52C138.53,-330.59 158.48,-223.51 222,-170.39 224.02,-168.7 226.17,-167.15 228.42,-165.74"/>
<polygon fill="#63b8ff" stroke="#63b8ff" points="230.31,-168.7 237.51,-160.93 227.03,-162.51 230.31,-168.7"/>
</g>
<!-- Node27 -->
<g id="node27" class="node">
<title>Node27</title>
<g id="a_node27"><a xlink:href="menu_8cpp.html#ae0e8c5d7972d85144e7f0121104c75a1" target="_top" xlink:title=" ">
<polygon fill="white" stroke="#666666" points="371,-123.89 232,-123.89 232,-104.89 371,-104.89 371,-123.89"/>
<text text-anchor="middle" x="301.5" y="-111.89" font-family="Helvetica,sans-Serif" font-size="10.00">rainbowMenuSelectFunction</text>
</a>
</g>
</g>
<!-- Node12&#45;&gt;Node27 -->
<g id="edge28" class="edge">
<title>Node12&#45;&gt;Node27</title>
<path fill="none" stroke="#63b8ff" d="M133,-363.85C135.44,-327.71 149.15,-198.02 222,-133.39 223.75,-131.84 225.6,-130.41 227.54,-129.09"/>
<polygon fill="#63b8ff" stroke="#63b8ff" points="229.53,-131.99 236.5,-124.01 226.07,-125.9 229.53,-131.99"/>
</g>
<!-- Node28&#45;&gt;Node4 -->
<g id="edge34" class="edge">
<title>Node28&#45;&gt;Node4</title>
<path fill="none" stroke="#63b8ff" d="M158.51,-76.39C211.44,-76.39 332.91,-76.39 406.81,-76.39"/>
<polygon fill="#63b8ff" stroke="#63b8ff" points="406.91,-79.89 416.91,-76.39 406.91,-72.89 406.91,-79.89"/>
</g>
<!-- Node29 -->
<g id="node29" class="node">
<title>Node29</title>
<g id="a_node29"><a xlink:href="motor_control_8cpp.html#a3edea24b195ca992810885fdec367a5b" target="_top" xlink:title=" ">
<polygon fill="white" stroke="#666666" points="332.5,-47.89 270.5,-47.89 270.5,-28.89 332.5,-28.89 332.5,-47.89"/>
<text text-anchor="middle" x="301.5" y="-35.89" font-family="Helvetica,sans-Serif" font-size="10.00">closeFront</text>
</a>
</g>
</g>
<!-- Node28&#45;&gt;Node29 -->
<g id="edge30" class="edge">
<title>Node28&#45;&gt;Node29</title>
<path fill="none" stroke="#63b8ff" d="M158.75,-70.45C186.06,-64.27 229.17,-54.52 260.68,-47.4"/>
<polygon fill="#63b8ff" stroke="#63b8ff" points="261.48,-50.8 270.46,-45.18 259.94,-43.97 261.48,-50.8"/>
</g>
<!-- Node30 -->
<g id="node30" class="node">
<title>Node30</title>
<g id="a_node30"><a xlink:href="classssd1306.html#a5062186eb98a5bb66a009d232b143172" target="_top" xlink:title=" ">
<polygon fill="white" stroke="#666666" points="519.5,-28.89 417.5,-28.89 417.5,-9.89 519.5,-9.89 519.5,-28.89"/>
<text text-anchor="middle" x="468.5" y="-16.89" font-family="Helvetica,sans-Serif" font-size="10.00">ssd1306::displayOff</text>
</a>
</g>
</g>
<!-- Node28&#45;&gt;Node30 -->
<g id="edge33" class="edge">
<title>Node28&#45;&gt;Node30</title>
<path fill="none" stroke="#63b8ff" d="M158.68,-69.81C167.77,-66.84 177.74,-62.76 186,-57.39 205.5,-44.7 200.63,-28.58 222,-19.39 284.77,7.61 365.2,0.79 416.55,-8.07"/>
<polygon fill="#63b8ff" stroke="#63b8ff" points="415.96,-11.52 426.42,-9.86 417.21,-4.63 415.96,-11.52"/>
</g>
<!-- Node29&#45;&gt;Node4 -->
<g id="edge32" class="edge">
<title>Node29&#45;&gt;Node4</title>
<path fill="none" stroke="#63b8ff" d="M332.76,-45.36C356.13,-50.74 388.99,-58.31 416.41,-64.62"/>
<polygon fill="#63b8ff" stroke="#63b8ff" points="415.71,-68.05 426.24,-66.89 417.28,-61.23 415.71,-68.05"/>
</g>
<!-- Node29&#45;&gt;Node30 -->
<g id="edge31" class="edge">
<title>Node29&#45;&gt;Node30</title>
<path fill="none" stroke="#63b8ff" d="M332.76,-34.9C353.53,-32.51 381.81,-29.26 407.09,-26.34"/>
<polygon fill="#63b8ff" stroke="#63b8ff" points="407.81,-29.79 417.34,-25.16 407.01,-22.83 407.81,-29.79"/>
</g>
</g>
</svg>
