<?xml version="1.0" encoding="UTF-8" standalone="no"?>
<!DOCTYPE svg PUBLIC "-//W3C//DTD SVG 1.1//EN"
 "http://www.w3.org/Graphics/SVG/1.1/DTD/svg11.dtd">
<!-- Generated by graphviz version 5.0.1 (20220820.1526)
 -->
<!-- Title: loop Pages: 1 -->
<svg width="490pt" height="748pt"
 viewBox="0.00 0.00 490.00 748.16" xmlns="http://www.w3.org/2000/svg" xmlns:xlink="http://www.w3.org/1999/xlink">
<g id="graph0" class="graph" transform="scale(1 1) rotate(0) translate(4 744.16)">
<title>loop</title>
<!-- Node1 -->
<g id="node1" class="node">
<title>Node1</title>
<g id="a_node1"><a xlink:title=" ">
<polygon fill="#999999" stroke="#666666" points="35,-340.16 0,-340.16 0,-321.16 35,-321.16 35,-340.16"/>
<text text-anchor="middle" x="17.5" y="-328.16" font-family="Helvetica,sans-Serif" font-size="10.00">loop</text>
</a>
</g>
</g>
<!-- Node2 -->
<g id="node2" class="node">
<title>Node2</title>
<g id="a_node2"><a xlink:href="classmenu.html#a6fcf97a34d06d1889ae8cf52e5060d06" target="_top" xlink:title=" ">
<polygon fill="white" stroke="#666666" points="159.5,-667.16 92.5,-667.16 92.5,-648.16 159.5,-648.16 159.5,-667.16"/>
<text text-anchor="middle" x="126" y="-655.16" font-family="Helvetica,sans-Serif" font-size="10.00">menu::draw</text>
</a>
</g>
</g>
<!-- Node1&#45;&gt;Node2 -->
<g id="edge1" class="edge">
<title>Node1&#45;&gt;Node2</title>
<path fill="none" stroke="#63b8ff" d="M21.69,-340.44C36.48,-385.86 98.55,-576.45 118.67,-638.23"/>
<polygon fill="#63b8ff" stroke="#63b8ff" points="115.4,-639.48 121.83,-647.91 122.06,-637.32 115.4,-639.48"/>
</g>
<!-- Node5 -->
<g id="node5" class="node">
<title>Node5</title>
<g id="a_node5"><a xlink:href="main_8cpp.html#a098f004d14a561a6007a87e9a2959eb9" target="_top" xlink:title=" ">
<polygon fill="white" stroke="#666666" points="181,-452.16 71,-452.16 71,-433.16 181,-433.16 181,-452.16"/>
<text text-anchor="middle" x="126" y="-440.16" font-family="Helvetica,sans-Serif" font-size="10.00">encoderButtonUpdate</text>
</a>
</g>
</g>
<!-- Node1&#45;&gt;Node5 -->
<g id="edge6" class="edge">
<title>Node1&#45;&gt;Node5</title>
<path fill="none" stroke="#63b8ff" d="M27.58,-340.21C45.66,-359.22 86.35,-402.01 109.01,-425.84"/>
<polygon fill="#63b8ff" stroke="#63b8ff" points="106.52,-428.3 115.94,-433.13 111.59,-423.47 106.52,-428.3"/>
</g>
<!-- Node18 -->
<g id="node18" class="node">
<title>Node18</title>
<g id="a_node18"><a xlink:href="fog_machine_8cpp.html#aeeeab6eddd5682f0cd25b20233cc354c" target="_top" xlink:title=" ">
<polygon fill="white" stroke="#666666" points="174.5,-100.16 77.5,-100.16 77.5,-81.16 174.5,-81.16 174.5,-100.16"/>
<text text-anchor="middle" x="126" y="-88.16" font-family="Helvetica,sans-Serif" font-size="10.00">fogMachineUpdate</text>
</a>
</g>
</g>
<!-- Node1&#45;&gt;Node18 -->
<g id="edge21" class="edge">
<title>Node1&#45;&gt;Node18</title>
<path fill="none" stroke="#63b8ff" d="M21.24,-321.13C28.21,-297.37 47.73,-233.8 71,-183.66 83.52,-156.69 101.36,-127.29 113.05,-108.91"/>
<polygon fill="#63b8ff" stroke="#63b8ff" points="116.08,-110.68 118.55,-100.38 110.19,-106.89 116.08,-110.68"/>
</g>
<!-- Node20 -->
<g id="node20" class="node">
<title>Node20</title>
<g id="a_node20"><a xlink:href="light_control_8cpp.html#a47fe68420dcb96e582ea856ee8df8e78" target="_top" xlink:title=" ">
<polygon fill="white" stroke="#666666" points="158.5,-211.16 93.5,-211.16 93.5,-192.16 158.5,-192.16 158.5,-211.16"/>
<text text-anchor="middle" x="126" y="-199.16" font-family="Helvetica,sans-Serif" font-size="10.00">lightUpdate</text>
</a>
</g>
</g>
<!-- Node1&#45;&gt;Node20 -->
<g id="edge23" class="edge">
<title>Node1&#45;&gt;Node20</title>
<path fill="none" stroke="#63b8ff" d="M26.5,-320.96C44.31,-299.39 87.44,-247.15 110.26,-219.51"/>
<polygon fill="#63b8ff" stroke="#63b8ff" points="113.23,-221.41 116.9,-211.47 107.84,-216.95 113.23,-221.41"/>
</g>
<!-- Node3 -->
<g id="node3" class="node">
<title>Node3</title>
<g id="a_node3"><a xlink:href="classmenu.html#aa570579eea43a7810230472ee28b873a" target="_top" xlink:title=" ">
<polygon fill="white" stroke="#666666" points="314.5,-667.16 245.5,-667.16 245.5,-648.16 314.5,-648.16 314.5,-667.16"/>
<text text-anchor="middle" x="280" y="-655.16" font-family="Helvetica,sans-Serif" font-size="10.00">menu::down</text>
</a>
</g>
</g>
<!-- Node2&#45;&gt;Node3 -->
<g id="edge2" class="edge">
<title>Node2&#45;&gt;Node3</title>
<path fill="none" stroke="#63b8ff" d="M159.61,-657.66C181.64,-657.66 211,-657.66 235.09,-657.66"/>
<polygon fill="#63b8ff" stroke="#63b8ff" points="235.39,-661.16 245.39,-657.66 235.39,-654.16 235.39,-661.16"/>
</g>
<!-- Node4 -->
<g id="node4" class="node">
<title>Node4</title>
<g id="a_node4"><a xlink:href="classmenu.html#a87a6a695240e84646f5f92a6f764b7e9" target="_top" xlink:title=" ">
<polygon fill="white" stroke="#666666" points="308.5,-722.16 251.5,-722.16 251.5,-703.16 308.5,-703.16 308.5,-722.16"/>
<text text-anchor="middle" x="280" y="-710.16" font-family="Helvetica,sans-Serif" font-size="10.00">menu::up</text>
</a>
</g>
</g>
<!-- Node2&#45;&gt;Node4 -->
<g id="edge4" class="edge">
<title>Node2&#45;&gt;Node4</title>
<path fill="none" stroke="#63b8ff" d="M148.57,-667.29C166.65,-675.18 193.24,-686.35 217,-694.66 224.9,-697.42 233.46,-700.1 241.63,-702.51"/>
<polygon fill="#63b8ff" stroke="#63b8ff" points="240.75,-705.9 251.33,-705.31 242.69,-699.18 240.75,-705.9"/>
</g>
<!-- Node3&#45;&gt;Node3 -->
<g id="edge3" class="edge">
<title>Node3&#45;&gt;Node3</title>
<path fill="none" stroke="#63b8ff" d="M256.88,-667.24C245.63,-675.89 253.34,-685.16 280,-685.16 297.5,-685.16 306.83,-681.17 308,-675.98"/>
<polygon fill="#63b8ff" stroke="#63b8ff" points="311.05,-674.26 303.12,-667.24 304.94,-677.68 311.05,-674.26"/>
</g>
<!-- Node4&#45;&gt;Node4 -->
<g id="edge5" class="edge">
<title>Node4&#45;&gt;Node4</title>
<path fill="none" stroke="#63b8ff" d="M256.88,-722.24C245.63,-730.89 253.34,-740.16 280,-740.16 297.5,-740.16 306.83,-736.17 308,-730.98"/>
<polygon fill="#63b8ff" stroke="#63b8ff" points="311.05,-729.26 303.12,-722.24 304.94,-732.68 311.05,-729.26"/>
</g>
<!-- Node6 -->
<g id="node6" class="node">
<title>Node6</title>
<g id="a_node6"><a xlink:href="buzzer_control_8cpp.html#a5864c94f53494adcbc834a0ba15395a4" target="_top" xlink:title=" ">
<polygon fill="white" stroke="#666666" points="326.5,-415.16 233.5,-415.16 233.5,-396.16 326.5,-396.16 326.5,-415.16"/>
<text text-anchor="middle" x="280" y="-403.16" font-family="Helvetica,sans-Serif" font-size="10.00">buttonClickSound</text>
</a>
</g>
</g>
<!-- Node5&#45;&gt;Node6 -->
<g id="edge7" class="edge">
<title>Node5&#45;&gt;Node6</title>
<path fill="none" stroke="#63b8ff" d="M166.14,-433.13C185.57,-428.4 209.24,-422.64 229.87,-417.62"/>
<polygon fill="#63b8ff" stroke="#63b8ff" points="230.84,-420.98 239.72,-415.22 229.18,-414.18 230.84,-420.98"/>
</g>
<!-- Node7 -->
<g id="node7" class="node">
<title>Node7</title>
<g id="a_node7"><a xlink:href="motor_control_8cpp.html#a3edea24b195ca992810885fdec367a5b" target="_top" xlink:title=" ">
<polygon fill="white" stroke="#666666" points="311,-378.16 249,-378.16 249,-359.16 311,-359.16 311,-378.16"/>
<text text-anchor="middle" x="280" y="-366.16" font-family="Helvetica,sans-Serif" font-size="10.00">closeFront</text>
</a>
</g>
</g>
<!-- Node5&#45;&gt;Node7 -->
<g id="edge8" class="edge">
<title>Node5&#45;&gt;Node7</title>
<path fill="none" stroke="#63b8ff" d="M140.43,-432.95C157.52,-420.97 188.28,-400.58 217,-387.66 224,-384.51 231.66,-381.69 239.14,-379.25"/>
<polygon fill="#63b8ff" stroke="#63b8ff" points="240.28,-382.56 248.8,-376.26 238.21,-375.87 240.28,-382.56"/>
</g>
<!-- Node10 -->
<g id="node10" class="node">
<title>Node10</title>
<g id="a_node10"><a xlink:href="light_control_8cpp.html#a917dd43e7776a36541f1689c14266d8c" target="_top" xlink:title=" ">
<polygon fill="white" stroke="#666666" points="311.5,-341.16 248.5,-341.16 248.5,-322.16 311.5,-322.16 311.5,-341.16"/>
<text text-anchor="middle" x="280" y="-329.16" font-family="Helvetica,sans-Serif" font-size="10.00">lightToggle</text>
</a>
</g>
</g>
<!-- Node5&#45;&gt;Node10 -->
<g id="edge11" class="edge">
<title>Node5&#45;&gt;Node10</title>
<path fill="none" stroke="#63b8ff" d="M133.76,-433.05C147.38,-414.41 179.97,-373.2 217,-350.66 223.62,-346.63 231.16,-343.39 238.65,-340.81"/>
<polygon fill="#63b8ff" stroke="#63b8ff" points="239.87,-344.1 248.39,-337.79 237.8,-337.41 239.87,-344.1"/>
</g>
<!-- Node13 -->
<g id="node13" class="node">
<title>Node13</title>
<g id="a_node13"><a xlink:href="classmenu.html#aa90b85d7aa5ddfa761e7cb8f9e83da93" target="_top" xlink:title=" ">
<polygon fill="white" stroke="#666666" points="312.5,-612.16 247.5,-612.16 247.5,-593.16 312.5,-593.16 312.5,-612.16"/>
<text text-anchor="middle" x="280" y="-600.16" font-family="Helvetica,sans-Serif" font-size="10.00">menu::next</text>
</a>
</g>
</g>
<!-- Node5&#45;&gt;Node13 -->
<g id="edge14" class="edge">
<title>Node5&#45;&gt;Node13</title>
<path fill="none" stroke="#63b8ff" d="M130.32,-452.28C139.66,-477.92 168.69,-548.37 217,-584.66 223.04,-589.19 230.19,-592.59 237.46,-595.13"/>
<polygon fill="#63b8ff" stroke="#63b8ff" points="236.75,-598.57 247.34,-598.09 238.76,-591.87 236.75,-598.57"/>
</g>
<!-- Node14 -->
<g id="node14" class="node">
<title>Node14</title>
<g id="a_node14"><a xlink:href="buzzer_control_8cpp.html#a7e4caa5e23b84269cfee1710ff391d81" target="_top" xlink:title=" ">
<polygon fill="white" stroke="#666666" points="327,-575.16 233,-575.16 233,-556.16 327,-556.16 327,-575.16"/>
<text text-anchor="middle" x="280" y="-563.16" font-family="Helvetica,sans-Serif" font-size="10.00">openCloseMelody</text>
</a>
</g>
</g>
<!-- Node5&#45;&gt;Node14 -->
<g id="edge16" class="edge">
<title>Node5&#45;&gt;Node14</title>
<path fill="none" stroke="#63b8ff" d="M132.61,-452.42C145.05,-473.18 177.04,-521.91 217,-547.66 219.47,-549.25 222.09,-550.71 224.8,-552.04"/>
<polygon fill="#63b8ff" stroke="#63b8ff" points="223.69,-555.37 234.26,-556.09 226.45,-548.94 223.69,-555.37"/>
</g>
<!-- Node15 -->
<g id="node15" class="node">
<title>Node15</title>
<g id="a_node15"><a xlink:href="motor_control_8cpp.html#aa6b9b6a60feed520f3227ec9a50c5e86" target="_top" xlink:title=" ">
<polygon fill="white" stroke="#666666" points="310,-538.16 250,-538.16 250,-519.16 310,-519.16 310,-538.16"/>
<text text-anchor="middle" x="280" y="-526.16" font-family="Helvetica,sans-Serif" font-size="10.00">openFront</text>
</a>
</g>
</g>
<!-- Node5&#45;&gt;Node15 -->
<g id="edge17" class="edge">
<title>Node5&#45;&gt;Node15</title>
<path fill="none" stroke="#63b8ff" d="M137.28,-452.2C153.23,-466.54 185.37,-493.64 217,-509.66 224.2,-513.3 232.24,-516.4 240.07,-518.96"/>
<polygon fill="#63b8ff" stroke="#63b8ff" points="239.22,-522.36 249.81,-521.93 241.26,-515.67 239.22,-522.36"/>
</g>
<!-- Node16 -->
<g id="node16" class="node">
<title>Node16</title>
<g id="a_node16"><a xlink:href="classconfiguration_manager.html#a98840390e246bd6606af1345d54458ec" target="_top" xlink:title=" ">
<polygon fill="white" stroke="#666666" points="334.5,-500.66 225.5,-500.66 225.5,-470.66 334.5,-470.66 334.5,-500.66"/>
<text text-anchor="start" x="233.5" y="-488.66" font-family="Helvetica,sans-Serif" font-size="10.00">configurationManager</text>
<text text-anchor="middle" x="280" y="-477.66" font-family="Helvetica,sans-Serif" font-size="10.00">::saveConfig</text>
</a>
</g>
</g>
<!-- Node5&#45;&gt;Node16 -->
<g id="edge19" class="edge">
<title>Node5&#45;&gt;Node16</title>
<path fill="none" stroke="#63b8ff" d="M160.73,-452.2C177.04,-456.81 197.16,-462.51 216.15,-467.88"/>
<polygon fill="#63b8ff" stroke="#63b8ff" points="215.38,-471.3 225.95,-470.65 217.28,-464.56 215.38,-471.3"/>
</g>
<!-- Node17 -->
<g id="node17" class="node">
<title>Node17</title>
<g id="a_node17"><a xlink:href="buzzer_control_8cpp.html#a510029b29e503662590cc7e69a41b744" target="_top" xlink:title=" ">
<polygon fill="white" stroke="#666666" points="318.5,-452.16 241.5,-452.16 241.5,-433.16 318.5,-433.16 318.5,-452.16"/>
<text text-anchor="middle" x="280" y="-440.16" font-family="Helvetica,sans-Serif" font-size="10.00">turnOnMelody</text>
</a>
</g>
</g>
<!-- Node5&#45;&gt;Node17 -->
<g id="edge20" class="edge">
<title>Node5&#45;&gt;Node17</title>
<path fill="none" stroke="#63b8ff" d="M181.02,-442.66C197.4,-442.66 215.27,-442.66 231.21,-442.66"/>
<polygon fill="#63b8ff" stroke="#63b8ff" points="231.37,-446.16 241.37,-442.66 231.37,-439.16 231.37,-446.16"/>
</g>
<!-- Node8 -->
<g id="node8" class="node">
<title>Node8</title>
<g id="a_node8"><a xlink:href="classssd1306.html#a5062186eb98a5bb66a009d232b143172" target="_top" xlink:title=" ">
<polygon fill="white" stroke="#666666" points="481.5,-378.16 379.5,-378.16 379.5,-359.16 481.5,-359.16 481.5,-378.16"/>
<text text-anchor="middle" x="430.5" y="-366.16" font-family="Helvetica,sans-Serif" font-size="10.00">ssd1306::displayOff</text>
</a>
</g>
</g>
<!-- Node7&#45;&gt;Node8 -->
<g id="edge9" class="edge">
<title>Node7&#45;&gt;Node8</title>
<path fill="none" stroke="#63b8ff" d="M311.05,-368.66C327.8,-368.66 349.26,-368.66 369.31,-368.66"/>
<polygon fill="#63b8ff" stroke="#63b8ff" points="369.32,-372.16 379.32,-368.66 369.32,-365.16 369.32,-372.16"/>
</g>
<!-- Node9 -->
<g id="node9" class="node">
<title>Node9</title>
<g id="a_node9"><a xlink:href="classssd1306.html#a8ef7011e9d60ce7307650365e48e285d" target="_top" xlink:title=" ">
<polygon fill="white" stroke="#666666" points="482,-476.16 379,-476.16 379,-457.16 482,-457.16 482,-476.16"/>
<text text-anchor="middle" x="430.5" y="-464.16" font-family="Helvetica,sans-Serif" font-size="10.00">ssd1306::displayOn</text>
</a>
</g>
</g>
<!-- Node7&#45;&gt;Node9 -->
<g id="edge10" class="edge">
<title>Node7&#45;&gt;Node9</title>
<path fill="none" stroke="#63b8ff" d="M311.12,-375.01C321.62,-377.96 333.22,-382.08 343,-387.66 371.54,-403.95 398.51,-431.14 414.52,-448.99"/>
<polygon fill="#63b8ff" stroke="#63b8ff" points="412.24,-451.69 421.46,-456.91 417.5,-447.08 412.24,-451.69"/>
</g>
<!-- Node11 -->
<g id="node11" class="node">
<title>Node11</title>
<g id="a_node11"><a xlink:href="light_control_8cpp.html#ac63baab438299bd5074897396b600c00" target="_top" xlink:title=" ">
<polygon fill="white" stroke="#666666" points="454,-304.16 407,-304.16 407,-285.16 454,-285.16 454,-304.16"/>
<text text-anchor="middle" x="430.5" y="-292.16" font-family="Helvetica,sans-Serif" font-size="10.00">lightOff</text>
</a>
</g>
</g>
<!-- Node10&#45;&gt;Node11 -->
<g id="edge12" class="edge">
<title>Node10&#45;&gt;Node11</title>
<path fill="none" stroke="#63b8ff" d="M311.77,-323.99C336.71,-317.78 371.75,-309.05 397.11,-302.73"/>
<polygon fill="#63b8ff" stroke="#63b8ff" points="398.14,-306.08 406.99,-300.26 396.44,-299.29 398.14,-306.08"/>
</g>
<!-- Node12 -->
<g id="node12" class="node">
<title>Node12</title>
<g id="a_node12"><a xlink:href="light_control_8cpp.html#a4dc2c28dc568051bd85575dfd2082c54" target="_top" xlink:title=" ">
<polygon fill="white" stroke="#666666" points="454,-341.16 407,-341.16 407,-322.16 454,-322.16 454,-341.16"/>
<text text-anchor="middle" x="430.5" y="-329.16" font-family="Helvetica,sans-Serif" font-size="10.00">lightOn</text>
</a>
</g>
</g>
<!-- Node10&#45;&gt;Node12 -->
<g id="edge13" class="edge">
<title>Node10&#45;&gt;Node12</title>
<path fill="none" stroke="#63b8ff" d="M311.77,-331.66C336.6,-331.66 371.44,-331.66 396.77,-331.66"/>
<polygon fill="#63b8ff" stroke="#63b8ff" points="396.99,-335.16 406.99,-331.66 396.99,-328.16 396.99,-335.16"/>
</g>
<!-- Node13&#45;&gt;Node13 -->
<g id="edge15" class="edge">
<title>Node13&#45;&gt;Node13</title>
<path fill="none" stroke="#63b8ff" d="M256.88,-612.24C245.63,-620.89 253.34,-630.16 280,-630.16 297.5,-630.16 306.83,-626.17 308,-620.98"/>
<polygon fill="#63b8ff" stroke="#63b8ff" points="311.05,-619.26 303.12,-612.24 304.94,-622.68 311.05,-619.26"/>
</g>
<!-- Node15&#45;&gt;Node9 -->
<g id="edge18" class="edge">
<title>Node15&#45;&gt;Node9</title>
<path fill="none" stroke="#63b8ff" d="M310.05,-520.83C320.56,-517.71 332.44,-513.87 343,-509.66 363.71,-501.4 386.23,-490.13 403.1,-481.19"/>
<polygon fill="#63b8ff" stroke="#63b8ff" points="405.17,-484.06 412.32,-476.25 401.86,-477.89 405.17,-484.06"/>
</g>
<!-- Node19 -->
<g id="node19" class="node">
<title>Node19</title>
<g id="a_node19"><a xlink:href="fog_machine_8cpp.html#a7faf79e9d5df9f5a6772fa03154749e4" target="_top" xlink:title=" ">
<polygon fill="white" stroke="#666666" points="478.5,-137.16 382.5,-137.16 382.5,-118.16 478.5,-118.16 478.5,-137.16"/>
<text text-anchor="middle" x="430.5" y="-125.16" font-family="Helvetica,sans-Serif" font-size="10.00">fogMachineEnable</text>
</a>
</g>
</g>
<!-- Node18&#45;&gt;Node19 -->
<g id="edge22" class="edge">
<title>Node18&#45;&gt;Node19</title>
<path fill="none" stroke="#63b8ff" d="M134.65,-81.02C148.77,-64.1 180.82,-29.62 217,-16.66 269.72,2.23 292.68,7.92 343,-16.66 382.34,-35.87 408.99,-82.58 421.44,-108.87"/>
<polygon fill="#63b8ff" stroke="#63b8ff" points="418.33,-110.49 425.64,-118.15 424.7,-107.6 418.33,-110.49"/>
</g>
<!-- Node20&#45;&gt;Node10 -->
<g id="edge32" class="edge">
<title>Node20&#45;&gt;Node10</title>
<path fill="none" stroke="#63b8ff" d="M132.08,-211.42C143.91,-233.19 175.5,-285.97 217,-313.66 223.48,-317.98 231.02,-321.28 238.56,-323.8"/>
<polygon fill="#63b8ff" stroke="#63b8ff" points="237.8,-327.23 248.38,-326.68 239.77,-320.51 237.8,-327.23"/>
</g>
<!-- Node21 -->
<g id="node21" class="node">
<title>Node21</title>
<g id="a_node21"><a xlink:href="buzzer_control_8cpp.html#ad981474a88ca6153a65b8e133af409a8" target="_top" xlink:title=" ">
<polygon fill="white" stroke="#666666" points="313,-156.16 247,-156.16 247,-137.16 313,-137.16 313,-156.16"/>
<text text-anchor="middle" x="280" y="-144.16" font-family="Helvetica,sans-Serif" font-size="10.00">clapMelody</text>
</a>
</g>
</g>
<!-- Node20&#45;&gt;Node21 -->
<g id="edge24" class="edge">
<title>Node20&#45;&gt;Node21</title>
<path fill="none" stroke="#63b8ff" d="M149.37,-192.11C167.46,-184.53 193.67,-173.88 217,-165.66 223.49,-163.37 230.42,-161.09 237.2,-158.95"/>
<polygon fill="#63b8ff" stroke="#63b8ff" points="238.46,-162.22 246.97,-155.92 236.39,-155.53 238.46,-162.22"/>
</g>
<!-- Node22 -->
<g id="node22" class="node">
<title>Node22</title>
<g id="a_node22"><a xlink:href="light_control_8cpp.html#a936cbab2212d6c6efe113fcd4362d2af" target="_top" xlink:title=" ">
<polygon fill="white" stroke="#666666" points="339.5,-119.16 220.5,-119.16 220.5,-100.16 339.5,-100.16 339.5,-119.16"/>
<text text-anchor="middle" x="280" y="-107.16" font-family="Helvetica,sans-Serif" font-size="10.00">lightModeCandleUpdate</text>
</a>
</g>
</g>
<!-- Node20&#45;&gt;Node22 -->
<g id="edge25" class="edge">
<title>Node20&#45;&gt;Node22</title>
<path fill="none" stroke="#63b8ff" d="M136.6,-191.71C152.13,-176.16 184.33,-146.06 217,-128.66 221.19,-126.43 225.68,-124.41 230.26,-122.61"/>
<polygon fill="#63b8ff" stroke="#63b8ff" points="231.5,-125.88 239.71,-119.2 229.12,-119.3 231.5,-125.88"/>
</g>
<!-- Node23 -->
<g id="node23" class="node">
<title>Node23</title>
<g id="a_node23"><a xlink:href="light_control_8cpp.html#ac5e502533fb7bf671c8f22b73e935ad7" target="_top" xlink:title=" ">
<polygon fill="white" stroke="#666666" points="336,-82.16 224,-82.16 224,-63.16 336,-63.16 336,-82.16"/>
<text text-anchor="middle" x="280" y="-70.16" font-family="Helvetica,sans-Serif" font-size="10.00">lightModeColorUpdate</text>
</a>
</g>
</g>
<!-- Node20&#45;&gt;Node23 -->
<g id="edge26" class="edge">
<title>Node20&#45;&gt;Node23</title>
<path fill="none" stroke="#63b8ff" d="M132.15,-192.12C144.14,-170.83 176.03,-119.16 217,-91.66 219.94,-89.68 223.09,-87.91 226.36,-86.31"/>
<polygon fill="#63b8ff" stroke="#63b8ff" points="227.99,-89.42 235.81,-82.27 225.24,-82.99 227.99,-89.42"/>
</g>
<!-- Node24 -->
<g id="node24" class="node">
<title>Node24</title>
<g id="a_node24"><a xlink:href="light_control_8cpp.html#a9144d48445bcbb1509593aeb5021750a" target="_top" xlink:title=" ">
<polygon fill="white" stroke="#666666" points="342.5,-45.16 217.5,-45.16 217.5,-26.16 342.5,-26.16 342.5,-45.16"/>
<text text-anchor="middle" x="280" y="-33.16" font-family="Helvetica,sans-Serif" font-size="10.00">lightModeKomodoUpdate</text>
</a>
</g>
</g>
<!-- Node20&#45;&gt;Node24 -->
<g id="edge27" class="edge">
<title>Node20&#45;&gt;Node24</title>
<path fill="none" stroke="#63b8ff" d="M132.7,-191.93C151.48,-159.92 210.64,-59.58 217,-54.66 219.34,-52.85 221.84,-51.21 224.47,-49.72"/>
<polygon fill="#63b8ff" stroke="#63b8ff" points="226.24,-52.75 233.73,-45.26 223.2,-46.45 226.24,-52.75"/>
</g>
<!-- Node25 -->
<g id="node25" class="node">
<title>Node25</title>
<g id="a_node25"><a xlink:href="light_control_8cpp.html#a02a6a9031fb951ca75c2b7e8c9d7c0f7" target="_top" xlink:title=" ">
<polygon fill="white" stroke="#666666" points="338,-304.16 222,-304.16 222,-285.16 338,-285.16 338,-304.16"/>
<text text-anchor="middle" x="280" y="-292.16" font-family="Helvetica,sans-Serif" font-size="10.00">lightModeMusicUpdate</text>
</a>
</g>
</g>
<!-- Node20&#45;&gt;Node25 -->
<g id="edge28" class="edge">
<title>Node20&#45;&gt;Node25</title>
<path fill="none" stroke="#63b8ff" d="M135.77,-211.17C150.87,-227.01 183.42,-258.8 217,-276.66 220.46,-278.5 224.14,-280.17 227.9,-281.69"/>
<polygon fill="#63b8ff" stroke="#63b8ff" points="226.78,-285.01 237.38,-285.15 229.18,-278.43 226.78,-285.01"/>
</g>
<!-- Node26 -->
<g id="node26" class="node">
<title>Node26</title>
<g id="a_node26"><a xlink:href="light_control_8cpp.html#a9580f8c1dc2cf814e26e3e73b870d89e" target="_top" xlink:title=" ">
<polygon fill="white" stroke="#666666" points="337,-267.16 223,-267.16 223,-248.16 337,-248.16 337,-267.16"/>
<text text-anchor="middle" x="280" y="-255.16" font-family="Helvetica,sans-Serif" font-size="10.00">lightModePulseUpdate</text>
</a>
</g>
</g>
<!-- Node20&#45;&gt;Node26 -->
<g id="edge30" class="edge">
<title>Node20&#45;&gt;Node26</title>
<path fill="none" stroke="#63b8ff" d="M147.82,-211.27C165.89,-219.41 192.86,-231.09 217,-239.66 222.28,-241.53 227.86,-243.36 233.43,-245.09"/>
<polygon fill="#63b8ff" stroke="#63b8ff" points="232.78,-248.55 243.36,-248.08 234.8,-241.85 232.78,-248.55"/>
</g>
<!-- Node27 -->
<g id="node27" class="node">
<title>Node27</title>
<g id="a_node27"><a xlink:href="light_control_8cpp.html#adb7e99a733ea745af705e33fc11c2dbf" target="_top" xlink:title=" ">
<polygon fill="white" stroke="#666666" points="343,-230.16 217,-230.16 217,-211.16 343,-211.16 343,-230.16"/>
<text text-anchor="middle" x="280" y="-218.16" font-family="Helvetica,sans-Serif" font-size="10.00">lightModeRainbowUpdate</text>
</a>
</g>
</g>
<!-- Node20&#45;&gt;Node27 -->
<g id="edge31" class="edge">
<title>Node20&#45;&gt;Node27</title>
<path fill="none" stroke="#63b8ff" d="M158.86,-205.64C172.78,-207.38 189.71,-209.5 206.42,-211.58"/>
<polygon fill="#63b8ff" stroke="#63b8ff" points="206.42,-215.11 216.77,-212.88 207.28,-208.17 206.42,-215.11"/>
</g>
<!-- Node28 -->
<g id="node28" class="node">
<title>Node28</title>
<g id="a_node28"><a xlink:href="classmusic_channel.html#a15ae593419dfa3a15077ce490d75de3e" target="_top" xlink:title=" ">
<polygon fill="white" stroke="#666666" points="336.5,-193.16 223.5,-193.16 223.5,-174.16 336.5,-174.16 336.5,-193.16"/>
<text text-anchor="middle" x="280" y="-181.16" font-family="Helvetica,sans-Serif" font-size="10.00">musicChannel::update</text>
</a>
</g>
</g>
<!-- Node20&#45;&gt;Node28 -->
<g id="edge33" class="edge">
<title>Node20&#45;&gt;Node28</title>
<path fill="none" stroke="#63b8ff" d="M158.86,-197.88C174.66,-196.01 194.34,-193.68 213.17,-191.45"/>
<polygon fill="#63b8ff" stroke="#63b8ff" points="213.7,-194.91 223.22,-190.26 212.87,-187.96 213.7,-194.91"/>
</g>
<!-- Node25&#45;&gt;Node19 -->
<g id="edge29" class="edge">
<title>Node25&#45;&gt;Node19</title>
<path fill="none" stroke="#63b8ff" d="M328.25,-285.16C333.53,-282.9 338.59,-280.11 343,-276.66 386.84,-242.37 412.65,-179.22 423.48,-147.27"/>
<polygon fill="#63b8ff" stroke="#63b8ff" points="426.93,-147.96 426.69,-137.37 420.27,-145.8 426.93,-147.96"/>
</g>
</g>
</svg>
