<?xml version="1.0" encoding="UTF-8" standalone="no"?>
<!DOCTYPE svg PUBLIC "-//W3C//DTD SVG 1.1//EN"
 "http://www.w3.org/Graphics/SVG/1.1/DTD/svg11.dtd">
<!-- Generated by graphviz version 5.0.1 (20220820.1526)
 -->
<!-- Title: encoderButtonUpdate Pages: 1 -->
<svg width="402pt" height="316pt"
 viewBox="0.00 0.00 402.00 316.00" xmlns="http://www.w3.org/2000/svg" xmlns:xlink="http://www.w3.org/1999/xlink">
<g id="graph0" class="graph" transform="scale(1 1) rotate(0) translate(4 312)">
<title>encoderButtonUpdate</title>
<!-- Node1 -->
<g id="node1" class="node">
<title>Node1</title>
<g id="a_node1"><a xlink:title=" ">
<polygon fill="#999999" stroke="#666666" points="110,-160 0,-160 0,-141 110,-141 110,-160"/>
<text text-anchor="middle" x="55" y="-148" font-family="Helvetica,sans-Serif" font-size="10.00">encoderButtonUpdate</text>
</a>
</g>
</g>
<!-- Node2 -->
<g id="node2" class="node">
<title>Node2</title>
<g id="a_node2"><a xlink:href="buzzer_control_8cpp.html#a5864c94f53494adcbc834a0ba15395a4" target="_top" xlink:title=" ">
<polygon fill="white" stroke="#666666" points="247,-308 154,-308 154,-289 247,-289 247,-308"/>
<text text-anchor="middle" x="200.5" y="-296" font-family="Helvetica,sans-Serif" font-size="10.00">buttonClickSound</text>
</a>
</g>
</g>
<!-- Node1&#45;&gt;Node2 -->
<g id="edge1" class="edge">
<title>Node1&#45;&gt;Node2</title>
<path fill="none" stroke="#63b8ff" d="M60.15,-160.12C70.85,-183.86 101.7,-245.72 146,-279.5 148.43,-281.35 151.06,-283.04 153.79,-284.56"/>
<polygon fill="#63b8ff" stroke="#63b8ff" points="152.3,-287.73 162.82,-288.92 155.34,-281.42 152.3,-287.73"/>
</g>
<!-- Node3 -->
<g id="node3" class="node">
<title>Node3</title>
<g id="a_node3"><a xlink:href="motor_control_8cpp.html#a3edea24b195ca992810885fdec367a5b" target="_top" xlink:title=" ">
<polygon fill="white" stroke="#666666" points="231.5,-234 169.5,-234 169.5,-215 231.5,-215 231.5,-234"/>
<text text-anchor="middle" x="200.5" y="-222" font-family="Helvetica,sans-Serif" font-size="10.00">closeFront</text>
</a>
</g>
</g>
<!-- Node1&#45;&gt;Node3 -->
<g id="edge2" class="edge">
<title>Node1&#45;&gt;Node3</title>
<path fill="none" stroke="#63b8ff" d="M69.53,-160C86.72,-171.78 117.57,-191.95 146,-205.5 150.38,-207.59 155.06,-209.58 159.76,-211.43"/>
<polygon fill="#63b8ff" stroke="#63b8ff" points="158.75,-214.79 169.34,-215.02 161.21,-208.23 158.75,-214.79"/>
</g>
<!-- Node6 -->
<g id="node6" class="node">
<title>Node6</title>
<g id="a_node6"><a xlink:href="light_control_8cpp.html#a917dd43e7776a36541f1689c14266d8c" target="_top" xlink:title=" ">
<polygon fill="white" stroke="#666666" points="232,-271 169,-271 169,-252 232,-252 232,-271"/>
<text text-anchor="middle" x="200.5" y="-259" font-family="Helvetica,sans-Serif" font-size="10.00">lightToggle</text>
</a>
</g>
</g>
<!-- Node1&#45;&gt;Node6 -->
<g id="edge5" class="edge">
<title>Node1&#45;&gt;Node6</title>
<path fill="none" stroke="#63b8ff" d="M63.07,-160.25C76.96,-178.78 109.67,-219.27 146,-242.5 150.14,-245.15 154.7,-247.49 159.36,-249.53"/>
<polygon fill="#63b8ff" stroke="#63b8ff" points="158.36,-252.9 168.95,-253.33 160.94,-246.4 158.36,-252.9"/>
</g>
<!-- Node9 -->
<g id="node9" class="node">
<title>Node9</title>
<g id="a_node9"><a xlink:href="classmenu.html#aa90b85d7aa5ddfa761e7cb8f9e83da93" target="_top" xlink:title=" ">
<polygon fill="white" stroke="#666666" points="233,-179 168,-179 168,-160 233,-160 233,-179"/>
<text text-anchor="middle" x="200.5" y="-167" font-family="Helvetica,sans-Serif" font-size="10.00">menu::next</text>
</a>
</g>
</g>
<!-- Node1&#45;&gt;Node9 -->
<g id="edge8" class="edge">
<title>Node1&#45;&gt;Node9</title>
<path fill="none" stroke="#63b8ff" d="M110.25,-157.68C125.83,-159.75 142.59,-161.97 157.33,-163.92"/>
<polygon fill="#63b8ff" stroke="#63b8ff" points="157.29,-167.44 167.66,-165.28 158.2,-160.5 157.29,-167.44"/>
</g>
<!-- Node10 -->
<g id="node10" class="node">
<title>Node10</title>
<g id="a_node10"><a xlink:href="buzzer_control_8cpp.html#a7e4caa5e23b84269cfee1710ff391d81" target="_top" xlink:title=" ">
<polygon fill="white" stroke="#666666" points="247.5,-142 153.5,-142 153.5,-123 247.5,-123 247.5,-142"/>
<text text-anchor="middle" x="200.5" y="-130" font-family="Helvetica,sans-Serif" font-size="10.00">openCloseMelody</text>
</a>
</g>
</g>
<!-- Node1&#45;&gt;Node10 -->
<g id="edge10" class="edge">
<title>Node1&#45;&gt;Node10</title>
<path fill="none" stroke="#63b8ff" d="M110.25,-143.69C120.96,-142.35 132.22,-140.94 143,-139.59"/>
<polygon fill="#63b8ff" stroke="#63b8ff" points="143.66,-143.03 153.15,-138.31 142.79,-136.09 143.66,-143.03"/>
</g>
<!-- Node11 -->
<g id="node11" class="node">
<title>Node11</title>
<g id="a_node11"><a xlink:href="motor_control_8cpp.html#aa6b9b6a60feed520f3227ec9a50c5e86" target="_top" xlink:title=" ">
<polygon fill="white" stroke="#666666" points="230.5,-105 170.5,-105 170.5,-86 230.5,-86 230.5,-105"/>
<text text-anchor="middle" x="200.5" y="-93" font-family="Helvetica,sans-Serif" font-size="10.00">openFront</text>
</a>
</g>
</g>
<!-- Node1&#45;&gt;Node11 -->
<g id="edge11" class="edge">
<title>Node1&#45;&gt;Node11</title>
<path fill="none" stroke="#63b8ff" d="M78.03,-140.97C96.16,-133.24 122.58,-122.24 146,-113.5 150.63,-111.77 155.52,-110.02 160.38,-108.33"/>
<polygon fill="#63b8ff" stroke="#63b8ff" points="161.89,-111.51 170.22,-104.96 159.63,-104.89 161.89,-111.51"/>
</g>
<!-- Node12 -->
<g id="node12" class="node">
<title>Node12</title>
<g id="a_node12"><a xlink:href="classconfiguration_manager.html#a98840390e246bd6606af1345d54458ec" target="_top" xlink:title=" ">
<polygon fill="white" stroke="#666666" points="255,-67.5 146,-67.5 146,-37.5 255,-37.5 255,-67.5"/>
<text text-anchor="start" x="154" y="-55.5" font-family="Helvetica,sans-Serif" font-size="10.00">configurationManager</text>
<text text-anchor="middle" x="200.5" y="-44.5" font-family="Helvetica,sans-Serif" font-size="10.00">::saveConfig</text>
</a>
</g>
</g>
<!-- Node1&#45;&gt;Node12 -->
<g id="edge13" class="edge">
<title>Node1&#45;&gt;Node12</title>
<path fill="none" stroke="#63b8ff" d="M65.85,-140.89C81.71,-125.76 114.36,-96.11 146,-76.5 148.43,-74.99 150.98,-73.52 153.58,-72.11"/>
<polygon fill="#63b8ff" stroke="#63b8ff" points="155.26,-75.18 162.57,-67.5 152.07,-68.95 155.26,-75.18"/>
</g>
<!-- Node13 -->
<g id="node13" class="node">
<title>Node13</title>
<g id="a_node13"><a xlink:href="buzzer_control_8cpp.html#a510029b29e503662590cc7e69a41b744" target="_top" xlink:title=" ">
<polygon fill="white" stroke="#666666" points="239,-19 162,-19 162,0 239,0 239,-19"/>
<text text-anchor="middle" x="200.5" y="-7" font-family="Helvetica,sans-Serif" font-size="10.00">turnOnMelody</text>
</a>
</g>
</g>
<!-- Node1&#45;&gt;Node13 -->
<g id="edge14" class="edge">
<title>Node1&#45;&gt;Node13</title>
<path fill="none" stroke="#63b8ff" d="M60.62,-140.73C71.95,-117.82 103.3,-60.18 146,-28.5 148.49,-26.65 151.18,-24.97 153.98,-23.44"/>
<polygon fill="#63b8ff" stroke="#63b8ff" points="155.65,-26.52 163.19,-19.07 152.65,-20.2 155.65,-26.52"/>
</g>
<!-- Node4 -->
<g id="node4" class="node">
<title>Node4</title>
<g id="a_node4"><a xlink:href="classssd1306.html#a5062186eb98a5bb66a009d232b143172" target="_top" xlink:title=" ">
<polygon fill="white" stroke="#666666" points="393.5,-234 291.5,-234 291.5,-215 393.5,-215 393.5,-234"/>
<text text-anchor="middle" x="342.5" y="-222" font-family="Helvetica,sans-Serif" font-size="10.00">ssd1306::displayOff</text>
</a>
</g>
</g>
<!-- Node3&#45;&gt;Node4 -->
<g id="edge3" class="edge">
<title>Node3&#45;&gt;Node4</title>
<path fill="none" stroke="#63b8ff" d="M231.53,-224.5C246.11,-224.5 264.16,-224.5 281.39,-224.5"/>
<polygon fill="#63b8ff" stroke="#63b8ff" points="281.41,-228 291.41,-224.5 281.41,-221 281.41,-228"/>
</g>
<!-- Node5 -->
<g id="node5" class="node">
<title>Node5</title>
<g id="a_node5"><a xlink:href="classssd1306.html#a8ef7011e9d60ce7307650365e48e285d" target="_top" xlink:title=" ">
<polygon fill="white" stroke="#666666" points="394,-151 291,-151 291,-132 394,-132 394,-151"/>
<text text-anchor="middle" x="342.5" y="-139" font-family="Helvetica,sans-Serif" font-size="10.00">ssd1306::displayOn</text>
</a>
</g>
</g>
<!-- Node3&#45;&gt;Node5 -->
<g id="edge4" class="edge">
<title>Node3&#45;&gt;Node5</title>
<path fill="none" stroke="#63b8ff" d="M231.6,-215.56C239.42,-212.77 247.69,-209.39 255,-205.5 280.14,-192.12 306.01,-171.98 322.82,-157.88"/>
<polygon fill="#63b8ff" stroke="#63b8ff" points="325.41,-160.28 330.74,-151.12 320.86,-154.95 325.41,-160.28"/>
</g>
<!-- Node7 -->
<g id="node7" class="node">
<title>Node7</title>
<g id="a_node7"><a xlink:href="light_control_8cpp.html#ac63baab438299bd5074897396b600c00" target="_top" xlink:title=" ">
<polygon fill="white" stroke="#666666" points="366,-308 319,-308 319,-289 366,-289 366,-308"/>
<text text-anchor="middle" x="342.5" y="-296" font-family="Helvetica,sans-Serif" font-size="10.00">lightOff</text>
</a>
</g>
</g>
<!-- Node6&#45;&gt;Node7 -->
<g id="edge6" class="edge">
<title>Node6&#45;&gt;Node7</title>
<path fill="none" stroke="#63b8ff" d="M232.22,-269.62C254.94,-275.62 285.82,-283.78 308.96,-289.9"/>
<polygon fill="#63b8ff" stroke="#63b8ff" points="308.11,-293.29 318.67,-292.47 309.89,-286.53 308.11,-293.29"/>
</g>
<!-- Node8 -->
<g id="node8" class="node">
<title>Node8</title>
<g id="a_node8"><a xlink:href="light_control_8cpp.html#a4dc2c28dc568051bd85575dfd2082c54" target="_top" xlink:title=" ">
<polygon fill="white" stroke="#666666" points="366,-271 319,-271 319,-252 366,-252 366,-271"/>
<text text-anchor="middle" x="342.5" y="-259" font-family="Helvetica,sans-Serif" font-size="10.00">lightOn</text>
</a>
</g>
</g>
<!-- Node6&#45;&gt;Node8 -->
<g id="edge7" class="edge">
<title>Node6&#45;&gt;Node8</title>
<path fill="none" stroke="#63b8ff" d="M232.22,-261.5C254.84,-261.5 285.54,-261.5 308.64,-261.5"/>
<polygon fill="#63b8ff" stroke="#63b8ff" points="308.67,-265 318.67,-261.5 308.67,-258 308.67,-265"/>
</g>
<!-- Node9&#45;&gt;Node9 -->
<g id="edge9" class="edge">
<title>Node9&#45;&gt;Node9</title>
<path fill="none" stroke="#63b8ff" d="M178.61,-179.08C167.97,-187.73 175.26,-197 200.5,-197 216.67,-197 225.47,-193.2 226.91,-188.19"/>
<polygon fill="#63b8ff" stroke="#63b8ff" points="229.97,-186.48 222.39,-179.08 223.7,-189.6 229.97,-186.48"/>
</g>
<!-- Node11&#45;&gt;Node5 -->
<g id="edge12" class="edge">
<title>Node11&#45;&gt;Node5</title>
<path fill="none" stroke="#63b8ff" d="M230.51,-105.03C251.44,-111.91 279.92,-121.27 302.79,-128.78"/>
<polygon fill="#63b8ff" stroke="#63b8ff" points="301.94,-132.18 312.53,-131.98 304.12,-125.53 301.94,-132.18"/>
</g>
</g>
</svg>
