<?xml version="1.0" encoding="UTF-8" standalone="no"?>
<!DOCTYPE svg PUBLIC "-//W3C//DTD SVG 1.1//EN"
 "http://www.w3.org/Graphics/SVG/1.1/DTD/svg11.dtd">
<!-- Generated by graphviz version 5.0.1 (20220820.1526)
 -->
<!-- Title: loop Pages: 1 -->
<svg width="656pt" height="748pt"
 viewBox="0.00 0.00 656.00 747.97" xmlns="http://www.w3.org/2000/svg" xmlns:xlink="http://www.w3.org/1999/xlink">
<g id="graph0" class="graph" transform="scale(1 1) rotate(0) translate(4 743.97)">
<title>loop</title>
<!-- Node1 -->
<g id="node1" class="node">
<title>Node1</title>
<g id="a_node1"><a xlink:title=" ">
<polygon fill="#999999" stroke="#666666" points="35,-339.97 0,-339.97 0,-320.97 35,-320.97 35,-339.97"/>
<text text-anchor="middle" x="17.5" y="-327.97" font-family="Helvetica,sans-Serif" font-size="10.00">loop</text>
</a>
</g>
</g>
<!-- Node2 -->
<g id="node2" class="node">
<title>Node2</title>
<g id="a_node2"><a xlink:href="classmenu.html#a6fcf97a34d06d1889ae8cf52e5060d06" target="_top" xlink:title=" ">
<polygon fill="white" stroke="#666666" points="159.5,-666.97 92.5,-666.97 92.5,-647.97 159.5,-647.97 159.5,-666.97"/>
<text text-anchor="middle" x="126" y="-654.97" font-family="Helvetica,sans-Serif" font-size="10.00">menu::draw</text>
</a>
</g>
</g>
<!-- Node1&#45;&gt;Node2 -->
<g id="edge1" class="edge">
<title>Node1&#45;&gt;Node2</title>
<path fill="none" stroke="#63b8ff" d="M21.69,-340.26C36.48,-385.67 98.55,-576.26 118.67,-638.05"/>
<polygon fill="#63b8ff" stroke="#63b8ff" points="115.4,-639.3 121.83,-647.73 122.06,-637.13 115.4,-639.3"/>
</g>
<!-- Node5 -->
<g id="node5" class="node">
<title>Node5</title>
<g id="a_node5"><a xlink:href="main_8cpp.html#a098f004d14a561a6007a87e9a2959eb9" target="_top" xlink:title=" ">
<polygon fill="white" stroke="#666666" points="181,-451.97 71,-451.97 71,-432.97 181,-432.97 181,-451.97"/>
<text text-anchor="middle" x="126" y="-439.97" font-family="Helvetica,sans-Serif" font-size="10.00">encoderButtonUpdate</text>
</a>
</g>
</g>
<!-- Node1&#45;&gt;Node5 -->
<g id="edge6" class="edge">
<title>Node1&#45;&gt;Node5</title>
<path fill="none" stroke="#63b8ff" d="M27.58,-340.02C45.66,-359.03 86.35,-401.83 109.01,-425.66"/>
<polygon fill="#63b8ff" stroke="#63b8ff" points="106.52,-428.11 115.94,-432.95 111.59,-423.29 106.52,-428.11"/>
</g>
<!-- Node20 -->
<g id="node20" class="node">
<title>Node20</title>
<g id="a_node20"><a xlink:href="fog_machine_8cpp.html#aeeeab6eddd5682f0cd25b20233cc354c" target="_top" xlink:title="Update the fog machine state.">
<polygon fill="white" stroke="#666666" points="174.5,-99.97 77.5,-99.97 77.5,-80.97 174.5,-80.97 174.5,-99.97"/>
<text text-anchor="middle" x="126" y="-87.97" font-family="Helvetica,sans-Serif" font-size="10.00">fogMachineUpdate</text>
</a>
</g>
</g>
<!-- Node1&#45;&gt;Node20 -->
<g id="edge24" class="edge">
<title>Node1&#45;&gt;Node20</title>
<path fill="none" stroke="#63b8ff" d="M21.21,-320.88C28.12,-296.94 47.52,-232.89 71,-182.47 83.45,-155.74 101.31,-126.67 113.02,-108.51"/>
<polygon fill="#63b8ff" stroke="#63b8ff" points="115.99,-110.37 118.53,-100.08 110.13,-106.54 115.99,-110.37"/>
</g>
<!-- Node22 -->
<g id="node22" class="node">
<title>Node22</title>
<g id="a_node22"><a xlink:href="light_control_8cpp.html#a47fe68420dcb96e582ea856ee8df8e78" target="_top" xlink:title="Update function for the lighting.">
<polygon fill="white" stroke="#666666" points="158.5,-210.97 93.5,-210.97 93.5,-191.97 158.5,-191.97 158.5,-210.97"/>
<text text-anchor="middle" x="126" y="-198.97" font-family="Helvetica,sans-Serif" font-size="10.00">lightUpdate</text>
</a>
</g>
</g>
<!-- Node1&#45;&gt;Node22 -->
<g id="edge26" class="edge">
<title>Node1&#45;&gt;Node22</title>
<path fill="none" stroke="#63b8ff" d="M26.5,-320.78C44.31,-299.21 87.44,-246.97 110.26,-219.32"/>
<polygon fill="#63b8ff" stroke="#63b8ff" points="113.23,-221.22 116.9,-211.28 107.84,-216.77 113.23,-221.22"/>
</g>
<!-- Node3 -->
<g id="node3" class="node">
<title>Node3</title>
<g id="a_node3"><a xlink:href="classmenu.html#aa570579eea43a7810230472ee28b873a" target="_top" xlink:title=" ">
<polygon fill="white" stroke="#666666" points="314.5,-666.97 245.5,-666.97 245.5,-647.97 314.5,-647.97 314.5,-666.97"/>
<text text-anchor="middle" x="280" y="-654.97" font-family="Helvetica,sans-Serif" font-size="10.00">menu::down</text>
</a>
</g>
</g>
<!-- Node2&#45;&gt;Node3 -->
<g id="edge2" class="edge">
<title>Node2&#45;&gt;Node3</title>
<path fill="none" stroke="#63b8ff" d="M159.61,-657.47C181.64,-657.47 211,-657.47 235.09,-657.47"/>
<polygon fill="#63b8ff" stroke="#63b8ff" points="235.39,-660.97 245.39,-657.47 235.39,-653.97 235.39,-660.97"/>
</g>
<!-- Node4 -->
<g id="node4" class="node">
<title>Node4</title>
<g id="a_node4"><a xlink:href="classmenu.html#a87a6a695240e84646f5f92a6f764b7e9" target="_top" xlink:title=" ">
<polygon fill="white" stroke="#666666" points="308.5,-721.97 251.5,-721.97 251.5,-702.97 308.5,-702.97 308.5,-721.97"/>
<text text-anchor="middle" x="280" y="-709.97" font-family="Helvetica,sans-Serif" font-size="10.00">menu::up</text>
</a>
</g>
</g>
<!-- Node2&#45;&gt;Node4 -->
<g id="edge4" class="edge">
<title>Node2&#45;&gt;Node4</title>
<path fill="none" stroke="#63b8ff" d="M148.57,-667.11C166.65,-675 193.24,-686.17 217,-694.47 224.9,-697.23 233.46,-699.92 241.63,-702.33"/>
<polygon fill="#63b8ff" stroke="#63b8ff" points="240.75,-705.72 251.33,-705.13 242.69,-698.99 240.75,-705.72"/>
</g>
<!-- Node3&#45;&gt;Node3 -->
<g id="edge3" class="edge">
<title>Node3&#45;&gt;Node3</title>
<path fill="none" stroke="#63b8ff" d="M256.57,-667.06C245.18,-675.71 252.98,-684.97 280,-684.97 297.73,-684.97 307.19,-680.98 308.37,-675.79"/>
<polygon fill="#63b8ff" stroke="#63b8ff" points="311.4,-674.04 303.43,-667.06 305.31,-677.48 311.4,-674.04"/>
</g>
<!-- Node4&#45;&gt;Node4 -->
<g id="edge5" class="edge">
<title>Node4&#45;&gt;Node4</title>
<path fill="none" stroke="#63b8ff" d="M256.57,-722.06C245.18,-730.71 252.98,-739.97 280,-739.97 297.73,-739.97 307.19,-735.98 308.37,-730.79"/>
<polygon fill="#63b8ff" stroke="#63b8ff" points="311.4,-729.04 303.43,-722.06 305.31,-732.48 311.4,-729.04"/>
</g>
<!-- Node6 -->
<g id="node6" class="node">
<title>Node6</title>
<g id="a_node6"><a xlink:href="buzzer_control_8cpp.html#a5864c94f53494adcbc834a0ba15395a4" target="_top" xlink:title="Generate button click sound.">
<polygon fill="white" stroke="#666666" points="326.5,-414.97 233.5,-414.97 233.5,-395.97 326.5,-395.97 326.5,-414.97"/>
<text text-anchor="middle" x="280" y="-402.97" font-family="Helvetica,sans-Serif" font-size="10.00">buttonClickSound</text>
</a>
</g>
</g>
<!-- Node5&#45;&gt;Node6 -->
<g id="edge7" class="edge">
<title>Node5&#45;&gt;Node6</title>
<path fill="none" stroke="#63b8ff" d="M166.14,-432.95C185.57,-428.22 209.24,-422.46 229.87,-417.43"/>
<polygon fill="#63b8ff" stroke="#63b8ff" points="230.84,-420.8 239.72,-415.03 229.18,-414 230.84,-420.8"/>
</g>
<!-- Node7 -->
<g id="node7" class="node">
<title>Node7</title>
<g id="a_node7"><a xlink:href="motor_control_8cpp.html#a3edea24b195ca992810885fdec367a5b" target="_top" xlink:title=" ">
<polygon fill="white" stroke="#666666" points="311,-377.97 249,-377.97 249,-358.97 311,-358.97 311,-377.97"/>
<text text-anchor="middle" x="280" y="-365.97" font-family="Helvetica,sans-Serif" font-size="10.00">closeFront</text>
</a>
</g>
</g>
<!-- Node5&#45;&gt;Node7 -->
<g id="edge8" class="edge">
<title>Node5&#45;&gt;Node7</title>
<path fill="none" stroke="#63b8ff" d="M140.43,-432.77C157.52,-420.79 188.28,-400.4 217,-387.47 224,-384.33 231.66,-381.51 239.14,-379.07"/>
<polygon fill="#63b8ff" stroke="#63b8ff" points="240.28,-382.38 248.8,-376.08 238.21,-375.69 240.28,-382.38"/>
</g>
<!-- Node11 -->
<g id="node11" class="node">
<title>Node11</title>
<g id="a_node11"><a xlink:href="light_control_8cpp.html#a917dd43e7776a36541f1689c14266d8c" target="_top" xlink:title="Toggle the lighting.">
<polygon fill="white" stroke="#666666" points="311.5,-340.97 248.5,-340.97 248.5,-321.97 311.5,-321.97 311.5,-340.97"/>
<text text-anchor="middle" x="280" y="-328.97" font-family="Helvetica,sans-Serif" font-size="10.00">lightToggle</text>
</a>
</g>
</g>
<!-- Node5&#45;&gt;Node11 -->
<g id="edge13" class="edge">
<title>Node5&#45;&gt;Node11</title>
<path fill="none" stroke="#63b8ff" d="M133.76,-432.87C147.38,-414.23 179.97,-373.02 217,-350.47 223.62,-346.44 231.16,-343.21 238.65,-340.63"/>
<polygon fill="#63b8ff" stroke="#63b8ff" points="239.87,-343.91 248.39,-337.61 237.8,-337.23 239.87,-343.91"/>
</g>
<!-- Node14 -->
<g id="node14" class="node">
<title>Node14</title>
<g id="a_node14"><a xlink:href="classmenu.html#aa90b85d7aa5ddfa761e7cb8f9e83da93" target="_top" xlink:title=" ">
<polygon fill="white" stroke="#666666" points="312.5,-611.97 247.5,-611.97 247.5,-592.97 312.5,-592.97 312.5,-611.97"/>
<text text-anchor="middle" x="280" y="-599.97" font-family="Helvetica,sans-Serif" font-size="10.00">menu::next</text>
</a>
</g>
</g>
<!-- Node5&#45;&gt;Node14 -->
<g id="edge16" class="edge">
<title>Node5&#45;&gt;Node14</title>
<path fill="none" stroke="#63b8ff" d="M130.32,-452.1C139.66,-477.74 168.69,-548.19 217,-584.47 223.04,-589.01 230.19,-592.4 237.46,-594.94"/>
<polygon fill="#63b8ff" stroke="#63b8ff" points="236.75,-598.39 247.34,-597.91 238.76,-591.68 236.75,-598.39"/>
</g>
<!-- Node15 -->
<g id="node15" class="node">
<title>Node15</title>
<g id="a_node15"><a xlink:href="buzzer_control_8cpp.html#a7e4caa5e23b84269cfee1710ff391d81" target="_top" xlink:title="Generate open&#45;close melody.">
<polygon fill="white" stroke="#666666" points="327,-574.97 233,-574.97 233,-555.97 327,-555.97 327,-574.97"/>
<text text-anchor="middle" x="280" y="-562.97" font-family="Helvetica,sans-Serif" font-size="10.00">openCloseMelody</text>
</a>
</g>
</g>
<!-- Node5&#45;&gt;Node15 -->
<g id="edge18" class="edge">
<title>Node5&#45;&gt;Node15</title>
<path fill="none" stroke="#63b8ff" d="M132.67,-452.1C145.21,-472.57 177.39,-520.67 217,-546.47 220.16,-548.53 223.55,-550.37 227.06,-552.03"/>
<polygon fill="#63b8ff" stroke="#63b8ff" points="225.97,-555.36 236.55,-555.96 228.65,-548.9 225.97,-555.36"/>
</g>
<!-- Node16 -->
<g id="node16" class="node">
<title>Node16</title>
<g id="a_node16"><a xlink:href="motor_control_8cpp.html#aa6b9b6a60feed520f3227ec9a50c5e86" target="_top" xlink:title=" ">
<polygon fill="white" stroke="#666666" points="310,-488.97 250,-488.97 250,-469.97 310,-469.97 310,-488.97"/>
<text text-anchor="middle" x="280" y="-476.97" font-family="Helvetica,sans-Serif" font-size="10.00">openFront</text>
</a>
</g>
</g>
<!-- Node5&#45;&gt;Node16 -->
<g id="edge19" class="edge">
<title>Node5&#45;&gt;Node16</title>
<path fill="none" stroke="#63b8ff" d="M166.14,-452C188.72,-457.5 217.03,-464.39 239.64,-469.89"/>
<polygon fill="#63b8ff" stroke="#63b8ff" points="239.05,-473.35 249.59,-472.32 240.7,-466.55 239.05,-473.35"/>
</g>
<!-- Node17 -->
<g id="node17" class="node">
<title>Node17</title>
<g id="a_node17"><a xlink:href="classconfiguration_manager.html#a98840390e246bd6606af1345d54458ec" target="_top" xlink:title="Save configuration to EEPROM.">
<polygon fill="white" stroke="#666666" points="334.5,-537.47 225.5,-537.47 225.5,-507.47 334.5,-507.47 334.5,-537.47"/>
<text text-anchor="start" x="233.5" y="-525.47" font-family="Helvetica,sans-Serif" font-size="10.00">configurationManager</text>
<text text-anchor="middle" x="280" y="-514.47" font-family="Helvetica,sans-Serif" font-size="10.00">::saveConfig</text>
</a>
</g>
</g>
<!-- Node5&#45;&gt;Node17 -->
<g id="edge21" class="edge">
<title>Node5&#45;&gt;Node17</title>
<path fill="none" stroke="#63b8ff" d="M140.56,-452.04C157.79,-463.92 188.68,-484.34 217,-498.47 220.35,-500.14 223.84,-501.78 227.39,-503.35"/>
<polygon fill="#63b8ff" stroke="#63b8ff" points="226.28,-506.68 236.85,-507.39 229.02,-500.24 226.28,-506.68"/>
</g>
<!-- Node19 -->
<g id="node19" class="node">
<title>Node19</title>
<g id="a_node19"><a xlink:href="buzzer_control_8cpp.html#a510029b29e503662590cc7e69a41b744" target="_top" xlink:title="Generate turn on sound.">
<polygon fill="white" stroke="#666666" points="318.5,-451.97 241.5,-451.97 241.5,-432.97 318.5,-432.97 318.5,-451.97"/>
<text text-anchor="middle" x="280" y="-439.97" font-family="Helvetica,sans-Serif" font-size="10.00">turnOnMelody</text>
</a>
</g>
</g>
<!-- Node5&#45;&gt;Node19 -->
<g id="edge23" class="edge">
<title>Node5&#45;&gt;Node19</title>
<path fill="none" stroke="#63b8ff" d="M181.02,-442.47C197.4,-442.47 215.27,-442.47 231.21,-442.47"/>
<polygon fill="#63b8ff" stroke="#63b8ff" points="231.37,-445.97 241.37,-442.47 231.37,-438.97 231.37,-445.97"/>
</g>
<!-- Node8 -->
<g id="node8" class="node">
<title>Node8</title>
<g id="a_node8"><a xlink:href="classssd1306.html#a5062186eb98a5bb66a009d232b143172" target="_top" xlink:title=" ">
<polygon fill="white" stroke="#666666" points="484.5,-377.97 382.5,-377.97 382.5,-358.97 484.5,-358.97 484.5,-377.97"/>
<text text-anchor="middle" x="433.5" y="-365.97" font-family="Helvetica,sans-Serif" font-size="10.00">ssd1306::displayOff</text>
</a>
</g>
</g>
<!-- Node7&#45;&gt;Node8 -->
<g id="edge9" class="edge">
<title>Node7&#45;&gt;Node8</title>
<path fill="none" stroke="#63b8ff" d="M311.29,-368.47C328.73,-368.47 351.27,-368.47 372.18,-368.47"/>
<polygon fill="#63b8ff" stroke="#63b8ff" points="372.28,-371.97 382.28,-368.47 372.28,-364.97 372.28,-371.97"/>
</g>
<!-- Node10 -->
<g id="node10" class="node">
<title>Node10</title>
<g id="a_node10"><a xlink:href="classssd1306.html#a8ef7011e9d60ce7307650365e48e285d" target="_top" xlink:title=" ">
<polygon fill="white" stroke="#666666" points="485,-414.97 382,-414.97 382,-395.97 485,-395.97 485,-414.97"/>
<text text-anchor="middle" x="433.5" y="-402.97" font-family="Helvetica,sans-Serif" font-size="10.00">ssd1306::displayOn</text>
</a>
</g>
</g>
<!-- Node7&#45;&gt;Node10 -->
<g id="edge11" class="edge">
<title>Node7&#45;&gt;Node10</title>
<path fill="none" stroke="#63b8ff" d="M311.29,-375.87C331.92,-380.91 359.68,-387.69 383.43,-393.49"/>
<polygon fill="#63b8ff" stroke="#63b8ff" points="382.79,-396.94 393.33,-395.91 384.45,-390.14 382.79,-396.94"/>
</g>
<!-- Node9 -->
<g id="node9" class="node">
<title>Node9</title>
<g id="a_node9"><a xlink:href="classssd1306.html#aefa5eaf22de34a236f038ee2f1528d18" target="_top" xlink:title=" ">
<polygon fill="white" stroke="#666666" points="648,-395.97 524,-395.97 524,-376.97 648,-376.97 648,-395.97"/>
<text text-anchor="middle" x="586" y="-383.97" font-family="Helvetica,sans-Serif" font-size="10.00">ssd1306::writeCommand</text>
</a>
</g>
</g>
<!-- Node8&#45;&gt;Node9 -->
<g id="edge10" class="edge">
<title>Node8&#45;&gt;Node9</title>
<path fill="none" stroke="#63b8ff" d="M484.61,-374.47C493.94,-375.58 503.85,-376.77 513.68,-377.94"/>
<polygon fill="#63b8ff" stroke="#63b8ff" points="513.51,-381.45 523.85,-379.16 514.34,-374.5 513.51,-381.45"/>
</g>
<!-- Node10&#45;&gt;Node9 -->
<g id="edge12" class="edge">
<title>Node10&#45;&gt;Node9</title>
<path fill="none" stroke="#63b8ff" d="M485.03,-399.09C494.29,-397.93 504.1,-396.69 513.82,-395.46"/>
<polygon fill="#63b8ff" stroke="#63b8ff" points="514.41,-398.91 523.9,-394.19 513.54,-391.97 514.41,-398.91"/>
</g>
<!-- Node12 -->
<g id="node12" class="node">
<title>Node12</title>
<g id="a_node12"><a xlink:href="light_control_8cpp.html#ac63baab438299bd5074897396b600c00" target="_top" xlink:title="Turn off the lighting.">
<polygon fill="white" stroke="#666666" points="457,-303.97 410,-303.97 410,-284.97 457,-284.97 457,-303.97"/>
<text text-anchor="middle" x="433.5" y="-291.97" font-family="Helvetica,sans-Serif" font-size="10.00">lightOff</text>
</a>
</g>
</g>
<!-- Node11&#45;&gt;Node12 -->
<g id="edge14" class="edge">
<title>Node11&#45;&gt;Node12</title>
<path fill="none" stroke="#63b8ff" d="M311.66,-323.99C337.31,-317.72 373.79,-308.81 399.96,-302.42"/>
<polygon fill="#63b8ff" stroke="#63b8ff" points="400.89,-305.8 409.78,-300.02 399.23,-299 400.89,-305.8"/>
</g>
<!-- Node13 -->
<g id="node13" class="node">
<title>Node13</title>
<g id="a_node13"><a xlink:href="light_control_8cpp.html#a4dc2c28dc568051bd85575dfd2082c54" target="_top" xlink:title="Turn on the lighting.">
<polygon fill="white" stroke="#666666" points="457,-340.97 410,-340.97 410,-321.97 457,-321.97 457,-340.97"/>
<text text-anchor="middle" x="433.5" y="-328.97" font-family="Helvetica,sans-Serif" font-size="10.00">lightOn</text>
</a>
</g>
</g>
<!-- Node11&#45;&gt;Node13 -->
<g id="edge15" class="edge">
<title>Node11&#45;&gt;Node13</title>
<path fill="none" stroke="#63b8ff" d="M311.66,-331.47C337.19,-331.47 373.47,-331.47 399.61,-331.47"/>
<polygon fill="#63b8ff" stroke="#63b8ff" points="399.78,-334.97 409.78,-331.47 399.78,-327.97 399.78,-334.97"/>
</g>
<!-- Node14&#45;&gt;Node14 -->
<g id="edge17" class="edge">
<title>Node14&#45;&gt;Node14</title>
<path fill="none" stroke="#63b8ff" d="M256.57,-612.06C245.18,-620.71 252.98,-629.97 280,-629.97 297.73,-629.97 307.19,-625.98 308.37,-620.79"/>
<polygon fill="#63b8ff" stroke="#63b8ff" points="311.4,-619.04 303.43,-612.06 305.31,-622.48 311.4,-619.04"/>
</g>
<!-- Node16&#45;&gt;Node10 -->
<g id="edge20" class="edge">
<title>Node16&#45;&gt;Node10</title>
<path fill="none" stroke="#63b8ff" d="M310.3,-472.75C320.84,-469.88 332.67,-466.1 343,-461.47 367.79,-450.38 393.87,-433.37 411.43,-421"/>
<polygon fill="#63b8ff" stroke="#63b8ff" points="413.7,-423.69 419.79,-415.02 409.63,-417.99 413.7,-423.69"/>
</g>
<!-- Node18 -->
<g id="node18" class="node">
<title>Node18</title>
<g id="a_node18"><a xlink:href="classconfiguration_manager.html#a5ca29572d941838b46df0dcb0ab811f3" target="_top" xlink:title="Maxim like crc&#45;8.">
<polygon fill="white" stroke="#666666" points="488,-537.47 379,-537.47 379,-507.47 488,-507.47 488,-537.47"/>
<text text-anchor="start" x="387" y="-525.47" font-family="Helvetica,sans-Serif" font-size="10.00">configurationManager</text>
<text text-anchor="middle" x="433.5" y="-514.47" font-family="Helvetica,sans-Serif" font-size="10.00">::crcFeed</text>
</a>
</g>
</g>
<!-- Node17&#45;&gt;Node18 -->
<g id="edge22" class="edge">
<title>Node17&#45;&gt;Node18</title>
<path fill="none" stroke="#63b8ff" d="M334.84,-522.47C345.78,-522.47 357.39,-522.47 368.63,-522.47"/>
<polygon fill="#63b8ff" stroke="#63b8ff" points="368.83,-525.97 378.83,-522.47 368.83,-518.97 368.83,-525.97"/>
</g>
<!-- Node21 -->
<g id="node21" class="node">
<title>Node21</title>
<g id="a_node21"><a xlink:href="fog_machine_8cpp.html#a7faf79e9d5df9f5a6772fa03154749e4" target="_top" xlink:title="Enable the humidifier.">
<polygon fill="white" stroke="#666666" points="481.5,-136.97 385.5,-136.97 385.5,-117.97 481.5,-117.97 481.5,-136.97"/>
<text text-anchor="middle" x="433.5" y="-124.97" font-family="Helvetica,sans-Serif" font-size="10.00">fogMachineEnable</text>
</a>
</g>
</g>
<!-- Node20&#45;&gt;Node21 -->
<g id="edge25" class="edge">
<title>Node20&#45;&gt;Node21</title>
<path fill="none" stroke="#63b8ff" d="M134.65,-80.84C148.77,-63.92 180.82,-29.44 217,-16.47 269.72,2.42 292.48,7.69 343,-16.47 383.02,-35.61 410.87,-82.35 423.98,-108.67"/>
<polygon fill="#63b8ff" stroke="#63b8ff" points="420.94,-110.44 428.41,-117.96 427.26,-107.43 420.94,-110.44"/>
</g>
<!-- Node22&#45;&gt;Node11 -->
<g id="edge35" class="edge">
<title>Node22&#45;&gt;Node11</title>
<path fill="none" stroke="#63b8ff" d="M132.13,-211.1C144.07,-232.59 175.86,-284.73 217,-312.47 223.56,-316.9 231.2,-320.33 238.82,-322.97"/>
<polygon fill="#63b8ff" stroke="#63b8ff" points="237.8,-326.32 248.39,-325.92 239.86,-319.63 237.8,-326.32"/>
</g>
<!-- Node23 -->
<g id="node23" class="node">
<title>Node23</title>
<g id="a_node23"><a xlink:href="buzzer_control_8cpp.html#ad981474a88ca6153a65b8e133af409a8" target="_top" xlink:title="Generate clap melody.">
<polygon fill="white" stroke="#666666" points="313,-155.97 247,-155.97 247,-136.97 313,-136.97 313,-155.97"/>
<text text-anchor="middle" x="280" y="-143.97" font-family="Helvetica,sans-Serif" font-size="10.00">clapMelody</text>
</a>
</g>
</g>
<!-- Node22&#45;&gt;Node23 -->
<g id="edge27" class="edge">
<title>Node22&#45;&gt;Node23</title>
<path fill="none" stroke="#63b8ff" d="M148.57,-191.84C166.65,-183.95 193.24,-172.78 217,-164.47 223.47,-162.21 230.38,-160 237.16,-157.95"/>
<polygon fill="#63b8ff" stroke="#63b8ff" points="238.33,-161.26 246.93,-155.07 236.35,-154.54 238.33,-161.26"/>
</g>
<!-- Node24 -->
<g id="node24" class="node">
<title>Node24</title>
<g id="a_node24"><a xlink:href="light_control_8cpp.html#a936cbab2212d6c6efe113fcd4362d2af" target="_top" xlink:title="Update function for the candle mode.">
<polygon fill="white" stroke="#666666" points="339.5,-118.97 220.5,-118.97 220.5,-99.97 339.5,-99.97 339.5,-118.97"/>
<text text-anchor="middle" x="280" y="-106.97" font-family="Helvetica,sans-Serif" font-size="10.00">lightModeCandleUpdate</text>
</a>
</g>
</g>
<!-- Node22&#45;&gt;Node24 -->
<g id="edge28" class="edge">
<title>Node22&#45;&gt;Node24</title>
<path fill="none" stroke="#63b8ff" d="M136.04,-191.84C151.29,-176.14 183.72,-145.03 217,-127.47 220.47,-125.64 224.15,-123.98 227.92,-122.46"/>
<polygon fill="#63b8ff" stroke="#63b8ff" points="229.2,-125.72 237.39,-119.01 226.8,-119.15 229.2,-125.72"/>
</g>
<!-- Node25 -->
<g id="node25" class="node">
<title>Node25</title>
<g id="a_node25"><a xlink:href="light_control_8cpp.html#ac5e502533fb7bf671c8f22b73e935ad7" target="_top" xlink:title="Update function for the color mode.">
<polygon fill="white" stroke="#666666" points="336,-81.97 224,-81.97 224,-62.97 336,-62.97 336,-81.97"/>
<text text-anchor="middle" x="280" y="-69.97" font-family="Helvetica,sans-Serif" font-size="10.00">lightModeColorUpdate</text>
</a>
</g>
</g>
<!-- Node22&#45;&gt;Node25 -->
<g id="edge29" class="edge">
<title>Node22&#45;&gt;Node25</title>
<path fill="none" stroke="#63b8ff" d="M132.1,-191.8C143.98,-170.23 175.66,-117.92 217,-90.47 219.41,-88.88 221.96,-87.42 224.6,-86.09"/>
<polygon fill="#63b8ff" stroke="#63b8ff" points="226.1,-89.25 233.85,-82.03 223.29,-82.84 226.1,-89.25"/>
</g>
<!-- Node26 -->
<g id="node26" class="node">
<title>Node26</title>
<g id="a_node26"><a xlink:href="light_control_8cpp.html#a9144d48445bcbb1509593aeb5021750a" target="_top" xlink:title="Update function for the komodo mode.">
<polygon fill="white" stroke="#666666" points="342.5,-44.97 217.5,-44.97 217.5,-25.97 342.5,-25.97 342.5,-44.97"/>
<text text-anchor="middle" x="280" y="-32.97" font-family="Helvetica,sans-Serif" font-size="10.00">lightModeKomodoUpdate</text>
</a>
</g>
</g>
<!-- Node22&#45;&gt;Node26 -->
<g id="edge30" class="edge">
<title>Node22&#45;&gt;Node26</title>
<path fill="none" stroke="#63b8ff" d="M132.69,-191.68C151.46,-159.44 210.58,-58.39 217,-53.47 218.81,-52.09 220.72,-50.81 222.71,-49.63"/>
<polygon fill="#63b8ff" stroke="#63b8ff" points="224.45,-52.68 231.81,-45.06 221.31,-46.42 224.45,-52.68"/>
</g>
<!-- Node27 -->
<g id="node27" class="node">
<title>Node27</title>
<g id="a_node27"><a xlink:href="light_control_8cpp.html#a02a6a9031fb951ca75c2b7e8c9d7c0f7" target="_top" xlink:title="Update function for the music mode.">
<polygon fill="white" stroke="#666666" points="338,-303.97 222,-303.97 222,-284.97 338,-284.97 338,-303.97"/>
<text text-anchor="middle" x="280" y="-291.97" font-family="Helvetica,sans-Serif" font-size="10.00">lightModeMusicUpdate</text>
</a>
</g>
</g>
<!-- Node22&#45;&gt;Node27 -->
<g id="edge31" class="edge">
<title>Node22&#45;&gt;Node27</title>
<path fill="none" stroke="#63b8ff" d="M136.07,-211.05C151.36,-226.68 183.85,-257.68 217,-275.47 221.18,-277.72 225.67,-279.74 230.24,-281.55"/>
<polygon fill="#63b8ff" stroke="#63b8ff" points="229.1,-284.86 239.69,-284.97 231.48,-278.28 229.1,-284.86"/>
</g>
<!-- Node28 -->
<g id="node28" class="node">
<title>Node28</title>
<g id="a_node28"><a xlink:href="light_control_8cpp.html#a9580f8c1dc2cf814e26e3e73b870d89e" target="_top" xlink:title="Update function for the pulse mode.">
<polygon fill="white" stroke="#666666" points="337,-266.97 223,-266.97 223,-247.97 337,-247.97 337,-266.97"/>
<text text-anchor="middle" x="280" y="-254.97" font-family="Helvetica,sans-Serif" font-size="10.00">lightModePulseUpdate</text>
</a>
</g>
</g>
<!-- Node22&#45;&gt;Node28 -->
<g id="edge33" class="edge">
<title>Node22&#45;&gt;Node28</title>
<path fill="none" stroke="#63b8ff" d="M148.6,-211.02C166.7,-218.85 193.3,-229.99 217,-238.47 223.05,-240.64 229.49,-242.78 235.84,-244.81"/>
<polygon fill="#63b8ff" stroke="#63b8ff" points="235.08,-248.24 245.67,-247.88 237.17,-241.56 235.08,-248.24"/>
</g>
<!-- Node29 -->
<g id="node29" class="node">
<title>Node29</title>
<g id="a_node29"><a xlink:href="light_control_8cpp.html#adb7e99a733ea745af705e33fc11c2dbf" target="_top" xlink:title="Update function for the rainbow mode.">
<polygon fill="white" stroke="#666666" points="343,-229.97 217,-229.97 217,-210.97 343,-210.97 343,-229.97"/>
<text text-anchor="middle" x="280" y="-217.97" font-family="Helvetica,sans-Serif" font-size="10.00">lightModeRainbowUpdate</text>
</a>
</g>
</g>
<!-- Node22&#45;&gt;Node29 -->
<g id="edge34" class="edge">
<title>Node22&#45;&gt;Node29</title>
<path fill="none" stroke="#63b8ff" d="M158.86,-205.46C172.78,-207.2 189.71,-209.31 206.42,-211.4"/>
<polygon fill="#63b8ff" stroke="#63b8ff" points="206.42,-214.93 216.77,-212.7 207.28,-207.98 206.42,-214.93"/>
</g>
<!-- Node30 -->
<g id="node30" class="node">
<title>Node30</title>
<g id="a_node30"><a xlink:href="classmusic_channel.html#a15ae593419dfa3a15077ce490d75de3e" target="_top" xlink:title=" ">
<polygon fill="white" stroke="#666666" points="336.5,-192.97 223.5,-192.97 223.5,-173.97 336.5,-173.97 336.5,-192.97"/>
<text text-anchor="middle" x="280" y="-180.97" font-family="Helvetica,sans-Serif" font-size="10.00">musicChannel::update</text>
</a>
</g>
</g>
<!-- Node22&#45;&gt;Node30 -->
<g id="edge36" class="edge">
<title>Node22&#45;&gt;Node30</title>
<path fill="none" stroke="#63b8ff" d="M158.86,-197.7C174.66,-195.83 194.34,-193.5 213.17,-191.27"/>
<polygon fill="#63b8ff" stroke="#63b8ff" points="213.7,-194.73 223.22,-190.08 212.87,-187.78 213.7,-194.73"/>
</g>
<!-- Node27&#45;&gt;Node21 -->
<g id="edge32" class="edge">
<title>Node27&#45;&gt;Node21</title>
<path fill="none" stroke="#63b8ff" d="M326.29,-284.9C332.26,-282.44 338.03,-279.35 343,-275.47 387.06,-241.13 414.35,-178.53 425.98,-146.89"/>
<polygon fill="#63b8ff" stroke="#63b8ff" points="429.41,-147.68 429.44,-137.08 422.81,-145.35 429.41,-147.68"/>
</g>
</g>
</svg>
