<?xml version="1.0" encoding="UTF-8" standalone="no"?>
<!DOCTYPE svg PUBLIC "-//W3C//DTD SVG 1.1//EN"
 "http://www.w3.org/Graphics/SVG/1.1/DTD/svg11.dtd">
<!-- Generated by graphviz version 5.0.1 (20220820.1526)
 -->
<!-- Title: encoderISR Pages: 1 -->
<svg width="218pt" height="137pt"
 viewBox="0.00 0.00 218.00 137.00" xmlns="http://www.w3.org/2000/svg" xmlns:xlink="http://www.w3.org/1999/xlink">
<g id="graph0" class="graph" transform="scale(1 1) rotate(0) translate(4 133)">
<title>encoderISR</title>
<!-- Node1 -->
<g id="node1" class="node">
<title>Node1</title>
<g id="a_node1"><a xlink:title=" ">
<polygon fill="#999999" stroke="#666666" points="67,-74 0,-74 0,-55 67,-55 67,-74"/>
<text text-anchor="middle" x="33.5" y="-62" font-family="Helvetica,sans-Serif" font-size="10.00">encoderISR</text>
</a>
</g>
</g>
<!-- Node2 -->
<g id="node2" class="node">
<title>Node2</title>
<g id="a_node2"><a xlink:href="classmenu.html#aa570579eea43a7810230472ee28b873a" target="_top" xlink:title=" ">
<polygon fill="white" stroke="#666666" points="191,-111 122,-111 122,-92 191,-92 191,-111"/>
<text text-anchor="middle" x="156.5" y="-99" font-family="Helvetica,sans-Serif" font-size="10.00">menu::down</text>
</a>
</g>
</g>
<!-- Node1&#45;&gt;Node2 -->
<g id="edge1" class="edge">
<title>Node1&#45;&gt;Node2</title>
<path fill="none" stroke="#63b8ff" d="M65.66,-74.03C80.51,-78.57 98.46,-84.06 114.4,-88.93"/>
<polygon fill="#63b8ff" stroke="#63b8ff" points="113.44,-92.3 124.02,-91.88 115.49,-85.6 113.44,-92.3"/>
</g>
<!-- Node3 -->
<g id="node3" class="node">
<title>Node3</title>
<g id="a_node3"><a xlink:href="buzzer_control_8cpp.html#a0d69ac845e7ec3529999488f019097af" target="_top" xlink:title="Generate encoder rotate sound.">
<polygon fill="white" stroke="#666666" points="210,-74 103,-74 103,-55 210,-55 210,-74"/>
<text text-anchor="middle" x="156.5" y="-62" font-family="Helvetica,sans-Serif" font-size="10.00">encoderRotateSound</text>
</a>
</g>
</g>
<!-- Node1&#45;&gt;Node3 -->
<g id="edge3" class="edge">
<title>Node1&#45;&gt;Node3</title>
<path fill="none" stroke="#63b8ff" d="M67.24,-64.5C75.09,-64.5 83.73,-64.5 92.45,-64.5"/>
<polygon fill="#63b8ff" stroke="#63b8ff" points="92.67,-68 102.67,-64.5 92.67,-61 92.67,-68"/>
</g>
<!-- Node4 -->
<g id="node4" class="node">
<title>Node4</title>
<g id="a_node4"><a xlink:href="classmenu.html#a87a6a695240e84646f5f92a6f764b7e9" target="_top" xlink:title=" ">
<polygon fill="white" stroke="#666666" points="185,-19 128,-19 128,0 185,0 185,-19"/>
<text text-anchor="middle" x="156.5" y="-7" font-family="Helvetica,sans-Serif" font-size="10.00">menu::up</text>
</a>
</g>
</g>
<!-- Node1&#45;&gt;Node4 -->
<g id="edge4" class="edge">
<title>Node1&#45;&gt;Node4</title>
<path fill="none" stroke="#63b8ff" d="M55.58,-54.92C74.8,-46.18 103.44,-33.16 125.14,-23.3"/>
<polygon fill="#63b8ff" stroke="#63b8ff" points="126.6,-26.48 134.26,-19.16 123.71,-20.11 126.6,-26.48"/>
</g>
<!-- Node2&#45;&gt;Node2 -->
<g id="edge2" class="edge">
<title>Node2&#45;&gt;Node2</title>
<path fill="none" stroke="#63b8ff" d="M137.7,-111.08C128.55,-119.73 134.82,-129 156.5,-129 170.05,-129 177.58,-125.38 179.09,-120.55"/>
<polygon fill="#63b8ff" stroke="#63b8ff" points="182.27,-119.07 175.3,-111.08 175.77,-121.67 182.27,-119.07"/>
</g>
<!-- Node4&#45;&gt;Node4 -->
<g id="edge5" class="edge">
<title>Node4&#45;&gt;Node4</title>
<path fill="none" stroke="#63b8ff" d="M137.7,-19.08C128.55,-27.73 134.82,-37 156.5,-37 170.05,-37 177.58,-33.38 179.09,-28.55"/>
<polygon fill="#63b8ff" stroke="#63b8ff" points="182.27,-27.07 175.3,-19.08 175.77,-29.67 182.27,-27.07"/>
</g>
</g>
</svg>
