<?xml version="1.0" encoding="UTF-8" standalone="no"?>
<!DOCTYPE svg PUBLIC "-//W3C//DTD SVG 1.1//EN"
 "http://www.w3.org/Graphics/SVG/1.1/DTD/svg11.dtd">
<!-- Generated by graphviz version 5.0.1 (20220820.1526)
 -->
<!-- Title: setup Pages: 1 -->
<!--zoomable 872 -->
<svg id="main" version="1.1" xmlns="http://www.w3.org/2000/svg" xmlns:xlink="http://www.w3.org/1999/xlink" xml:space="preserve" onload="init(evt)">
<style type="text/css"><![CDATA[
.edge:hover path { stroke: red; }
.edge:hover polygon { stroke: red; fill: red; }
]]></style>
<script type="text/javascript"><![CDATA[
var edges = document.getElementsByTagName('g');
if (edges && edges.length) {
  for (var i=0;i<edges.length;i++) {
    if (edges[i].id.substr(0,4)=='edge') {
      edges[i].setAttribute('class','edge');
    }
  }
}
]]></script>
        <defs>
                <circle id="rim" cx="0" cy="0" r="7"/>
                <circle id="rim2" cx="0" cy="0" r="3.5"/>
                <g id="zoomPlus">
                        <use xlink:href="#rim" fill="#404040">
                                <set attributeName="fill" to="#808080" begin="zoomplus.mouseover" end="zoomplus.mouseout"/>
                        </use>
                        <path d="M-4,0h8M0,-4v8" fill="none" stroke="white" stroke-width="1.5" pointer-events="none"/>
                </g>
                <g id="zoomMin">
                        <use xlink:href="#rim" fill="#404040">
                                <set attributeName="fill" to="#808080" begin="zoomminus.mouseover" end="zoomminus.mouseout"/>
                        </use>
                        <path d="M-4,0h8" fill="none" stroke="white" stroke-width="1.5" pointer-events="none"/>
                </g>
                <g id="dirArrow">
                        <path fill="none" stroke="white" stroke-width="1.5" d="M0,-3.0v7 M-2.5,-0.5L0,-3.0L2.5,-0.5"/>
                </g>
               <g id="resetDef">
                       <use xlink:href="#rim2" fill="#404040">
                               <set attributeName="fill" to="#808080" begin="reset.mouseover" end="reset.mouseout"/>
                       </use>
               </g>
        </defs>

<script type="text/javascript">
var viewWidth = 688;
var viewHeight = 872;
var sectionId = 'dynsection-5';
</script>
<script xlink:href="svgpan.js"/>
<svg id="graph" class="graph">
<g id="viewport">
<title>setup</title>
<!-- Node1 -->
<g id="node1" class="node">
<title>Node1</title>
<g id="a_node1"><a xlink:title="Device initialization section after reset.">
<polygon fill="#999999" stroke="#666666" points="41,-685.05 0,-685.05 0,-666.05 41,-666.05 41,-685.05"/>
<text text-anchor="middle" x="20.5" y="-673.05" font-family="Helvetica,sans-Serif" font-size="10.00">setup</text>
</a>
</g>
</g>
<!-- Node2 -->
<g id="node2" class="node">
<title>Node2</title>
<g id="a_node2"><a xlink:href="classssd1306.html#a5f79efa39d47eebc8a0e17cc2a30e4fb" target="_top" xlink:title=" ">
<polygon fill="white" stroke="#666666" points="343,-864.05 260,-864.05 260,-845.05 343,-845.05 343,-864.05"/>
<text text-anchor="middle" x="301.5" y="-852.05" font-family="Helvetica,sans-Serif" font-size="10.00">ssd1306::begin</text>
</a>
</g>
</g>
<!-- Node1&#45;&gt;Node2 -->
<g id="edge1" class="edge">
<title>Node1&#45;&gt;Node2</title>
<path fill="none" stroke="#63b8ff" d="M23.42,-685.15C28.32,-707.11 43.33,-761.36 77,-790.55 125.55,-832.63 200.13,-847.12 249.61,-852.07"/>
<polygon fill="#63b8ff" stroke="#63b8ff" points="249.49,-855.57 259.76,-852.98 250.12,-848.6 249.49,-855.57"/>
</g>
<!-- Node6 -->
<g id="node6" class="node">
<title>Node6</title>
<g id="a_node6"><a xlink:href="main_8cpp.html#ae2676edb74235f0d21ef201ba600636a" target="_top" xlink:title="Interrupt service for the encoder rotation events.">
<polygon fill="white" stroke="#666666" points="165,-781.05 98,-781.05 98,-762.05 165,-762.05 165,-781.05"/>
<text text-anchor="middle" x="131.5" y="-769.05" font-family="Helvetica,sans-Serif" font-size="10.00">encoderISR</text>
</a>
</g>
</g>
<!-- Node1&#45;&gt;Node6 -->
<g id="edge6" class="edge">
<title>Node1&#45;&gt;Node6</title>
<path fill="none" stroke="#63b8ff" d="M25.86,-685.19C33.74,-701.59 51.91,-734.93 77,-753.55 80.45,-756.11 84.29,-758.32 88.29,-760.23"/>
<polygon fill="#63b8ff" stroke="#63b8ff" points="87.2,-763.57 97.78,-764.15 89.87,-757.1 87.2,-763.57"/>
</g>
<!-- Node10 -->
<g id="node10" class="node">
<title>Node10</title>
<g id="a_node10"><a xlink:href="fog_machine_8cpp.html#a9c7fca1e7e26243088ff945475d8ae57" target="_top" xlink:title="Initialize the fog machine( humidifier ).">
<polygon fill="white" stroke="#666666" points="171,-744.05 92,-744.05 92,-725.05 171,-725.05 171,-744.05"/>
<text text-anchor="middle" x="131.5" y="-732.05" font-family="Helvetica,sans-Serif" font-size="10.00">fogMachineInit</text>
</a>
</g>
</g>
<!-- Node1&#45;&gt;Node10 -->
<g id="edge12" class="edge">
<title>Node1&#45;&gt;Node10</title>
<path fill="none" stroke="#63b8ff" d="M32.29,-685.13C43.01,-694.23 60.21,-707.8 77,-716.55 80.28,-718.26 83.75,-719.85 87.29,-721.33"/>
<polygon fill="#63b8ff" stroke="#63b8ff" points="86.14,-724.64 96.73,-724.97 88.66,-718.11 86.14,-724.64"/>
</g>
<!-- Node11 -->
<g id="node11" class="node">
<title>Node11</title>
<g id="a_node11"><a xlink:href="light_control_8cpp.html#a37bc85e65dd8a10e2bc2c2df2c1ca05f" target="_top" xlink:title="Initialize the LEDs.">
<polygon fill="white" stroke="#666666" points="155,-707.05 108,-707.05 108,-688.05 155,-688.05 155,-707.05"/>
<text text-anchor="middle" x="131.5" y="-695.05" font-family="Helvetica,sans-Serif" font-size="10.00">lightInit</text>
</a>
</g>
</g>
<!-- Node1&#45;&gt;Node11 -->
<g id="edge13" class="edge">
<title>Node1&#45;&gt;Node11</title>
<path fill="none" stroke="#63b8ff" d="M41.24,-679.53C57.01,-682.71 79.43,-687.24 97.86,-690.96"/>
<polygon fill="#63b8ff" stroke="#63b8ff" points="97.4,-694.44 107.9,-692.99 98.79,-687.58 97.4,-694.44"/>
</g>
<!-- Node12 -->
<g id="node12" class="node">
<title>Node12</title>
<g id="a_node12"><a xlink:href="classconfiguration_manager.html#a629bdf8057c5fd994baf023dbb36d87c" target="_top" xlink:title="Load configuration from EEPROM.">
<polygon fill="white" stroke="#666666" points="186,-669.55 77,-669.55 77,-639.55 186,-639.55 186,-669.55"/>
<text text-anchor="start" x="85" y="-657.55" font-family="Helvetica,sans-Serif" font-size="10.00">configurationManager</text>
<text text-anchor="middle" x="131.5" y="-646.55" font-family="Helvetica,sans-Serif" font-size="10.00">::loadConfig</text>
</a>
</g>
</g>
<!-- Node1&#45;&gt;Node12 -->
<g id="edge14" class="edge">
<title>Node1&#45;&gt;Node12</title>
<path fill="none" stroke="#63b8ff" d="M41.24,-671.74C48.63,-670.32 57.48,-668.62 66.7,-666.84"/>
<polygon fill="#63b8ff" stroke="#63b8ff" points="67.63,-670.22 76.79,-664.9 66.31,-663.35 67.63,-670.22"/>
</g>
<!-- Node14 -->
<g id="node14" class="node">
<title>Node14</title>
<g id="a_node14"><a xlink:href="menu_8cpp.html#a7f54e3748544f98b538cfbc35d963bb8" target="_top" xlink:title="Initialize the menu system.">
<polygon fill="white" stroke="#666666" points="158,-390.05 105,-390.05 105,-371.05 158,-371.05 158,-390.05"/>
<text text-anchor="middle" x="131.5" y="-378.05" font-family="Helvetica,sans-Serif" font-size="10.00">menuInit</text>
</a>
</g>
</g>
<!-- Node1&#45;&gt;Node14 -->
<g id="edge16" class="edge">
<title>Node1&#45;&gt;Node14</title>
<path fill="none" stroke="#63b8ff" d="M25.13,-665.73C40.74,-623.47 102.41,-456.57 123.43,-399.67"/>
<polygon fill="#63b8ff" stroke="#63b8ff" points="126.79,-400.69 126.97,-390.1 120.22,-398.27 126.79,-400.69"/>
</g>
<!-- Node30 -->
<g id="node30" class="node">
<title>Node30</title>
<g id="a_node30"><a xlink:href="motor_control_8cpp.html#a978983329d511d8ab27545d8badfbd89" target="_top" xlink:title="Initialize the motor.">
<polygon fill="white" stroke="#666666" points="158.5,-56.05 104.5,-56.05 104.5,-37.05 158.5,-37.05 158.5,-56.05"/>
<text text-anchor="middle" x="131.5" y="-44.05" font-family="Helvetica,sans-Serif" font-size="10.00">motorInit</text>
</a>
</g>
</g>
<!-- Node1&#45;&gt;Node30 -->
<g id="edge32" class="edge">
<title>Node1&#45;&gt;Node30</title>
<path fill="none" stroke="#63b8ff" d="M23.17,-665.92C35.3,-595.89 110.01,-164.82 127.04,-66.5"/>
<polygon fill="#63b8ff" stroke="#63b8ff" points="130.53,-66.88 128.79,-56.43 123.63,-65.68 130.53,-66.88"/>
</g>
<!-- Node33 -->
<g id="node33" class="node">
<title>Node33</title>
<g id="a_node33"><a xlink:href="classconfiguration_manager.html#a98840390e246bd6606af1345d54458ec" target="_top" xlink:title="Save configuration to EEPROM.">
<polygon fill="white" stroke="#666666" points="186,-621.55 77,-621.55 77,-591.55 186,-591.55 186,-621.55"/>
<text text-anchor="start" x="85" y="-609.55" font-family="Helvetica,sans-Serif" font-size="10.00">configurationManager</text>
<text text-anchor="middle" x="131.5" y="-598.55" font-family="Helvetica,sans-Serif" font-size="10.00">::saveConfig</text>
</a>
</g>
</g>
<!-- Node1&#45;&gt;Node33 -->
<g id="edge39" class="edge">
<title>Node1&#45;&gt;Node33</title>
<path fill="none" stroke="#63b8ff" d="M31.93,-665.7C42.64,-655.93 60.1,-640.95 77,-630.55 79.44,-629.05 81.99,-627.59 84.59,-626.18"/>
<polygon fill="#63b8ff" stroke="#63b8ff" points="86.27,-629.25 93.59,-621.58 83.09,-623.01 86.27,-629.25"/>
</g>
<!-- Node3 -->
<g id="node3" class="node">
<title>Node3</title>
<g id="a_node3"><a xlink:href="classssd1306.html#ac35fc8ed03a40242a1762ef4139746f5" target="_top" xlink:title=" ">
<polygon fill="white" stroke="#666666" points="508.5,-864.05 428.5,-864.05 428.5,-845.05 508.5,-845.05 508.5,-864.05"/>
<text text-anchor="middle" x="468.5" y="-852.05" font-family="Helvetica,sans-Serif" font-size="10.00">ssd1306::clear</text>
</a>
</g>
</g>
<!-- Node2&#45;&gt;Node3 -->
<g id="edge2" class="edge">
<title>Node2&#45;&gt;Node3</title>
<path fill="none" stroke="#63b8ff" d="M343.29,-854.55C365.9,-854.55 394.18,-854.55 418.05,-854.55"/>
<polygon fill="#63b8ff" stroke="#63b8ff" points="418.32,-858.05 428.32,-854.55 418.32,-851.05 418.32,-858.05"/>
</g>
<!-- Node4 -->
<g id="node4" class="node">
<title>Node4</title>
<g id="a_node4"><a xlink:href="classssd1306.html#a8ef7011e9d60ce7307650365e48e285d" target="_top" xlink:title=" ">
<polygon fill="white" stroke="#666666" points="520,-75.05 417,-75.05 417,-56.05 520,-56.05 520,-75.05"/>
<text text-anchor="middle" x="468.5" y="-63.05" font-family="Helvetica,sans-Serif" font-size="10.00">ssd1306::displayOn</text>
</a>
</g>
</g>
<!-- Node2&#45;&gt;Node4 -->
<g id="edge3" class="edge">
<title>Node2&#45;&gt;Node4</title>
<path fill="none" stroke="#63b8ff" d="M343.35,-854.5C357.24,-852.32 371.61,-847.28 381,-836.55 438.31,-771.04 407.28,-533.04 417,-446.55 432.58,-307.9 456.4,-141.57 464.6,-85.27"/>
<polygon fill="#63b8ff" stroke="#63b8ff" points="468.09,-85.65 466.07,-75.25 461.16,-84.63 468.09,-85.65"/>
</g>
<!-- Node5 -->
<g id="node5" class="node">
<title>Node5</title>
<g id="a_node5"><a xlink:href="classssd1306.html#aefa5eaf22de34a236f038ee2f1528d18" target="_top" xlink:title=" ">
<polygon fill="white" stroke="#666666" points="680,-75.05 556,-75.05 556,-56.05 680,-56.05 680,-75.05"/>
<text text-anchor="middle" x="618" y="-63.05" font-family="Helvetica,sans-Serif" font-size="10.00">ssd1306::writeCommand</text>
</a>
</g>
</g>
<!-- Node2&#45;&gt;Node5 -->
<g id="edge5" class="edge">
<title>Node2&#45;&gt;Node5</title>
<path fill="none" stroke="#63b8ff" d="M343.02,-853.25C356.55,-850.9 370.77,-846.07 381,-836.55 612.88,-620.71 619.22,-183.98 617.57,-85.56"/>
<polygon fill="#63b8ff" stroke="#63b8ff" points="621.06,-85.19 617.34,-75.27 614.07,-85.34 621.06,-85.19"/>
</g>
<!-- Node4&#45;&gt;Node5 -->
<g id="edge4" class="edge">
<title>Node4&#45;&gt;Node5</title>
<path fill="none" stroke="#63b8ff" d="M520.26,-65.55C528.53,-65.55 537.22,-65.55 545.87,-65.55"/>
<polygon fill="#63b8ff" stroke="#63b8ff" points="545.96,-69.05 555.96,-65.55 545.96,-62.05 545.96,-69.05"/>
</g>
<!-- Node7 -->
<g id="node7" class="node">
<title>Node7</title>
<g id="a_node7"><a xlink:href="classmenu.html#aa570579eea43a7810230472ee28b873a" target="_top" xlink:title="Step te menu downwards if possible.">
<polygon fill="white" stroke="#666666" points="336,-809.05 267,-809.05 267,-790.05 336,-790.05 336,-809.05"/>
<text text-anchor="middle" x="301.5" y="-797.05" font-family="Helvetica,sans-Serif" font-size="10.00">menu::down</text>
</a>
</g>
</g>
<!-- Node6&#45;&gt;Node7 -->
<g id="edge7" class="edge">
<title>Node6&#45;&gt;Node7</title>
<path fill="none" stroke="#63b8ff" d="M165.29,-777.01C191.4,-781.36 228.18,-787.5 256.79,-792.26"/>
<polygon fill="#63b8ff" stroke="#63b8ff" points="256.49,-795.76 266.93,-793.95 257.64,-788.86 256.49,-795.76"/>
</g>
<!-- Node8 -->
<g id="node8" class="node">
<title>Node8</title>
<g id="a_node8"><a xlink:href="buzzer_control_8cpp.html#a0d69ac845e7ec3529999488f019097af" target="_top" xlink:title="Generate encoder rotate sound.">
<polygon fill="white" stroke="#666666" points="355,-772.05 248,-772.05 248,-753.05 355,-753.05 355,-772.05"/>
<text text-anchor="middle" x="301.5" y="-760.05" font-family="Helvetica,sans-Serif" font-size="10.00">encoderRotateSound</text>
</a>
</g>
</g>
<!-- Node6&#45;&gt;Node8 -->
<g id="edge9" class="edge">
<title>Node6&#45;&gt;Node8</title>
<path fill="none" stroke="#63b8ff" d="M165.29,-769.79C185.94,-768.69 213.26,-767.22 237.93,-765.9"/>
<polygon fill="#63b8ff" stroke="#63b8ff" points="238.16,-769.39 247.96,-765.36 237.78,-762.4 238.16,-769.39"/>
</g>
<!-- Node9 -->
<g id="node9" class="node">
<title>Node9</title>
<g id="a_node9"><a xlink:href="classmenu.html#a87a6a695240e84646f5f92a6f764b7e9" target="_top" xlink:title="Step te menu upwards if possible.">
<polygon fill="white" stroke="#666666" points="330,-717.05 273,-717.05 273,-698.05 330,-698.05 330,-717.05"/>
<text text-anchor="middle" x="301.5" y="-705.05" font-family="Helvetica,sans-Serif" font-size="10.00">menu::up</text>
</a>
</g>
</g>
<!-- Node6&#45;&gt;Node9 -->
<g id="edge10" class="edge">
<title>Node6&#45;&gt;Node9</title>
<path fill="none" stroke="#63b8ff" d="M161.76,-762.04C169.66,-759.38 178.18,-756.43 186,-753.55 214.01,-743.22 245.46,-730.5 268.3,-721.06"/>
<polygon fill="#63b8ff" stroke="#63b8ff" points="269.95,-724.17 277.84,-717.1 267.26,-717.7 269.95,-724.17"/>
</g>
<!-- Node7&#45;&gt;Node7 -->
<g id="edge8" class="edge">
<title>Node7&#45;&gt;Node7</title>
<path fill="none" stroke="#63b8ff" d="M275.91,-809.13C263.47,-817.78 272,-827.05 301.5,-827.05 320.86,-827.05 331.19,-823.06 332.49,-817.87"/>
<polygon fill="#63b8ff" stroke="#63b8ff" points="335.32,-815.8 327.09,-809.13 329.37,-819.48 335.32,-815.8"/>
</g>
<!-- Node9&#45;&gt;Node9 -->
<g id="edge11" class="edge">
<title>Node9&#45;&gt;Node9</title>
<path fill="none" stroke="#63b8ff" d="M275.91,-717.13C263.47,-725.78 272,-735.05 301.5,-735.05 320.86,-735.05 331.19,-731.06 332.49,-725.87"/>
<polygon fill="#63b8ff" stroke="#63b8ff" points="335.32,-723.8 327.09,-717.13 329.37,-727.48 335.32,-723.8"/>
</g>
<!-- Node13 -->
<g id="node13" class="node">
<title>Node13</title>
<g id="a_node13"><a xlink:href="classconfiguration_manager.html#a5ca29572d941838b46df0dcb0ab811f3" target="_top" xlink:title="Maxim like crc&#45;8.">
<polygon fill="white" stroke="#666666" points="356,-679.55 247,-679.55 247,-649.55 356,-649.55 356,-679.55"/>
<text text-anchor="start" x="255" y="-667.55" font-family="Helvetica,sans-Serif" font-size="10.00">configurationManager</text>
<text text-anchor="middle" x="301.5" y="-656.55" font-family="Helvetica,sans-Serif" font-size="10.00">::crcFeed</text>
</a>
</g>
</g>
<!-- Node12&#45;&gt;Node13 -->
<g id="edge15" class="edge">
<title>Node12&#45;&gt;Node13</title>
<path fill="none" stroke="#63b8ff" d="M186.12,-657.74C202.18,-658.7 219.96,-659.75 236.61,-660.75"/>
<polygon fill="#63b8ff" stroke="#63b8ff" points="236.62,-664.25 246.82,-661.35 237.04,-657.26 236.62,-664.25"/>
</g>
<!-- Node15 -->
<g id="node15" class="node">
<title>Node15</title>
<g id="a_node15"><a xlink:href="menu_8cpp.html#a05c76b51924f5f8f4ef70cae6d07eb90" target="_top" xlink:title="Draw override for brightness selection.">
<polygon fill="white" stroke="#666666" points="376,-631.05 227,-631.05 227,-612.05 376,-612.05 376,-631.05"/>
<text text-anchor="middle" x="301.5" y="-619.05" font-family="Helvetica,sans-Serif" font-size="10.00">brightnessSelectDrawFunction</text>
</a>
</g>
</g>
<!-- Node14&#45;&gt;Node15 -->
<g id="edge17" class="edge">
<title>Node14&#45;&gt;Node15</title>
<path fill="none" stroke="#63b8ff" d="M133.31,-390.4C136.73,-425.4 153.19,-544.73 222,-603.55 223.35,-604.7 224.76,-605.79 226.22,-606.81"/>
<polygon fill="#63b8ff" stroke="#63b8ff" points="224.67,-609.95 235.08,-611.95 228.19,-603.9 224.67,-609.95"/>
</g>
<!-- Node16 -->
<g id="node16" class="node">
<title>Node16</title>
<g id="a_node16"><a xlink:href="menu_8cpp.html#a2b016118a0e096dd41f9217dc9cff74b" target="_top" xlink:title="Behaviour override for brightness selection.">
<polygon fill="white" stroke="#666666" points="365,-594.05 238,-594.05 238,-575.05 365,-575.05 365,-594.05"/>
<text text-anchor="middle" x="301.5" y="-582.05" font-family="Helvetica,sans-Serif" font-size="10.00">brightnessSelectFunction</text>
</a>
</g>
</g>
<!-- Node14&#45;&gt;Node16 -->
<g id="edge18" class="edge">
<title>Node14&#45;&gt;Node16</title>
<path fill="none" stroke="#63b8ff" d="M134.1,-390.06C139.8,-420.87 162.07,-518.69 222,-566.55 224.06,-568.19 226.23,-569.69 228.5,-571.05"/>
<polygon fill="#63b8ff" stroke="#63b8ff" points="227.16,-574.29 237.66,-575.69 230.32,-568.05 227.16,-574.29"/>
</g>
<!-- Node17 -->
<g id="node17" class="node">
<title>Node17</title>
<g id="a_node17"><a xlink:href="menu_8cpp.html#a7b11962e0299f94228c9156915a69ee5" target="_top" xlink:title="Behaviour override for buzzer menu.">
<polygon fill="white" stroke="#666666" points="374.5,-557.05 228.5,-557.05 228.5,-538.05 374.5,-538.05 374.5,-557.05"/>
<text text-anchor="middle" x="301.5" y="-545.05" font-family="Helvetica,sans-Serif" font-size="10.00">buzzerMenuSelectedFunction</text>
</a>
</g>
</g>
<!-- Node14&#45;&gt;Node17 -->
<g id="edge19" class="edge">
<title>Node14&#45;&gt;Node17</title>
<path fill="none" stroke="#63b8ff" d="M135.4,-390.41C143.86,-417.36 171.2,-492.69 222,-529.55 223.89,-530.92 225.86,-532.18 227.9,-533.35"/>
<polygon fill="#63b8ff" stroke="#63b8ff" points="226.69,-536.66 237.21,-537.91 229.77,-530.37 226.69,-536.66"/>
</g>
<!-- Node18 -->
<g id="node18" class="node">
<title>Node18</title>
<g id="a_node18"><a xlink:href="menu_8cpp.html#a6c110f4f0e90ee77f942f14ee7ffb81b" target="_top" xlink:title="Behaviour override for candle menu select.">
<polygon fill="white" stroke="#666666" points="368.5,-520.05 234.5,-520.05 234.5,-501.05 368.5,-501.05 368.5,-520.05"/>
<text text-anchor="middle" x="301.5" y="-508.05" font-family="Helvetica,sans-Serif" font-size="10.00">candleMenuSelectFunction</text>
</a>
</g>
</g>
<!-- Node14&#45;&gt;Node18 -->
<g id="edge20" class="edge">
<title>Node14&#45;&gt;Node18</title>
<path fill="none" stroke="#63b8ff" d="M137.25,-390.15C148.62,-412.07 179.64,-465.93 222,-492.55 224.64,-494.21 227.41,-495.71 230.28,-497.08"/>
<polygon fill="#63b8ff" stroke="#63b8ff" points="229.11,-500.38 239.69,-500.99 231.8,-493.92 229.11,-500.38"/>
</g>
<!-- Node19 -->
<g id="node19" class="node">
<title>Node19</title>
<g id="a_node19"><a xlink:href="menu_8cpp.html#a3c3d956aca28de46741cd6e5db5ffaee" target="_top" xlink:title="Behaviour override for clap menu.">
<polygon fill="white" stroke="#666666" points="368.5,-483.05 234.5,-483.05 234.5,-464.05 368.5,-464.05 368.5,-483.05"/>
<text text-anchor="middle" x="301.5" y="-471.05" font-family="Helvetica,sans-Serif" font-size="10.00">clapMenuSelectedFunction</text>
</a>
</g>
</g>
<!-- Node14&#45;&gt;Node19 -->
<g id="edge21" class="edge">
<title>Node14&#45;&gt;Node19</title>
<path fill="none" stroke="#63b8ff" d="M141.1,-390.28C155.95,-406.43 188.06,-438.67 222,-455.55 225.98,-457.53 230.18,-459.29 234.49,-460.87"/>
<polygon fill="#63b8ff" stroke="#63b8ff" points="233.46,-464.21 244.05,-464.02 235.65,-457.56 233.46,-464.21"/>
</g>
<!-- Node20 -->
<g id="node20" class="node">
<title>Node20</title>
<g id="a_node20"><a xlink:href="menu_8cpp.html#ac022544e45c7f043d12d0951547249a1" target="_top" xlink:title="Behaviour override for color mode menu.">
<polygon fill="white" stroke="#666666" points="365,-446.05 238,-446.05 238,-427.05 365,-427.05 365,-446.05"/>
<text text-anchor="middle" x="301.5" y="-434.05" font-family="Helvetica,sans-Serif" font-size="10.00">colorMenuSelectFunction</text>
</a>
</g>
</g>
<!-- Node14&#45;&gt;Node20 -->
<g id="edge22" class="edge">
<title>Node14&#45;&gt;Node20</title>
<path fill="none" stroke="#63b8ff" d="M152.37,-390.18C170.26,-398.57 197.43,-410.58 222,-418.55 228.77,-420.74 235.94,-422.77 243.1,-424.62"/>
<polygon fill="#63b8ff" stroke="#63b8ff" points="242.26,-428.02 252.81,-427.03 243.95,-421.23 242.26,-428.02"/>
</g>
<!-- Node21 -->
<g id="node21" class="node">
<title>Node21</title>
<g id="a_node21"><a xlink:href="menu_8cpp.html#aa6c25806baf4bb6f997ffd124d95d7a9" target="_top" xlink:title="Draw override for color select menu.">
<polygon fill="white" stroke="#666666" points="364,-409.05 239,-409.05 239,-390.05 364,-390.05 364,-409.05"/>
<text text-anchor="middle" x="301.5" y="-397.05" font-family="Helvetica,sans-Serif" font-size="10.00">colorSelectDrawFunction</text>
</a>
</g>
</g>
<!-- Node14&#45;&gt;Node21 -->
<g id="edge23" class="edge">
<title>Node14&#45;&gt;Node21</title>
<path fill="none" stroke="#63b8ff" d="M158.02,-383.43C176.81,-385.56 203.37,-388.56 228.47,-391.4"/>
<polygon fill="#63b8ff" stroke="#63b8ff" points="228.41,-394.92 238.74,-392.56 229.19,-387.96 228.41,-394.92"/>
</g>
<!-- Node22 -->
<g id="node22" class="node">
<title>Node22</title>
<g id="a_node22"><a xlink:href="menu_8cpp.html#a43e28b685319d16ec59e9d329fa5877e" target="_top" xlink:title="Behaviour override for color select menu.">
<polygon fill="white" stroke="#666666" points="353,-372.05 250,-372.05 250,-353.05 353,-353.05 353,-372.05"/>
<text text-anchor="middle" x="301.5" y="-360.05" font-family="Helvetica,sans-Serif" font-size="10.00">colorSelectFunction</text>
</a>
</g>
</g>
<!-- Node14&#45;&gt;Node22 -->
<g id="edge24" class="edge">
<title>Node14&#45;&gt;Node22</title>
<path fill="none" stroke="#63b8ff" d="M158.02,-377.81C179.68,-375.49 211.65,-372.07 239.82,-369.05"/>
<polygon fill="#63b8ff" stroke="#63b8ff" points="240.43,-372.5 250,-367.96 239.68,-365.54 240.43,-372.5"/>
</g>
<!-- Node23 -->
<g id="node23" class="node">
<title>Node23</title>
<g id="a_node23"><a xlink:href="menu_8cpp.html#a77a90a3a2ffabdf0a5b3a4a3cf00a9f0" target="_top" xlink:title=" ">
<polygon fill="white" stroke="#666666" points="381,-335.05 222,-335.05 222,-316.05 381,-316.05 381,-335.05"/>
<text text-anchor="middle" x="301.5" y="-323.05" font-family="Helvetica,sans-Serif" font-size="10.00">fogEnableMenuSelectedFunction</text>
</a>
</g>
</g>
<!-- Node14&#45;&gt;Node23 -->
<g id="edge25" class="edge">
<title>Node14&#45;&gt;Node23</title>
<path fill="none" stroke="#63b8ff" d="M153.88,-370.93C171.81,-363.11 198.23,-352.16 222,-344.55 229.78,-342.05 238.09,-339.71 246.29,-337.58"/>
<polygon fill="#63b8ff" stroke="#63b8ff" points="247.34,-340.92 256.18,-335.09 245.63,-334.14 247.34,-340.92"/>
</g>
<!-- Node24 -->
<g id="node24" class="node">
<title>Node24</title>
<g id="a_node24"><a xlink:href="menu_8cpp.html#a88d2dece762e3b85d4aa7b2182ce26e9" target="_top" xlink:title="Draw override for fog timer setting.">
<polygon fill="white" stroke="#666666" points="371.5,-298.05 231.5,-298.05 231.5,-279.05 371.5,-279.05 371.5,-298.05"/>
<text text-anchor="middle" x="301.5" y="-286.05" font-family="Helvetica,sans-Serif" font-size="10.00">fogTimerSelectDrawFunction</text>
</a>
</g>
</g>
<!-- Node14&#45;&gt;Node24 -->
<g id="edge26" class="edge">
<title>Node14&#45;&gt;Node24</title>
<path fill="none" stroke="#63b8ff" d="M141.42,-370.88C156.49,-355.15 188.6,-324.13 222,-307.55 226.87,-305.13 232.06,-303.01 237.37,-301.15"/>
<polygon fill="#63b8ff" stroke="#63b8ff" points="238.53,-304.45 247,-298.08 236.41,-297.79 238.53,-304.45"/>
</g>
<!-- Node25 -->
<g id="node25" class="node">
<title>Node25</title>
<g id="a_node25"><a xlink:href="menu_8cpp.html#a9e1e416e4818382df8d39d0125d210f5" target="_top" xlink:title="Behaviour override for fog timer setting menu.">
<polygon fill="white" stroke="#666666" points="361,-261.05 242,-261.05 242,-242.05 361,-242.05 361,-261.05"/>
<text text-anchor="middle" x="301.5" y="-249.05" font-family="Helvetica,sans-Serif" font-size="10.00">fogTimerSelectFunction</text>
</a>
</g>
</g>
<!-- Node14&#45;&gt;Node25 -->
<g id="edge27" class="edge">
<title>Node14&#45;&gt;Node25</title>
<path fill="none" stroke="#63b8ff" d="M137.5,-370.83C149.15,-349.18 180.35,-296.81 222,-270.55 225.37,-268.42 228.97,-266.53 232.69,-264.85"/>
<polygon fill="#63b8ff" stroke="#63b8ff" points="234.14,-268.04 242.15,-261.11 231.56,-261.53 234.14,-268.04"/>
</g>
<!-- Node26 -->
<g id="node26" class="node">
<title>Node26</title>
<g id="a_node26"><a xlink:href="menu_8cpp.html#a1970379f59b8760eecae1c62b524dc48" target="_top" xlink:title="Behaviour override for komodo menu select.">
<polygon fill="white" stroke="#666666" points="371.5,-224.05 231.5,-224.05 231.5,-205.05 371.5,-205.05 371.5,-224.05"/>
<text text-anchor="middle" x="301.5" y="-212.05" font-family="Helvetica,sans-Serif" font-size="10.00">komodoMenuSelectFunction</text>
</a>
</g>
</g>
<!-- Node14&#45;&gt;Node26 -->
<g id="edge28" class="edge">
<title>Node14&#45;&gt;Node26</title>
<path fill="none" stroke="#63b8ff" d="M135.47,-370.85C144.09,-344.33 171.81,-270.2 222,-233.55 224.66,-231.6 227.5,-229.86 230.45,-228.29"/>
<polygon fill="#63b8ff" stroke="#63b8ff" points="231.98,-231.44 239.61,-224.09 229.06,-225.07 231.98,-231.44"/>
</g>
<!-- Node27 -->
<g id="node27" class="node">
<title>Node27</title>
<g id="a_node27"><a xlink:href="menu_8cpp.html#af63afc520dcef97967678aa6dbc973b9" target="_top" xlink:title="Behaviour override for music menu select.">
<polygon fill="white" stroke="#666666" points="367.5,-187.05 235.5,-187.05 235.5,-168.05 367.5,-168.05 367.5,-187.05"/>
<text text-anchor="middle" x="301.5" y="-175.05" font-family="Helvetica,sans-Serif" font-size="10.00">musicMenuSelectFunction</text>
</a>
</g>
</g>
<!-- Node14&#45;&gt;Node27 -->
<g id="edge29" class="edge">
<title>Node14&#45;&gt;Node27</title>
<path fill="none" stroke="#63b8ff" d="M134.24,-370.73C140.24,-339.87 163.06,-243.99 222,-196.55 224.18,-194.79 226.49,-193.2 228.91,-191.75"/>
<polygon fill="#63b8ff" stroke="#63b8ff" points="230.72,-194.75 238.05,-187.1 227.55,-188.51 230.72,-194.75"/>
</g>
<!-- Node28 -->
<g id="node28" class="node">
<title>Node28</title>
<g id="a_node28"><a xlink:href="menu_8cpp.html#a910a5811ac94710f8ddf95ba54708324" target="_top" xlink:title="Behaviour override for pulse menu select.">
<polygon fill="white" stroke="#666666" points="366,-150.05 237,-150.05 237,-131.05 366,-131.05 366,-150.05"/>
<text text-anchor="middle" x="301.5" y="-138.05" font-family="Helvetica,sans-Serif" font-size="10.00">pulseMenuSelectFunction</text>
</a>
</g>
</g>
<!-- Node14&#45;&gt;Node28 -->
<g id="edge30" class="edge">
<title>Node14&#45;&gt;Node28</title>
<path fill="none" stroke="#63b8ff" d="M133.36,-370.81C136.97,-336.22 153.98,-218.22 222,-159.55 223.95,-157.87 226.03,-156.33 228.2,-154.92"/>
<polygon fill="#63b8ff" stroke="#63b8ff" points="229.89,-157.98 236.99,-150.12 226.54,-151.84 229.89,-157.98"/>
</g>
<!-- Node29 -->
<g id="node29" class="node">
<title>Node29</title>
<g id="a_node29"><a xlink:href="menu_8cpp.html#ae0e8c5d7972d85144e7f0121104c75a1" target="_top" xlink:title="Behaviour override for rainbow menu select.">
<polygon fill="white" stroke="#666666" points="371,-113.05 232,-113.05 232,-94.05 371,-94.05 371,-113.05"/>
<text text-anchor="middle" x="301.5" y="-101.05" font-family="Helvetica,sans-Serif" font-size="10.00">rainbowMenuSelectFunction</text>
</a>
</g>
</g>
<!-- Node14&#45;&gt;Node29 -->
<g id="edge31" class="edge">
<title>Node14&#45;&gt;Node29</title>
<path fill="none" stroke="#63b8ff" d="M132.73,-370.84C134.18,-332.81 144.78,-192.66 222,-122.55 223.73,-120.98 225.57,-119.53 227.49,-118.2"/>
<polygon fill="#63b8ff" stroke="#63b8ff" points="229.48,-121.09 236.4,-113.06 225.99,-115.02 229.48,-121.09"/>
</g>
<!-- Node30&#45;&gt;Node4 -->
<g id="edge38" class="edge">
<title>Node30&#45;&gt;Node4</title>
<path fill="none" stroke="#63b8ff" d="M158.51,-48.02C211.44,-51.03 332.91,-57.91 406.81,-62.11"/>
<polygon fill="#63b8ff" stroke="#63b8ff" points="406.72,-65.61 416.91,-62.68 407.12,-58.62 406.72,-65.61"/>
</g>
<!-- Node31 -->
<g id="node31" class="node">
<title>Node31</title>
<g id="a_node31"><a xlink:href="motor_control_8cpp.html#a3edea24b195ca992810885fdec367a5b" target="_top" xlink:title="Close the font.">
<polygon fill="white" stroke="#666666" points="332.5,-37.05 270.5,-37.05 270.5,-18.05 332.5,-18.05 332.5,-37.05"/>
<text text-anchor="middle" x="301.5" y="-25.05" font-family="Helvetica,sans-Serif" font-size="10.00">closeFront</text>
</a>
</g>
</g>
<!-- Node30&#45;&gt;Node31 -->
<g id="edge33" class="edge">
<title>Node30&#45;&gt;Node31</title>
<path fill="none" stroke="#63b8ff" d="M158.75,-43.58C185.95,-40.5 228.79,-35.66 260.27,-32.1"/>
<polygon fill="#63b8ff" stroke="#63b8ff" points="260.92,-35.55 270.46,-30.94 260.13,-28.59 260.92,-35.55"/>
</g>
<!-- Node32 -->
<g id="node32" class="node">
<title>Node32</title>
<g id="a_node32"><a xlink:href="classssd1306.html#a5062186eb98a5bb66a009d232b143172" target="_top" xlink:title=" ">
<polygon fill="white" stroke="#666666" points="519.5,-37.05 417.5,-37.05 417.5,-18.05 519.5,-18.05 519.5,-37.05"/>
<text text-anchor="middle" x="468.5" y="-25.05" font-family="Helvetica,sans-Serif" font-size="10.00">ssd1306::displayOff</text>
</a>
</g>
</g>
<!-- Node30&#45;&gt;Node32 -->
<g id="edge37" class="edge">
<title>Node30&#45;&gt;Node32</title>
<path fill="none" stroke="#63b8ff" d="M149.33,-36.97C166.83,-27.6 195.37,-13.97 222,-8.55 291.25,5.54 310.75,-0.92 381,-8.55 394.64,-10.03 409.29,-12.79 422.57,-15.75"/>
<polygon fill="#63b8ff" stroke="#63b8ff" points="421.9,-19.19 432.43,-18.04 423.48,-12.37 421.9,-19.19"/>
</g>
<!-- Node31&#45;&gt;Node4 -->
<g id="edge36" class="edge">
<title>Node31&#45;&gt;Node4</title>
<path fill="none" stroke="#63b8ff" d="M332.76,-34.52C356.13,-39.9 388.99,-47.47 416.41,-53.78"/>
<polygon fill="#63b8ff" stroke="#63b8ff" points="415.71,-57.21 426.24,-56.05 417.28,-50.39 415.71,-57.21"/>
</g>
<!-- Node31&#45;&gt;Node32 -->
<g id="edge34" class="edge">
<title>Node31&#45;&gt;Node32</title>
<path fill="none" stroke="#63b8ff" d="M332.76,-27.55C353.53,-27.55 381.81,-27.55 407.09,-27.55"/>
<polygon fill="#63b8ff" stroke="#63b8ff" points="407.34,-31.05 417.34,-27.55 407.34,-24.05 407.34,-31.05"/>
</g>
<!-- Node32&#45;&gt;Node5 -->
<g id="edge35" class="edge">
<title>Node32&#45;&gt;Node5</title>
<path fill="none" stroke="#63b8ff" d="M506.72,-37.14C526.01,-42.11 549.76,-48.22 570.27,-53.51"/>
<polygon fill="#63b8ff" stroke="#63b8ff" points="569.49,-56.92 580.05,-56.03 571.24,-50.14 569.49,-56.92"/>
</g>
<!-- Node33&#45;&gt;Node13 -->
<g id="edge40" class="edge">
<title>Node33&#45;&gt;Node13</title>
<path fill="none" stroke="#63b8ff" d="M170.62,-621.67C186.43,-627.77 205.02,-634.73 222,-640.55 227.84,-642.55 233.95,-644.56 240.07,-646.52"/>
<polygon fill="#63b8ff" stroke="#63b8ff" points="239.08,-649.87 249.67,-649.55 241.19,-643.2 239.08,-649.87"/>
</g>
</g>
</svg>
        <g id="navigator" transform="translate(0 0)" fill="#404254">
                <rect fill="#f2f5e9" fill-opacity="0.5" stroke="#606060" stroke-width=".5" x="0" y="0" width="60" height="60"/>
                <use id="zoomplus" xlink:href="#zoomPlus" x="17" y="9" onmousedown="handleZoom(evt,'in')"/>
                <use id="zoomminus" xlink:href="#zoomMin" x="42" y="9" onmousedown="handleZoom(evt,'out')"/>
                <use id="reset" xlink:href="#resetDef" x="30" y="36" onmousedown="handleReset()"/>
                <g id="arrowUp" xlink:href="#dirArrow" transform="translate(30 24)" onmousedown="handlePan(0,-1)">
                  <use xlink:href="#rim" fill="#404040">
                        <set attributeName="fill" to="#808080" begin="arrowUp.mouseover" end="arrowUp.mouseout"/>
                  </use>
                  <path fill="none" stroke="white" stroke-width="1.5" d="M0,-3.0v7 M-2.5,-0.5L0,-3.0L2.5,-0.5"/>
                </g>
                <g id="arrowRight" xlink:href="#dirArrow" transform="rotate(90) translate(36 -43)" onmousedown="handlePan(1,0)">
                  <use xlink:href="#rim" fill="#404040">
                        <set attributeName="fill" to="#808080" begin="arrowRight.mouseover" end="arrowRight.mouseout"/>
                  </use>
                  <path fill="none" stroke="white" stroke-width="1.5" d="M0,-3.0v7 M-2.5,-0.5L0,-3.0L2.5,-0.5"/>
                </g>
                <g id="arrowDown" xlink:href="#dirArrow" transform="rotate(180) translate(-30 -48)" onmousedown="handlePan(0,1)">
                  <use xlink:href="#rim" fill="#404040">
                        <set attributeName="fill" to="#808080" begin="arrowDown.mouseover" end="arrowDown.mouseout"/>
                  </use>
                  <path fill="none" stroke="white" stroke-width="1.5" d="M0,-3.0v7 M-2.5,-0.5L0,-3.0L2.5,-0.5"/>
                </g>
                <g id="arrowLeft" xlink:href="#dirArrow" transform="rotate(270) translate(-36 17)" onmousedown="handlePan(-1,0)">
                  <use xlink:href="#rim" fill="#404040">
                        <set attributeName="fill" to="#808080" begin="arrowLeft.mouseover" end="arrowLeft.mouseout"/>
                  </use>
                  <path fill="none" stroke="white" stroke-width="1.5" d="M0,-3.0v7 M-2.5,-0.5L0,-3.0L2.5,-0.5"/>
                </g>
        </g>
        <svg viewBox="0 0 15 15" width="100%" height="30px" preserveAspectRatio="xMaxYMin meet">
         <g id="arrow_out" transform="scale(0.3 0.3)">
          <a xlink:href="main_8cpp_a4fc01d736fe50cf5b977f755b675f11d_cgraph_org.svg" target="_base">
           <rect id="button" ry="5" rx="5" y="6" x="6" height="38" width="38"
                fill="#f2f5e9" fill-opacity="0.5" stroke="#606060" stroke-width="1.0"/>
           <path id="arrow"
             d="M 11.500037,31.436501 C 11.940474,20.09759 22.043105,11.32322 32.158766,21.979434 L 37.068811,17.246167 C 37.068811,17.246167 37.088388,32 37.088388,32 L 22.160133,31.978069 C 22.160133,31.978069 26.997745,27.140456 26.997745,27.140456 C 18.528582,18.264221 13.291696,25.230495 11.500037,31.436501 z"
             style="fill:#404040;"/>
          </a>
         </g>
        </svg>
</svg>
