<?xml version="1.0" encoding="UTF-8" standalone="no"?>
<!DOCTYPE svg PUBLIC "-//W3C//DTD SVG 1.1//EN"
 "http://www.w3.org/Graphics/SVG/1.1/DTD/svg11.dtd">
<!-- Generated by graphviz version 5.0.1 (20220820.1526)
 -->
<!-- Title: encoderButtonUpdate Pages: 1 -->
<svg width="568pt" height="316pt"
 viewBox="0.00 0.00 568.00 316.00" xmlns="http://www.w3.org/2000/svg" xmlns:xlink="http://www.w3.org/1999/xlink">
<g id="graph0" class="graph" transform="scale(1 1) rotate(0) translate(4 312)">
<title>encoderButtonUpdate</title>
<!-- Node1 -->
<g id="node1" class="node">
<title>Node1</title>
<g id="a_node1"><a xlink:title="This function handles the button press detection.">
<polygon fill="#999999" stroke="#666666" points="110,-160 0,-160 0,-141 110,-141 110,-160"/>
<text text-anchor="middle" x="55" y="-148" font-family="Helvetica,sans-Serif" font-size="10.00">encoderButtonUpdate</text>
</a>
</g>
</g>
<!-- Node2 -->
<g id="node2" class="node">
<title>Node2</title>
<g id="a_node2"><a xlink:href="buzzer_control_8cpp.html#a5864c94f53494adcbc834a0ba15395a4" target="_top" xlink:title="Generate button click sound.">
<polygon fill="white" stroke="#666666" points="247,-308 154,-308 154,-289 247,-289 247,-308"/>
<text text-anchor="middle" x="200.5" y="-296" font-family="Helvetica,sans-Serif" font-size="10.00">buttonClickSound</text>
</a>
</g>
</g>
<!-- Node1&#45;&gt;Node2 -->
<g id="edge1" class="edge">
<title>Node1&#45;&gt;Node2</title>
<path fill="none" stroke="#63b8ff" d="M60.09,-160.25C70.67,-184.27 101.25,-246.84 146,-280.5 147.85,-281.89 149.8,-283.17 151.84,-284.36"/>
<polygon fill="#63b8ff" stroke="#63b8ff" points="150.63,-287.67 161.15,-288.98 153.75,-281.4 150.63,-287.67"/>
</g>
<!-- Node3 -->
<g id="node3" class="node">
<title>Node3</title>
<g id="a_node3"><a xlink:href="motor_control_8cpp.html#a3edea24b195ca992810885fdec367a5b" target="_top" xlink:title="Close the font.">
<polygon fill="white" stroke="#666666" points="231.5,-105 169.5,-105 169.5,-86 231.5,-86 231.5,-105"/>
<text text-anchor="middle" x="200.5" y="-93" font-family="Helvetica,sans-Serif" font-size="10.00">closeFront</text>
</a>
</g>
</g>
<!-- Node1&#45;&gt;Node3 -->
<g id="edge2" class="edge">
<title>Node1&#45;&gt;Node3</title>
<path fill="none" stroke="#63b8ff" d="M78.03,-140.97C96.16,-133.24 122.58,-122.24 146,-113.5 150.58,-111.79 155.4,-110.06 160.21,-108.39"/>
<polygon fill="#63b8ff" stroke="#63b8ff" points="161.62,-111.61 169.94,-105.06 159.35,-104.99 161.62,-111.61"/>
</g>
<!-- Node7 -->
<g id="node7" class="node">
<title>Node7</title>
<g id="a_node7"><a xlink:href="light_control_8cpp.html#a917dd43e7776a36541f1689c14266d8c" target="_top" xlink:title="Toggle the lighting.">
<polygon fill="white" stroke="#666666" points="232,-271 169,-271 169,-252 232,-252 232,-271"/>
<text text-anchor="middle" x="200.5" y="-259" font-family="Helvetica,sans-Serif" font-size="10.00">lightToggle</text>
</a>
</g>
</g>
<!-- Node1&#45;&gt;Node7 -->
<g id="edge7" class="edge">
<title>Node1&#45;&gt;Node7</title>
<path fill="none" stroke="#63b8ff" d="M62.79,-160.13C76.46,-178.82 109.14,-220.23 146,-243.5 150.13,-246.11 154.69,-248.39 159.34,-250.36"/>
<polygon fill="#63b8ff" stroke="#63b8ff" points="158.34,-253.72 168.93,-253.99 160.82,-247.18 158.34,-253.72"/>
</g>
<!-- Node10 -->
<g id="node10" class="node">
<title>Node10</title>
<g id="a_node10"><a xlink:href="classmenu.html#aa90b85d7aa5ddfa761e7cb8f9e83da93" target="_top" xlink:title="Enter to the next menu if possible.">
<polygon fill="white" stroke="#666666" points="233,-179 168,-179 168,-160 233,-160 233,-179"/>
<text text-anchor="middle" x="200.5" y="-167" font-family="Helvetica,sans-Serif" font-size="10.00">menu::next</text>
</a>
</g>
</g>
<!-- Node1&#45;&gt;Node10 -->
<g id="edge10" class="edge">
<title>Node1&#45;&gt;Node10</title>
<path fill="none" stroke="#63b8ff" d="M110.25,-157.68C125.83,-159.75 142.59,-161.97 157.33,-163.92"/>
<polygon fill="#63b8ff" stroke="#63b8ff" points="157.29,-167.44 167.66,-165.28 158.2,-160.5 157.29,-167.44"/>
</g>
<!-- Node11 -->
<g id="node11" class="node">
<title>Node11</title>
<g id="a_node11"><a xlink:href="buzzer_control_8cpp.html#a7e4caa5e23b84269cfee1710ff391d81" target="_top" xlink:title="Generate open&#45;close melody.">
<polygon fill="white" stroke="#666666" points="247.5,-142 153.5,-142 153.5,-123 247.5,-123 247.5,-142"/>
<text text-anchor="middle" x="200.5" y="-130" font-family="Helvetica,sans-Serif" font-size="10.00">openCloseMelody</text>
</a>
</g>
</g>
<!-- Node1&#45;&gt;Node11 -->
<g id="edge12" class="edge">
<title>Node1&#45;&gt;Node11</title>
<path fill="none" stroke="#63b8ff" d="M110.25,-143.69C120.96,-142.35 132.22,-140.94 143,-139.59"/>
<polygon fill="#63b8ff" stroke="#63b8ff" points="143.66,-143.03 153.15,-138.31 142.79,-136.09 143.66,-143.03"/>
</g>
<!-- Node12 -->
<g id="node12" class="node">
<title>Node12</title>
<g id="a_node12"><a xlink:href="motor_control_8cpp.html#aa6b9b6a60feed520f3227ec9a50c5e86" target="_top" xlink:title="Open the font.">
<polygon fill="white" stroke="#666666" points="230.5,-234 170.5,-234 170.5,-215 230.5,-215 230.5,-234"/>
<text text-anchor="middle" x="200.5" y="-222" font-family="Helvetica,sans-Serif" font-size="10.00">openFront</text>
</a>
</g>
</g>
<!-- Node1&#45;&gt;Node12 -->
<g id="edge13" class="edge">
<title>Node1&#45;&gt;Node12</title>
<path fill="none" stroke="#63b8ff" d="M69.17,-160.06C86.23,-172.12 117.2,-192.92 146,-206.5 150.7,-208.72 155.75,-210.79 160.8,-212.68"/>
<polygon fill="#63b8ff" stroke="#63b8ff" points="159.82,-216.04 170.42,-216.08 162.16,-209.44 159.82,-216.04"/>
</g>
<!-- Node13 -->
<g id="node13" class="node">
<title>Node13</title>
<g id="a_node13"><a xlink:href="classconfiguration_manager.html#a98840390e246bd6606af1345d54458ec" target="_top" xlink:title="Save configuration to EEPROM.">
<polygon fill="white" stroke="#666666" points="255,-67.5 146,-67.5 146,-37.5 255,-37.5 255,-67.5"/>
<text text-anchor="start" x="154" y="-55.5" font-family="Helvetica,sans-Serif" font-size="10.00">configurationManager</text>
<text text-anchor="middle" x="200.5" y="-44.5" font-family="Helvetica,sans-Serif" font-size="10.00">::saveConfig</text>
</a>
</g>
</g>
<!-- Node1&#45;&gt;Node13 -->
<g id="edge15" class="edge">
<title>Node1&#45;&gt;Node13</title>
<path fill="none" stroke="#63b8ff" d="M65.85,-140.89C81.71,-125.76 114.36,-96.11 146,-76.5 148.43,-74.99 150.98,-73.52 153.58,-72.11"/>
<polygon fill="#63b8ff" stroke="#63b8ff" points="155.26,-75.18 162.57,-67.5 152.07,-68.95 155.26,-75.18"/>
</g>
<!-- Node15 -->
<g id="node15" class="node">
<title>Node15</title>
<g id="a_node15"><a xlink:href="buzzer_control_8cpp.html#a510029b29e503662590cc7e69a41b744" target="_top" xlink:title="Generate turn on sound.">
<polygon fill="white" stroke="#666666" points="239,-19 162,-19 162,0 239,0 239,-19"/>
<text text-anchor="middle" x="200.5" y="-7" font-family="Helvetica,sans-Serif" font-size="10.00">turnOnMelody</text>
</a>
</g>
</g>
<!-- Node1&#45;&gt;Node15 -->
<g id="edge17" class="edge">
<title>Node1&#45;&gt;Node15</title>
<path fill="none" stroke="#63b8ff" d="M60.62,-140.73C71.95,-117.82 103.3,-60.18 146,-28.5 148.49,-26.65 151.18,-24.97 153.98,-23.44"/>
<polygon fill="#63b8ff" stroke="#63b8ff" points="155.65,-26.52 163.19,-19.07 152.65,-20.2 155.65,-26.52"/>
</g>
<!-- Node4 -->
<g id="node4" class="node">
<title>Node4</title>
<g id="a_node4"><a xlink:href="classssd1306.html#a5062186eb98a5bb66a009d232b143172" target="_top" xlink:title="Turn off the oled panel.">
<polygon fill="white" stroke="#666666" points="396.5,-105 294.5,-105 294.5,-86 396.5,-86 396.5,-105"/>
<text text-anchor="middle" x="345.5" y="-93" font-family="Helvetica,sans-Serif" font-size="10.00">ssd1306::displayOff</text>
</a>
</g>
</g>
<!-- Node3&#45;&gt;Node4 -->
<g id="edge3" class="edge">
<title>Node3&#45;&gt;Node4</title>
<path fill="none" stroke="#63b8ff" d="M231.83,-95.5C247.04,-95.5 266.03,-95.5 284.06,-95.5"/>
<polygon fill="#63b8ff" stroke="#63b8ff" points="284.24,-99 294.24,-95.5 284.24,-92 284.24,-99"/>
</g>
<!-- Node6 -->
<g id="node6" class="node">
<title>Node6</title>
<g id="a_node6"><a xlink:href="classssd1306.html#a8ef7011e9d60ce7307650365e48e285d" target="_top" xlink:title="Turn on the oled panel.">
<polygon fill="white" stroke="#666666" points="397,-142 294,-142 294,-123 397,-123 397,-142"/>
<text text-anchor="middle" x="345.5" y="-130" font-family="Helvetica,sans-Serif" font-size="10.00">ssd1306::displayOn</text>
</a>
</g>
</g>
<!-- Node3&#45;&gt;Node6 -->
<g id="edge5" class="edge">
<title>Node3&#45;&gt;Node6</title>
<path fill="none" stroke="#63b8ff" d="M231.83,-103.35C251.02,-108.31 276.23,-114.83 297.93,-120.45"/>
<polygon fill="#63b8ff" stroke="#63b8ff" points="297.06,-123.84 307.62,-122.96 298.81,-117.06 297.06,-123.84"/>
</g>
<!-- Node5 -->
<g id="node5" class="node">
<title>Node5</title>
<g id="a_node5"><a xlink:href="classssd1306.html#aefa5eaf22de34a236f038ee2f1528d18" target="_top" xlink:title="Write command to the display.">
<polygon fill="white" stroke="#666666" points="560,-123 436,-123 436,-104 560,-104 560,-123"/>
<text text-anchor="middle" x="498" y="-111" font-family="Helvetica,sans-Serif" font-size="10.00">ssd1306::writeCommand</text>
</a>
</g>
</g>
<!-- Node4&#45;&gt;Node5 -->
<g id="edge4" class="edge">
<title>Node4&#45;&gt;Node5</title>
<path fill="none" stroke="#63b8ff" d="M396.61,-101.49C405.94,-102.61 415.85,-103.79 425.68,-104.97"/>
<polygon fill="#63b8ff" stroke="#63b8ff" points="425.51,-108.47 435.85,-106.19 426.34,-101.52 425.51,-108.47"/>
</g>
<!-- Node6&#45;&gt;Node5 -->
<g id="edge6" class="edge">
<title>Node6&#45;&gt;Node5</title>
<path fill="none" stroke="#63b8ff" d="M397.03,-126.12C406.29,-124.95 416.1,-123.71 425.82,-122.49"/>
<polygon fill="#63b8ff" stroke="#63b8ff" points="426.41,-125.94 435.9,-121.21 425.54,-118.99 426.41,-125.94"/>
</g>
<!-- Node8 -->
<g id="node8" class="node">
<title>Node8</title>
<g id="a_node8"><a xlink:href="light_control_8cpp.html#ac63baab438299bd5074897396b600c00" target="_top" xlink:title="Turn off the lighting.">
<polygon fill="white" stroke="#666666" points="369,-252 322,-252 322,-233 369,-233 369,-252"/>
<text text-anchor="middle" x="345.5" y="-240" font-family="Helvetica,sans-Serif" font-size="10.00">lightOff</text>
</a>
</g>
</g>
<!-- Node7&#45;&gt;Node8 -->
<g id="edge8" class="edge">
<title>Node7&#45;&gt;Node8</title>
<path fill="none" stroke="#63b8ff" d="M232.18,-257.42C255.63,-254.31 287.88,-250.02 311.81,-246.84"/>
<polygon fill="#63b8ff" stroke="#63b8ff" points="312.38,-250.3 321.84,-245.51 311.46,-243.36 312.38,-250.3"/>
</g>
<!-- Node9 -->
<g id="node9" class="node">
<title>Node9</title>
<g id="a_node9"><a xlink:href="light_control_8cpp.html#a4dc2c28dc568051bd85575dfd2082c54" target="_top" xlink:title="Turn on the lighting.">
<polygon fill="white" stroke="#666666" points="369,-289 322,-289 322,-270 369,-270 369,-289"/>
<text text-anchor="middle" x="345.5" y="-277" font-family="Helvetica,sans-Serif" font-size="10.00">lightOn</text>
</a>
</g>
</g>
<!-- Node7&#45;&gt;Node9 -->
<g id="edge9" class="edge">
<title>Node7&#45;&gt;Node9</title>
<path fill="none" stroke="#63b8ff" d="M232.18,-265.36C255.63,-268.31 287.88,-272.37 311.81,-275.39"/>
<polygon fill="#63b8ff" stroke="#63b8ff" points="311.48,-278.87 321.84,-276.65 312.35,-271.93 311.48,-278.87"/>
</g>
<!-- Node10&#45;&gt;Node10 -->
<g id="edge11" class="edge">
<title>Node10&#45;&gt;Node10</title>
<path fill="none" stroke="#63b8ff" d="M178.31,-179.08C167.51,-187.73 174.91,-197 200.5,-197 216.9,-197 225.82,-193.2 227.29,-188.19"/>
<polygon fill="#63b8ff" stroke="#63b8ff" points="230.32,-186.44 222.69,-179.08 224.07,-189.59 230.32,-186.44"/>
</g>
<!-- Node12&#45;&gt;Node6 -->
<g id="edge14" class="edge">
<title>Node12&#45;&gt;Node6</title>
<path fill="none" stroke="#63b8ff" d="M230.64,-216.84C238.79,-214.13 247.46,-210.69 255,-206.5 282.86,-191 310.45,-166.42 327.47,-149.88"/>
<polygon fill="#63b8ff" stroke="#63b8ff" points="330.3,-152.01 334.94,-142.49 325.37,-147.04 330.3,-152.01"/>
</g>
<!-- Node14 -->
<g id="node14" class="node">
<title>Node14</title>
<g id="a_node14"><a xlink:href="classconfiguration_manager.html#a5ca29572d941838b46df0dcb0ab811f3" target="_top" xlink:title="Maxim like crc&#45;8.">
<polygon fill="white" stroke="#666666" points="400,-67.5 291,-67.5 291,-37.5 400,-37.5 400,-67.5"/>
<text text-anchor="start" x="299" y="-55.5" font-family="Helvetica,sans-Serif" font-size="10.00">configurationManager</text>
<text text-anchor="middle" x="345.5" y="-44.5" font-family="Helvetica,sans-Serif" font-size="10.00">::crcFeed</text>
</a>
</g>
</g>
<!-- Node13&#45;&gt;Node14 -->
<g id="edge16" class="edge">
<title>Node13&#45;&gt;Node14</title>
<path fill="none" stroke="#63b8ff" d="M255.15,-52.5C263.38,-52.5 271.94,-52.5 280.37,-52.5"/>
<polygon fill="#63b8ff" stroke="#63b8ff" points="280.54,-56 290.54,-52.5 280.54,-49 280.54,-56"/>
</g>
</g>
</svg>
