<?xml version="1.0" encoding="UTF-8" standalone="no"?>
<!DOCTYPE svg PUBLIC "-//W3C//DTD SVG 1.1//EN"
 "http://www.w3.org/Graphics/SVG/1.1/DTD/svg11.dtd">
<!-- Generated by graphviz version 5.0.1 (20220820.1526)
 -->
<!-- Title: menuInit Pages: 1 -->
<svg width="256pt" height="545pt"
 viewBox="0.00 0.00 256.00 545.00" xmlns="http://www.w3.org/2000/svg" xmlns:xlink="http://www.w3.org/1999/xlink">
<g id="graph0" class="graph" transform="scale(1 1) rotate(0) translate(4 541)">
<title>menuInit</title>
<!-- Node1 -->
<g id="node1" class="node">
<title>Node1</title>
<g id="a_node1"><a xlink:title="Initialize the menu system.">
<polygon fill="#999999" stroke="#666666" points="53,-278 0,-278 0,-259 53,-259 53,-278"/>
<text text-anchor="middle" x="26.5" y="-266" font-family="Helvetica,sans-Serif" font-size="10.00">menuInit</text>
</a>
</g>
</g>
<!-- Node2 -->
<g id="node2" class="node">
<title>Node2</title>
<g id="a_node2"><a xlink:href="menu_8cpp.html#a05c76b51924f5f8f4ef70cae6d07eb90" target="_top" xlink:title="Draw override for brightness selection.">
<polygon fill="white" stroke="#666666" points="243,-537 94,-537 94,-518 243,-518 243,-537"/>
<text text-anchor="middle" x="168.5" y="-525" font-family="Helvetica,sans-Serif" font-size="10.00">brightnessSelectDrawFunction</text>
</a>
</g>
</g>
<!-- Node1&#45;&gt;Node2 -->
<g id="edge1" class="edge">
<title>Node1&#45;&gt;Node2</title>
<path fill="none" stroke="#63b8ff" d="M28.62,-278.08C33.54,-318.67 54.62,-475.95 89,-509.5 89.96,-510.43 90.95,-511.32 91.98,-512.17"/>
<polygon fill="#63b8ff" stroke="#63b8ff" points="90.21,-515.19 100.46,-517.86 94.11,-509.38 90.21,-515.19"/>
</g>
<!-- Node3 -->
<g id="node3" class="node">
<title>Node3</title>
<g id="a_node3"><a xlink:href="menu_8cpp.html#a2b016118a0e096dd41f9217dc9cff74b" target="_top" xlink:title="Behaviour override for brightness selection.">
<polygon fill="white" stroke="#666666" points="232,-500 105,-500 105,-481 232,-481 232,-500"/>
<text text-anchor="middle" x="168.5" y="-488" font-family="Helvetica,sans-Serif" font-size="10.00">brightnessSelectFunction</text>
</a>
</g>
</g>
<!-- Node1&#45;&gt;Node3 -->
<g id="edge2" class="edge">
<title>Node1&#45;&gt;Node3</title>
<path fill="none" stroke="#63b8ff" d="M27.26,-278.34C27.01,-311.21 30.9,-418.19 89,-472.5 91.15,-474.51 93.49,-476.32 95.95,-477.93"/>
<polygon fill="#63b8ff" stroke="#63b8ff" points="94.33,-481.04 104.79,-482.73 97.67,-474.88 94.33,-481.04"/>
</g>
<!-- Node4 -->
<g id="node4" class="node">
<title>Node4</title>
<g id="a_node4"><a xlink:href="menu_8cpp.html#a7b11962e0299f94228c9156915a69ee5" target="_top" xlink:title="Behaviour override for buzzer menu.">
<polygon fill="white" stroke="#666666" points="241.5,-463 95.5,-463 95.5,-444 241.5,-444 241.5,-463"/>
<text text-anchor="middle" x="168.5" y="-451" font-family="Helvetica,sans-Serif" font-size="10.00">buzzerMenuSelectedFunction</text>
</a>
</g>
</g>
<!-- Node1&#45;&gt;Node4 -->
<g id="edge3" class="edge">
<title>Node1&#45;&gt;Node4</title>
<path fill="none" stroke="#63b8ff" d="M28,-278.17C30.02,-306.91 40.06,-392.43 89,-435.5 90.18,-436.54 91.41,-437.52 92.68,-438.45"/>
<polygon fill="#63b8ff" stroke="#63b8ff" points="91.22,-441.66 101.59,-443.84 94.84,-435.67 91.22,-441.66"/>
</g>
<!-- Node5 -->
<g id="node5" class="node">
<title>Node5</title>
<g id="a_node5"><a xlink:href="menu_8cpp.html#a6c110f4f0e90ee77f942f14ee7ffb81b" target="_top" xlink:title="Behaviour override for candle menu select.">
<polygon fill="white" stroke="#666666" points="235.5,-426 101.5,-426 101.5,-407 235.5,-407 235.5,-426"/>
<text text-anchor="middle" x="168.5" y="-414" font-family="Helvetica,sans-Serif" font-size="10.00">candleMenuSelectFunction</text>
</a>
</g>
</g>
<!-- Node1&#45;&gt;Node5 -->
<g id="edge4" class="edge">
<title>Node1&#45;&gt;Node5</title>
<path fill="none" stroke="#63b8ff" d="M29.1,-278.1C33.67,-302.36 49.11,-366.43 89,-398.5 90.59,-399.78 92.26,-400.97 93.99,-402.09"/>
<polygon fill="#63b8ff" stroke="#63b8ff" points="92.61,-405.32 103.07,-406.99 95.94,-399.16 92.61,-405.32"/>
</g>
<!-- Node6 -->
<g id="node6" class="node">
<title>Node6</title>
<g id="a_node6"><a xlink:href="menu_8cpp.html#a3c3d956aca28de46741cd6e5db5ffaee" target="_top" xlink:title="Behaviour override for clap menu.">
<polygon fill="white" stroke="#666666" points="235.5,-389 101.5,-389 101.5,-370 235.5,-370 235.5,-389"/>
<text text-anchor="middle" x="168.5" y="-377" font-family="Helvetica,sans-Serif" font-size="10.00">clapMenuSelectedFunction</text>
</a>
</g>
</g>
<!-- Node1&#45;&gt;Node6 -->
<g id="edge5" class="edge">
<title>Node1&#45;&gt;Node6</title>
<path fill="none" stroke="#63b8ff" d="M31.03,-278.16C38.53,-297.29 57.97,-340 89,-361.5 91.24,-363.05 93.59,-364.47 96.03,-365.77"/>
<polygon fill="#63b8ff" stroke="#63b8ff" points="94.62,-368.97 105.16,-369.96 97.54,-362.61 94.62,-368.97"/>
</g>
<!-- Node7 -->
<g id="node7" class="node">
<title>Node7</title>
<g id="a_node7"><a xlink:href="menu_8cpp.html#ac022544e45c7f043d12d0951547249a1" target="_top" xlink:title="Behaviour override for color mode menu.">
<polygon fill="white" stroke="#666666" points="232,-352 105,-352 105,-333 232,-333 232,-352"/>
<text text-anchor="middle" x="168.5" y="-340" font-family="Helvetica,sans-Serif" font-size="10.00">colorMenuSelectFunction</text>
</a>
</g>
</g>
<!-- Node1&#45;&gt;Node7 -->
<g id="edge6" class="edge">
<title>Node1&#45;&gt;Node7</title>
<path fill="none" stroke="#63b8ff" d="M35.17,-278.04C45.86,-290.67 66.48,-312.72 89,-324.5 92.69,-326.43 96.59,-328.16 100.6,-329.7"/>
<polygon fill="#63b8ff" stroke="#63b8ff" points="99.49,-333.02 110.09,-332.98 101.78,-326.41 99.49,-333.02"/>
</g>
<!-- Node8 -->
<g id="node8" class="node">
<title>Node8</title>
<g id="a_node8"><a xlink:href="menu_8cpp.html#aa6c25806baf4bb6f997ffd124d95d7a9" target="_top" xlink:title="Draw override for color select menu.">
<polygon fill="white" stroke="#666666" points="231,-315 106,-315 106,-296 231,-296 231,-315"/>
<text text-anchor="middle" x="168.5" y="-303" font-family="Helvetica,sans-Serif" font-size="10.00">colorSelectDrawFunction</text>
</a>
</g>
</g>
<!-- Node1&#45;&gt;Node8 -->
<g id="edge7" class="edge">
<title>Node1&#45;&gt;Node8</title>
<path fill="none" stroke="#63b8ff" d="M53.11,-276.88C64.1,-280.35 77.13,-284.31 89,-287.5 96.87,-289.62 105.23,-291.7 113.44,-293.66"/>
<polygon fill="#63b8ff" stroke="#63b8ff" points="112.81,-297.11 123.35,-295.98 114.41,-290.29 112.81,-297.11"/>
</g>
<!-- Node9 -->
<g id="node9" class="node">
<title>Node9</title>
<g id="a_node9"><a xlink:href="menu_8cpp.html#a43e28b685319d16ec59e9d329fa5877e" target="_top" xlink:title="Behaviour override for color select menu.">
<polygon fill="white" stroke="#666666" points="220,-278 117,-278 117,-259 220,-259 220,-278"/>
<text text-anchor="middle" x="168.5" y="-266" font-family="Helvetica,sans-Serif" font-size="10.00">colorSelectFunction</text>
</a>
</g>
</g>
<!-- Node1&#45;&gt;Node9 -->
<g id="edge8" class="edge">
<title>Node1&#45;&gt;Node9</title>
<path fill="none" stroke="#63b8ff" d="M53.18,-268.5C68.23,-268.5 87.94,-268.5 106.73,-268.5"/>
<polygon fill="#63b8ff" stroke="#63b8ff" points="106.75,-272 116.75,-268.5 106.75,-265 106.75,-272"/>
</g>
<!-- Node10 -->
<g id="node10" class="node">
<title>Node10</title>
<g id="a_node10"><a xlink:href="menu_8cpp.html#a77a90a3a2ffabdf0a5b3a4a3cf00a9f0" target="_top" xlink:title=" ">
<polygon fill="white" stroke="#666666" points="248,-241 89,-241 89,-222 248,-222 248,-241"/>
<text text-anchor="middle" x="168.5" y="-229" font-family="Helvetica,sans-Serif" font-size="10.00">fogEnableMenuSelectedFunction</text>
</a>
</g>
</g>
<!-- Node1&#45;&gt;Node10 -->
<g id="edge9" class="edge">
<title>Node1&#45;&gt;Node10</title>
<path fill="none" stroke="#63b8ff" d="M53.16,-260.7C64.16,-257.43 77.18,-253.66 89,-250.5 97.85,-248.13 107.3,-245.74 116.47,-243.48"/>
<polygon fill="#63b8ff" stroke="#63b8ff" points="117.37,-246.86 126.26,-241.09 115.71,-240.06 117.37,-246.86"/>
</g>
<!-- Node11 -->
<g id="node11" class="node">
<title>Node11</title>
<g id="a_node11"><a xlink:href="menu_8cpp.html#a88d2dece762e3b85d4aa7b2182ce26e9" target="_top" xlink:title="Draw override for fog timer setting.">
<polygon fill="white" stroke="#666666" points="238.5,-204 98.5,-204 98.5,-185 238.5,-185 238.5,-204"/>
<text text-anchor="middle" x="168.5" y="-192" font-family="Helvetica,sans-Serif" font-size="10.00">fogTimerSelectDrawFunction</text>
</a>
</g>
</g>
<!-- Node1&#45;&gt;Node11 -->
<g id="edge10" class="edge">
<title>Node1&#45;&gt;Node11</title>
<path fill="none" stroke="#63b8ff" d="M35.6,-258.75C46.45,-246.33 66.93,-225.09 89,-213.5 93.46,-211.16 98.22,-209.1 103.1,-207.29"/>
<polygon fill="#63b8ff" stroke="#63b8ff" points="104.23,-210.6 112.6,-204.1 102.01,-203.96 104.23,-210.6"/>
</g>
<!-- Node12 -->
<g id="node12" class="node">
<title>Node12</title>
<g id="a_node12"><a xlink:href="menu_8cpp.html#a9e1e416e4818382df8d39d0125d210f5" target="_top" xlink:title="Behaviour override for fog timer setting menu.">
<polygon fill="white" stroke="#666666" points="228,-167 109,-167 109,-148 228,-148 228,-167"/>
<text text-anchor="middle" x="168.5" y="-155" font-family="Helvetica,sans-Serif" font-size="10.00">fogTimerSelectFunction</text>
</a>
</g>
</g>
<!-- Node1&#45;&gt;Node12 -->
<g id="edge11" class="edge">
<title>Node1&#45;&gt;Node12</title>
<path fill="none" stroke="#63b8ff" d="M31.08,-258.97C38.68,-240.1 58.28,-197.95 89,-176.5 92.27,-174.22 95.78,-172.21 99.44,-170.44"/>
<polygon fill="#63b8ff" stroke="#63b8ff" points="100.92,-173.61 108.79,-166.51 98.21,-167.16 100.92,-173.61"/>
</g>
<!-- Node13 -->
<g id="node13" class="node">
<title>Node13</title>
<g id="a_node13"><a xlink:href="menu_8cpp.html#a1970379f59b8760eecae1c62b524dc48" target="_top" xlink:title="Behaviour override for komodo menu select.">
<polygon fill="white" stroke="#666666" points="238.5,-130 98.5,-130 98.5,-111 238.5,-111 238.5,-130"/>
<text text-anchor="middle" x="168.5" y="-118" font-family="Helvetica,sans-Serif" font-size="10.00">komodoMenuSelectFunction</text>
</a>
</g>
</g>
<!-- Node1&#45;&gt;Node13 -->
<g id="edge12" class="edge">
<title>Node1&#45;&gt;Node13</title>
<path fill="none" stroke="#63b8ff" d="M29.15,-259C33.83,-234.99 49.51,-171.55 89,-139.5 91.1,-137.8 93.32,-136.25 95.64,-134.83"/>
<polygon fill="#63b8ff" stroke="#63b8ff" points="97.72,-137.7 105.02,-130.01 94.52,-131.47 97.72,-137.7"/>
</g>
<!-- Node14 -->
<g id="node14" class="node">
<title>Node14</title>
<g id="a_node14"><a xlink:href="menu_8cpp.html#af63afc520dcef97967678aa6dbc973b9" target="_top" xlink:title="Behaviour override for music menu select.">
<polygon fill="white" stroke="#666666" points="234.5,-93 102.5,-93 102.5,-74 234.5,-74 234.5,-93"/>
<text text-anchor="middle" x="168.5" y="-81" font-family="Helvetica,sans-Serif" font-size="10.00">musicMenuSelectFunction</text>
</a>
</g>
</g>
<!-- Node1&#45;&gt;Node14 -->
<g id="edge13" class="edge">
<title>Node1&#45;&gt;Node14</title>
<path fill="none" stroke="#63b8ff" d="M28.04,-258.91C30.18,-230.42 40.54,-145.59 89,-102.5 90.75,-100.95 92.6,-99.52 94.53,-98.2"/>
<polygon fill="#63b8ff" stroke="#63b8ff" points="96.52,-101.09 103.49,-93.11 93.06,-95.01 96.52,-101.09"/>
</g>
<!-- Node15 -->
<g id="node15" class="node">
<title>Node15</title>
<g id="a_node15"><a xlink:href="menu_8cpp.html#a910a5811ac94710f8ddf95ba54708324" target="_top" xlink:title="Behaviour override for pulse menu select.">
<polygon fill="white" stroke="#666666" points="233,-56 104,-56 104,-37 233,-37 233,-56"/>
<text text-anchor="middle" x="168.5" y="-44" font-family="Helvetica,sans-Serif" font-size="10.00">pulseMenuSelectFunction</text>
</a>
</g>
</g>
<!-- Node1&#45;&gt;Node15 -->
<g id="edge14" class="edge">
<title>Node1&#45;&gt;Node15</title>
<path fill="none" stroke="#63b8ff" d="M27.3,-258.73C27.19,-226.1 31.45,-119.87 89,-65.5 90.74,-63.86 92.59,-62.35 94.54,-60.96"/>
<polygon fill="#63b8ff" stroke="#63b8ff" points="96.76,-63.73 103.62,-55.65 93.22,-57.68 96.76,-63.73"/>
</g>
<!-- Node16 -->
<g id="node16" class="node">
<title>Node16</title>
<g id="a_node16"><a xlink:href="menu_8cpp.html#ae0e8c5d7972d85144e7f0121104c75a1" target="_top" xlink:title="Behaviour override for rainbow menu select.">
<polygon fill="white" stroke="#666666" points="238,-19 99,-19 99,0 238,0 238,-19"/>
<text text-anchor="middle" x="168.5" y="-7" font-family="Helvetica,sans-Serif" font-size="10.00">rainbowMenuSelectFunction</text>
</a>
</g>
</g>
<!-- Node1&#45;&gt;Node16 -->
<g id="edge15" class="edge">
<title>Node1&#45;&gt;Node16</title>
<path fill="none" stroke="#63b8ff" d="M28.63,-258.97C33.63,-218.59 54.94,-62.11 89,-28.5 90.46,-27.06 92.01,-25.72 93.63,-24.48"/>
<polygon fill="#63b8ff" stroke="#63b8ff" points="95.7,-27.32 102.3,-19.03 91.97,-21.39 95.7,-27.32"/>
</g>
</g>
</svg>
