<?xml version="1.0" encoding="UTF-8" standalone="no"?>
<!DOCTYPE svg PUBLIC "-//W3C//DTD SVG 1.1//EN"
 "http://www.w3.org/Graphics/SVG/1.1/DTD/svg11.dtd">
<!-- Generated by graphviz version 5.0.1 (20220820.1526)
 -->
<!-- Title: rainbowMenuSelectFunction Pages: 1 -->
<svg width="313pt" height="27pt"
 viewBox="0.00 0.00 313.00 27.00" xmlns="http://www.w3.org/2000/svg" xmlns:xlink="http://www.w3.org/1999/xlink">
<g id="graph0" class="graph" transform="scale(1 1) rotate(0) translate(4 23)">
<title>rainbowMenuSelectFunction</title>
<!-- Node1 -->
<g id="node1" class="node">
<title>Node1</title>
<g id="a_node1"><a xlink:title="Behaviour override for rainbow menu select.">
<polygon fill="#999999" stroke="#666666" points="305,-19 166,-19 166,0 305,0 305,-19"/>
<text text-anchor="middle" x="235.5" y="-7" font-family="Helvetica,sans-Serif" font-size="10.00">rainbowMenuSelectFunction</text>
</a>
</g>
</g>
<!-- Node2 -->
<g id="node2" class="node">
<title>Node2</title>
<g id="a_node2"><a xlink:href="menu_8cpp.html#a7f54e3748544f98b538cfbc35d963bb8" target="_top" xlink:title="Initialize the menu system.">
<polygon fill="white" stroke="#666666" points="130,-19 77,-19 77,0 130,0 130,-19"/>
<text text-anchor="middle" x="103.5" y="-7" font-family="Helvetica,sans-Serif" font-size="10.00">menuInit</text>
</a>
</g>
</g>
<!-- Node1&#45;&gt;Node2 -->
<g id="edge1" class="edge">
<title>Node1&#45;&gt;Node2</title>
<path fill="none" stroke="#63b8ff" d="M155.68,-9.5C146.55,-9.5 137.8,-9.5 130.2,-9.5"/>
<polygon fill="#63b8ff" stroke="#63b8ff" points="155.69,-13 165.69,-9.5 155.69,-6 155.69,-13"/>
</g>
<!-- Node3 -->
<g id="node3" class="node">
<title>Node3</title>
<g id="a_node3"><a xlink:href="main_8cpp.html#a4fc01d736fe50cf5b977f755b675f11d" target="_top" xlink:title="Device initialization section after reset.">
<polygon fill="white" stroke="#666666" points="41,-19 0,-19 0,0 41,0 41,-19"/>
<text text-anchor="middle" x="20.5" y="-7" font-family="Helvetica,sans-Serif" font-size="10.00">setup</text>
</a>
</g>
</g>
<!-- Node2&#45;&gt;Node3 -->
<g id="edge2" class="edge">
<title>Node2&#45;&gt;Node3</title>
<path fill="none" stroke="#63b8ff" d="M66.75,-9.5C57.92,-9.5 48.79,-9.5 41.06,-9.5"/>
<polygon fill="#63b8ff" stroke="#63b8ff" points="66.87,-13 76.87,-9.5 66.87,-6 66.87,-13"/>
</g>
</g>
</svg>
