<?xml version="1.0" encoding="UTF-8" standalone="no"?>
<!DOCTYPE svg PUBLIC "-//W3C//DTD SVG 1.1//EN"
 "http://www.w3.org/Graphics/SVG/1.1/DTD/svg11.dtd">
<!-- Generated by graphviz version 5.0.1 (20220820.1526)
 -->
<!-- Title: closeFront Pages: 1 -->
<svg width="293pt" height="64pt"
 viewBox="0.00 0.00 293.00 64.00" xmlns="http://www.w3.org/2000/svg" xmlns:xlink="http://www.w3.org/1999/xlink">
<g id="graph0" class="graph" transform="scale(1 1) rotate(0) translate(4 60)">
<title>closeFront</title>
<!-- Node1 -->
<g id="node1" class="node">
<title>Node1</title>
<g id="a_node1"><a xlink:title=" ">
<polygon fill="#999999" stroke="#666666" points="285,-37 223,-37 223,-18 285,-18 285,-37"/>
<text text-anchor="middle" x="254" y="-25" font-family="Helvetica,sans-Serif" font-size="10.00">closeFront</text>
</a>
</g>
</g>
<!-- Node2 -->
<g id="node2" class="node">
<title>Node2</title>
<g id="a_node2"><a xlink:href="main_8cpp.html#a098f004d14a561a6007a87e9a2959eb9" target="_top" xlink:title="This function handles the button press detection.">
<polygon fill="white" stroke="#666666" points="187,-56 77,-56 77,-37 187,-37 187,-56"/>
<text text-anchor="middle" x="132" y="-44" font-family="Helvetica,sans-Serif" font-size="10.00">encoderButtonUpdate</text>
</a>
</g>
</g>
<!-- Node1&#45;&gt;Node2 -->
<g id="edge1" class="edge">
<title>Node1&#45;&gt;Node2</title>
<path fill="none" stroke="#63b8ff" d="M212.67,-33.89C204.46,-35.19 195.7,-36.57 187.1,-37.93"/>
<polygon fill="#63b8ff" stroke="#63b8ff" points="213.39,-37.32 222.72,-32.29 212.29,-30.4 213.39,-37.32"/>
</g>
<!-- Node4 -->
<g id="node4" class="node">
<title>Node4</title>
<g id="a_node4"><a xlink:href="motor_control_8cpp.html#a978983329d511d8ab27545d8badfbd89" target="_top" xlink:title=" ">
<polygon fill="white" stroke="#666666" points="159,-19 105,-19 105,0 159,0 159,-19"/>
<text text-anchor="middle" x="132" y="-7" font-family="Helvetica,sans-Serif" font-size="10.00">motorInit</text>
</a>
</g>
</g>
<!-- Node1&#45;&gt;Node4 -->
<g id="edge3" class="edge">
<title>Node1&#45;&gt;Node4</title>
<path fill="none" stroke="#63b8ff" d="M212.68,-21.45C195.04,-18.81 174.84,-15.78 159.2,-13.43"/>
<polygon fill="#63b8ff" stroke="#63b8ff" points="212.31,-24.94 222.72,-22.96 213.35,-18.01 212.31,-24.94"/>
</g>
<!-- Node3 -->
<g id="node3" class="node">
<title>Node3</title>
<g id="a_node3"><a xlink:href="main_8cpp.html#afe461d27b9c48d5921c00d521181f12f" target="_top" xlink:title="This is the infinite loop of the code.">
<polygon fill="white" stroke="#666666" points="38,-56 3,-56 3,-37 38,-37 38,-56"/>
<text text-anchor="middle" x="20.5" y="-44" font-family="Helvetica,sans-Serif" font-size="10.00">loop</text>
</a>
</g>
</g>
<!-- Node2&#45;&gt;Node3 -->
<g id="edge2" class="edge">
<title>Node2&#45;&gt;Node3</title>
<path fill="none" stroke="#63b8ff" d="M66.76,-46.5C56.28,-46.5 46.29,-46.5 38.37,-46.5"/>
<polygon fill="#63b8ff" stroke="#63b8ff" points="66.89,-50 76.89,-46.5 66.89,-43 66.89,-50"/>
</g>
<!-- Node5 -->
<g id="node5" class="node">
<title>Node5</title>
<g id="a_node5"><a xlink:href="main_8cpp.html#a4fc01d736fe50cf5b977f755b675f11d" target="_top" xlink:title="Device initialization section after reset.">
<polygon fill="white" stroke="#666666" points="41,-19 0,-19 0,0 41,0 41,-19"/>
<text text-anchor="middle" x="20.5" y="-7" font-family="Helvetica,sans-Serif" font-size="10.00">setup</text>
</a>
</g>
</g>
<!-- Node4&#45;&gt;Node5 -->
<g id="edge4" class="edge">
<title>Node4&#45;&gt;Node5</title>
<path fill="none" stroke="#63b8ff" d="M94.71,-9.5C76.92,-9.5 56.19,-9.5 41.34,-9.5"/>
<polygon fill="#63b8ff" stroke="#63b8ff" points="94.77,-13 104.77,-9.5 94.77,-6 94.77,-13"/>
</g>
</g>
</svg>
