<?xml version="1.0" encoding="UTF-8" standalone="no"?>
<!DOCTYPE svg PUBLIC "-//W3C//DTD SVG 1.1//EN"
 "http://www.w3.org/Graphics/SVG/1.1/DTD/svg11.dtd">
<!-- Generated by graphviz version 5.0.1 (20220820.1526)
 -->
<!-- Title: motorInit Pages: 1 -->
<svg width="459pt" height="64pt"
 viewBox="0.00 0.00 459.00 64.00" xmlns="http://www.w3.org/2000/svg" xmlns:xlink="http://www.w3.org/1999/xlink">
<g id="graph0" class="graph" transform="scale(1 1) rotate(0) translate(4 60)">
<title>motorInit</title>
<!-- Node1 -->
<g id="node1" class="node">
<title>Node1</title>
<g id="a_node1"><a xlink:title=" ">
<polygon fill="#999999" stroke="#666666" points="54,-38 0,-38 0,-19 54,-19 54,-38"/>
<text text-anchor="middle" x="27" y="-26" font-family="Helvetica,sans-Serif" font-size="10.00">motorInit</text>
</a>
</g>
</g>
<!-- Node2 -->
<g id="node2" class="node">
<title>Node2</title>
<g id="a_node2"><a xlink:href="motor_control_8cpp.html#a3edea24b195ca992810885fdec367a5b" target="_top" xlink:title=" ">
<polygon fill="white" stroke="#666666" points="152,-38 90,-38 90,-19 152,-19 152,-38"/>
<text text-anchor="middle" x="121" y="-26" font-family="Helvetica,sans-Serif" font-size="10.00">closeFront</text>
</a>
</g>
</g>
<!-- Node1&#45;&gt;Node2 -->
<g id="edge1" class="edge">
<title>Node1&#45;&gt;Node2</title>
<path fill="none" stroke="#63b8ff" d="M54.12,-28.5C62.14,-28.5 71.15,-28.5 79.88,-28.5"/>
<polygon fill="#63b8ff" stroke="#63b8ff" points="79.92,-32 89.92,-28.5 79.92,-25 79.92,-32"/>
</g>
<!-- Node3 -->
<g id="node3" class="node">
<title>Node3</title>
<g id="a_node3"><a xlink:href="classssd1306.html#a5062186eb98a5bb66a009d232b143172" target="_top" xlink:title=" ">
<polygon fill="white" stroke="#666666" points="290.5,-56 188.5,-56 188.5,-37 290.5,-37 290.5,-56"/>
<text text-anchor="middle" x="239.5" y="-44" font-family="Helvetica,sans-Serif" font-size="10.00">ssd1306::displayOff</text>
</a>
</g>
</g>
<!-- Node1&#45;&gt;Node3 -->
<g id="edge6" class="edge">
<title>Node1&#45;&gt;Node3</title>
<path fill="none" stroke="#63b8ff" d="M53.25,-38.1C64.34,-41.83 77.64,-45.65 90,-47.5 118.83,-51.82 151.15,-52.13 178.27,-51.13"/>
<polygon fill="#63b8ff" stroke="#63b8ff" points="178.55,-54.62 188.39,-50.68 178.24,-47.62 178.55,-54.62"/>
</g>
<!-- Node5 -->
<g id="node5" class="node">
<title>Node5</title>
<g id="a_node5"><a xlink:href="classssd1306.html#a8ef7011e9d60ce7307650365e48e285d" target="_top" xlink:title=" ">
<polygon fill="white" stroke="#666666" points="291,-19 188,-19 188,0 291,0 291,-19"/>
<text text-anchor="middle" x="239.5" y="-7" font-family="Helvetica,sans-Serif" font-size="10.00">ssd1306::displayOn</text>
</a>
</g>
</g>
<!-- Node1&#45;&gt;Node5 -->
<g id="edge7" class="edge">
<title>Node1&#45;&gt;Node5</title>
<path fill="none" stroke="#63b8ff" d="M54.2,-19.16C65.12,-15.72 78.02,-12.24 90,-10.5 118.62,-6.33 150.67,-5.62 177.65,-6.14"/>
<polygon fill="#63b8ff" stroke="#63b8ff" points="177.64,-9.65 187.72,-6.4 177.81,-2.65 177.64,-9.65"/>
</g>
<!-- Node2&#45;&gt;Node3 -->
<g id="edge2" class="edge">
<title>Node2&#45;&gt;Node3</title>
<path fill="none" stroke="#63b8ff" d="M152,-33.14C160.12,-34.39 169.21,-35.79 178.36,-37.21"/>
<polygon fill="#63b8ff" stroke="#63b8ff" points="177.85,-40.67 188.26,-38.74 178.92,-33.75 177.85,-40.67"/>
</g>
<!-- Node2&#45;&gt;Node5 -->
<g id="edge4" class="edge">
<title>Node2&#45;&gt;Node5</title>
<path fill="none" stroke="#63b8ff" d="M152,-23.61C159.94,-22.31 168.8,-20.87 177.73,-19.41"/>
<polygon fill="#63b8ff" stroke="#63b8ff" points="178.51,-22.83 187.81,-17.77 177.38,-15.92 178.51,-22.83"/>
</g>
<!-- Node4 -->
<g id="node4" class="node">
<title>Node4</title>
<g id="a_node4"><a xlink:href="classssd1306.html#aefa5eaf22de34a236f038ee2f1528d18" target="_top" xlink:title=" ">
<polygon fill="white" stroke="#666666" points="451,-37 327,-37 327,-18 451,-18 451,-37"/>
<text text-anchor="middle" x="389" y="-25" font-family="Helvetica,sans-Serif" font-size="10.00">ssd1306::writeCommand</text>
</a>
</g>
</g>
<!-- Node3&#45;&gt;Node4 -->
<g id="edge3" class="edge">
<title>Node3&#45;&gt;Node4</title>
<path fill="none" stroke="#63b8ff" d="M290.85,-40.01C299.28,-38.93 308.16,-37.78 316.99,-36.65"/>
<polygon fill="#63b8ff" stroke="#63b8ff" points="317.44,-40.12 326.91,-35.37 316.55,-33.18 317.44,-40.12"/>
</g>
<!-- Node5&#45;&gt;Node4 -->
<g id="edge5" class="edge">
<title>Node5&#45;&gt;Node4</title>
<path fill="none" stroke="#63b8ff" d="M291.26,-15.69C299.53,-16.7 308.22,-17.76 316.87,-18.82"/>
<polygon fill="#63b8ff" stroke="#63b8ff" points="316.61,-22.31 326.96,-20.05 317.46,-15.37 316.61,-22.31"/>
</g>
</g>
</svg>
