<?xml version="1.0" encoding="UTF-8" standalone="no"?>
<!DOCTYPE svg PUBLIC "-//W3C//DTD SVG 1.1//EN"
 "http://www.w3.org/Graphics/SVG/1.1/DTD/svg11.dtd">
<!-- Generated by graphviz version 5.0.1 (20220820.1526)
 -->
<!-- Title: closeFront Pages: 1 -->
<svg width="209pt" height="64pt"
 viewBox="0.00 0.00 209.00 64.00" xmlns="http://www.w3.org/2000/svg" xmlns:xlink="http://www.w3.org/1999/xlink">
<g id="graph0" class="graph" transform="scale(1 1) rotate(0) translate(4 60)">
<title>closeFront</title>
<!-- Node1 -->
<g id="node1" class="node">
<title>Node1</title>
<g id="a_node1"><a xlink:title=" ">
<polygon fill="#999999" stroke="#666666" points="62,-37 0,-37 0,-18 62,-18 62,-37"/>
<text text-anchor="middle" x="31" y="-25" font-family="Helvetica,sans-Serif" font-size="10.00">closeFront</text>
</a>
</g>
</g>
<!-- Node2 -->
<g id="node2" class="node">
<title>Node2</title>
<g id="a_node2"><a xlink:href="classssd1306.html#a5062186eb98a5bb66a009d232b143172" target="_top" xlink:title=" ">
<polygon fill="white" stroke="#666666" points="200.5,-56 98.5,-56 98.5,-37 200.5,-37 200.5,-56"/>
<text text-anchor="middle" x="149.5" y="-44" font-family="Helvetica,sans-Serif" font-size="10.00">ssd1306::displayOff</text>
</a>
</g>
</g>
<!-- Node1&#45;&gt;Node2 -->
<g id="edge1" class="edge">
<title>Node1&#45;&gt;Node2</title>
<path fill="none" stroke="#63b8ff" d="M62,-32.39C70.12,-33.72 79.21,-35.2 88.36,-36.69"/>
<polygon fill="#63b8ff" stroke="#63b8ff" points="87.83,-40.15 98.26,-38.31 88.96,-33.24 87.83,-40.15"/>
</g>
<!-- Node3 -->
<g id="node3" class="node">
<title>Node3</title>
<g id="a_node3"><a xlink:href="classssd1306.html#a8ef7011e9d60ce7307650365e48e285d" target="_top" xlink:title=" ">
<polygon fill="white" stroke="#666666" points="201,-19 98,-19 98,0 201,0 201,-19"/>
<text text-anchor="middle" x="149.5" y="-7" font-family="Helvetica,sans-Serif" font-size="10.00">ssd1306::displayOn</text>
</a>
</g>
</g>
<!-- Node1&#45;&gt;Node3 -->
<g id="edge2" class="edge">
<title>Node1&#45;&gt;Node3</title>
<path fill="none" stroke="#63b8ff" d="M62,-22.86C69.94,-21.64 78.8,-20.27 87.73,-18.89"/>
<polygon fill="#63b8ff" stroke="#63b8ff" points="88.46,-22.32 97.81,-17.33 87.39,-15.4 88.46,-22.32"/>
</g>
</g>
</svg>
