<?xml version="1.0" encoding="UTF-8" standalone="no"?>
<!DOCTYPE svg PUBLIC "-//W3C//DTD SVG 1.1//EN"
 "http://www.w3.org/Graphics/SVG/1.1/DTD/svg11.dtd">
<!-- Generated by graphviz version 5.0.1 (20220820.1526)
 -->
<!-- Title: openFront Pages: 1 -->
<svg width="367pt" height="27pt"
 viewBox="0.00 0.00 367.00 27.00" xmlns="http://www.w3.org/2000/svg" xmlns:xlink="http://www.w3.org/1999/xlink">
<g id="graph0" class="graph" transform="scale(1 1) rotate(0) translate(4 23)">
<title>openFront</title>
<!-- Node1 -->
<g id="node1" class="node">
<title>Node1</title>
<g id="a_node1"><a xlink:title="Open the font.">
<polygon fill="#999999" stroke="#666666" points="60,-19 0,-19 0,0 60,0 60,-19"/>
<text text-anchor="middle" x="30" y="-7" font-family="Helvetica,sans-Serif" font-size="10.00">openFront</text>
</a>
</g>
</g>
<!-- Node2 -->
<g id="node2" class="node">
<title>Node2</title>
<g id="a_node2"><a xlink:href="classssd1306.html#a8ef7011e9d60ce7307650365e48e285d" target="_top" xlink:title="Turn on the oled panel.">
<polygon fill="white" stroke="#666666" points="199,-19 96,-19 96,0 199,0 199,-19"/>
<text text-anchor="middle" x="147.5" y="-7" font-family="Helvetica,sans-Serif" font-size="10.00">ssd1306::displayOn</text>
</a>
</g>
</g>
<!-- Node1&#45;&gt;Node2 -->
<g id="edge1" class="edge">
<title>Node1&#45;&gt;Node2</title>
<path fill="none" stroke="#63b8ff" d="M60.15,-9.5C68.01,-9.5 76.82,-9.5 85.73,-9.5"/>
<polygon fill="#63b8ff" stroke="#63b8ff" points="85.79,-13 95.79,-9.5 85.79,-6 85.79,-13"/>
</g>
<!-- Node3 -->
<g id="node3" class="node">
<title>Node3</title>
<g id="a_node3"><a xlink:href="classssd1306.html#aefa5eaf22de34a236f038ee2f1528d18" target="_top" xlink:title="Write command to the display.">
<polygon fill="white" stroke="#666666" points="359,-19 235,-19 235,0 359,0 359,-19"/>
<text text-anchor="middle" x="297" y="-7" font-family="Helvetica,sans-Serif" font-size="10.00">ssd1306::writeCommand</text>
</a>
</g>
</g>
<!-- Node2&#45;&gt;Node3 -->
<g id="edge2" class="edge">
<title>Node2&#45;&gt;Node3</title>
<path fill="none" stroke="#63b8ff" d="M199.26,-9.5C207.53,-9.5 216.22,-9.5 224.87,-9.5"/>
<polygon fill="#63b8ff" stroke="#63b8ff" points="224.96,-13 234.96,-9.5 224.96,-6 224.96,-13"/>
</g>
</g>
</svg>
